<?xml version="1.0" encoding="utf-8"?>
<!-- Generator: Adobe Illustrator 22.1.0, SVG Export Plug-In . SVG Version: 6.00 Build 0)  -->
<svg version="1.1" id="Capa_1" xmlns="http://www.w3.org/2000/svg" xmlns:xlink="http://www.w3.org/1999/xlink" x="0px" y="0px"
	 viewBox="0 0 1595.6 485.6" style="enable-background:new 0 0 1595.6 485.6;" xml:space="preserve">
<style type="text/css">
	.st0{fill:#FFFFFF;}
</style>
<g>
	<g>
		<path class="st0" d="M444,183.9c-3.1,3.2-4,3.2-7.7,0.2c-9.5-7.9-29.2-8.8-34.2,8.3c-0.6,2-1.8,1.9-3.4,2
			c-4.7,0.5-7.5,3.2-7.8,7.6c-0.3,3.7,2.1,6.7,6.1,7.9c2.8,0.8,4.9,0,6.6-1.9c1.3-1.5,1.5-2.9-0.4-4.2c-1.5-1-2.8-2.2-1.2-3.8
			c1.5-1.6,3-0.6,4.4,0.5c0.9,0.7,1.6,1.5,2.6,2.5c1.6-1.1,3-2.3,4.5-3.2c7.6-4.5,16.7-3.4,23.2,2.8c5.6,5.3,4.7,13.9-1.8,17.6
			c-3.9,2.2-8.9,1.4-11.2-1.9c-0.5-0.8-0.5-2.3,0-3.1c0.3-0.5,2.4-0.6,2.9-0.1c2.3,2.1,4.4,2.6,6.8,0.4c2.4-2.2,2.8-5.6,1.1-8.3
			c-2.4-3.7-8.4-6.3-13.1-5.4c-5.2,0.9-9.5,3.5-11,8.2c-1.9,5.7-0.8,11.4,4,16c8.5,8.2,24.2,7.8,32-0.6c0.9-1,1.8-2.2,2.9-2.9
			c0.7-0.4,2.3-0.5,2.7,0c0.6,0.6,0.7,1.8,0.8,2.8c0,0.3-0.4,0.6-0.6,1c-0.9,1.7-0.3,3.1,1.5,3.8c1.9,0.7,3.5-0.2,3.7-2
			c0.4-3.2,2.1-3.1,4.8-2.3c10,3,19.9-0.3,26.2-6.7c-1.1-5.3-2.2-10.6-3-16c-0.1-0.7-0.2-1.5-0.3-2.2c-0.2,0.5-0.5,1-0.8,1.4
			c-4.4,6.9-14.2,8-20.7,2.3c-5.5-4.9-4.5-13.5,1.9-16.9c3.6-1.9,8.1-1.4,10.2,1.4c0.9,1.2,1.3,2.9,1.2,4.3c0,0.8-1.4,1.8-2.4,2
			c-0.6,0.1-1.9-1.1-2.2-1.9c-1-2.5-2.7-3.1-5-1.4c-2.4,1.7-3.3,5-2,7.6s5.2,4.9,8.4,4c2.3-0.6,4.9-1.9,6.2-3.7
			c4.1-5.5,2.4-14.1-3.8-18C464.2,174.1,453.1,174.5,444,183.9z"/>
		<path class="st0" d="M10.9,207.8l4.4,1.7l0.9-4.6C37.7,95.3,132.2,15.8,240.9,15.8c93.6,0,176.9,57.7,212.3,147l1.5,3.7l3.7-1.4
			c2.2-0.8,4.4-1.4,6.6-1.8l4.9-0.8l-1.8-4.6c-18-46-48.7-85.3-88.6-113.6C338.6,15.3,290.7,0,240.9,0C124.7,0,23.8,84.9,0.9,201.9
			L0,206.6l4.8,0.1C6.9,206.7,8.9,207.1,10.9,207.8z"/>
		<path class="st0" d="M485.1,233.5l-5,1.6c-2.2,0.7-4.5,1.2-6.7,1.4l-3.7,0.4l0.2,3.8c0.2,3.8,0.2,7.4,0.2,10.8
			c0,7.5-0.4,15.3-1.1,23.2l-0.4,3.7l3.7,0.6c2.3,0.4,4.5,1,6.7,1.8l4.9,1.8l0.5-5.2c0.9-8.8,1.3-17.5,1.3-25.9
			c0-4.2-0.1-8.5-0.3-12.8L485.1,233.5z"/>
		<path class="st0" d="M133.4,189.2c-0.8-1.6-4.4-3.1-6.4-2.7c-1.9,0.3-3.8,2.9-4.8,5c-0.3,0.7,2.1,2.7,3.3,4.1
			c1.4-1.5,2.7-3,4.1-4.5c0.5,0.1,1,0.2,1.5,0.2c-0.8,2.3-1.3,6.4-2.5,6.6c-4.2,0.8-8.6,0.3-13,0.3c-0.5-1.1-1-2.1-1.4-3.2
			c6.3-10.8,12.5-21.6,20.3-35c3.8,6.1,6.6,9.7,8.2,13.8c0.4,1-3.1,3.6-5.9,4.1c0.6-2,1.2-4.1,1.8-6.1c-1.6-0.2-4.1-1-4.5-0.4
			c-1.2,1.9-2.9,5-2.1,6.5c1,2.1,4.4,4.8,6.2,4.4c3.2-0.7,6.5-3,8.8-5.5c1.4-1.6,1.1-4.8,1.6-7.5c6.6-1.5,12.2-4,10.7-12.3
			c-0.9-5-4.3-6.6-8.8-5c-1.4,0.5-2.8,2.8-3,4.4c-0.1,1.1,1.9,2.4,2.9,3.7c1.2-1.4,2.3-2.8,3.5-4.1c0.6,0.2,1.2,0.4,1.7,0.6
			c-1.1,2.1-2.6,6.2-3.3,6.1c-4.5-0.8-8.8-2.6-13.1-4c0-1.1-0.1-2.2-0.1-3.3c9.4-8,18.8-16,30.7-26.1c1.5,6.9,2.9,11.3,3.1,15.8
			c0,1.1-4.1,2.3-7.1,1.7c1.4-1.5,2.9-3.1,4.3-4.6c-1.9-0.7-5.2-2.2-5.5-1.8c-1.4,2.1-3.1,4.9-2.6,7.1c1.3,5.5,9.6,6.8,14,2.3
			c1.7-1.7,2.7-4.2,4-6.4c0.5,0.7,1,1.3,1.5,2c4.3-3,9.8-5.2,12.6-9.3c2.6-3.9-0.2-8.4-5.6-8.9c-1.6-0.1-3.7,2.1-4.9,3.7
			c-0.4,0.5,1.3,2.6,2,4c1.4-1.1,2.8-2.2,4.2-3.3c0.5,0.4,1,0.8,1.5,1.2c-1.7,1.8-4.3,5.4-4.8,5.1c-4-2.1-7.7-5-11.4-7.6
			c0.2-1.2,0.5-2.5,0.7-3.7c11.7-4.3,23.3-8.7,35-13c0.9,0.6,1.8,1.1,2.7,1.7c-0.6,4.3-0.6,8.8-2,12.9c-0.4,1.1-4.7,0.9-7.3-0.3
			c1.8-1.2,3.6-2.4,5.4-3.7c-1.8-1-4.4-3.4-5.1-2.9c-2,1.4-4.3,3.8-4.4,6c-0.3,5.3,7.1,9.5,12,6.4c4.7-3,8.4-4.7,14.2-2.6
			c2.1,0.8,6.8-3,9-5.8c1-1.3-0.3-5.5-1.8-7.4c-1-1.2-4.4-0.7-6.6-0.1c-0.7,0.2-0.8,2.9-1.1,4.4c2,0.1,4.1,0.2,6.1,0.3
			c0.3,0.4,0.6,0.8,0.9,1.1c-2.3,0.9-6.1,3-6.7,2.4c-2.9-3.2-4.9-7.2-7.3-10.9c0.6-0.8,1.1-1.6,1.7-2.4c12.4,0,24.9,0,40.6,0
			c-3.5,5.8-5.6,9.9-8.5,13.3c-0.5,0.6-4.4-1.6-6-4c2,0.2,4,0.3,6,0.5c-0.4-1.8-0.5-4.9-1.2-5.1c-2.2-0.4-5.6-0.5-6.5,0.8
			c-1.4,1.9-2.3,6-1.2,7.4c2,2.6,5.4,4.7,8.6,5.6c2,0.6,4.7-1.3,7.5-2.3c2.1,1.5,4.4,4.2,7.1,4.7c2.9,0.5,6.8-0.2,9.2-1.9
			c1.7-1.2,2.5-5.1,1.9-7.4c-0.3-1.5-3.7-2.6-6-3.1c-0.7-0.2-1.9,2.2-2.9,3.4c1.7,1,3.3,2.1,7.1,4.5c-4.2-0.2-8.5,0.3-8.9-0.7
			c-1.4-3.4-1.8-7.4-1.6-11.1c0-0.8,4.3-2.5,6-2c10.4,3.3,20.6,7.2,30.9,10.9c0.3,1.1,0.5,2.1,0.8,3.2c-3.3,2.9-6.4,6.2-10.1,8.4
			c-1,0.6-4.1-2.6-5.1-5.5c2,0.6,3.9,1.2,5.9,1.8c0.1-1.8,0.5-5,0.1-5.1c-2.4-0.6-5.9-1.7-7.3-0.5c-1.7,1.4-3,5.3-2.3,7.3
			c1.1,2.8,3.9,5.3,6.7,6.8c1.9,1.1,4.9,0.2,7.4,0.2c-0.3,0.8-0.7,1.6-1,2.4c4.3,2.3,8.4,5.9,13,6.5c5.4,0.7,8.9-6.2,5.7-10
			c-1.1-1.2-3.4-1.7-5.1-1.8c-0.8,0-1.7,1.8-2.5,2.7c1.4,1.2,2.8,2.3,4.1,3.5c-0.1,0.6-0.3,1.3-0.4,1.9c-2.2-0.8-6.2-1.5-6.3-2.4
			c-0.1-4.6,0.8-9.2,1.4-13.7c1.1-0.3,2.2-0.6,3.3-0.9c9.6,8.1,19.2,16.1,30.8,25.9c-6.2,2.7-10.1,5-14.4,5.9
			c-1.1,0.3-3.2-3.6-3.4-6.3c2,0.8,4,1.7,5.9,2.5c0.3-1.8,1.4-4.6,0.8-5.1c-1.8-1.3-4.9-2.9-6.5-2.1c-2.1,0.9-4.7,3.9-4.7,6
			c0.1,3,1.8,6.3,3.8,8.7c1.5,1.7,4.5,2.1,5.4,4.3c2.9,3.7,5.3,8,8.9,10.8c1.4,1.1,5.8-0.5,8.2-2c1.2-0.7,1.4-4.2,0.9-6
			c-0.4-1.3-2.8-2.3-4.5-2.7c-0.6-0.2-1.8,1.7-2.7,2.6c1.2,1.1,2.4,2.2,3.6,3.3c-0.2,0.5-0.3,1-0.5,1.5c-2-0.9-5.1-1.3-5.7-2.7
			c-2.7-6.7,2.3-9.6,8.6-13.4c5.5,9.4,11.1,18.8,17.5,29.7c1.3,0.7,2.6,1.4,4,2.1c-20.5-50.4-70-86.2-127.3-85.9
			c-76.8,0.4-137.9,61.6-137.6,138l0,0c1.5,0.7,3,1.5,4.5,2.4c0.2-0.2,0.4-0.4,0.6-0.6c4.2,1.8,8.6,3.3,12.4,5.7
			c0.6,0.4-0.5,3.3-2.3,5.3c0.7,0.6,1.4,1,2.2,1.3c0.7,0.3,1.4,0.6,2.1,1.1c1.7-2.4,2.7-5.7,3-8.6c0.2-2.1-2.2-4.4-1.9-6.5
			c0.3-4.9,1.2-9.9,0.6-14.7c-0.2-1.6-4.3-3.5-6.8-3.8c-1.6-0.2-4.2,1.7-5.2,3.3c-0.8,1.3-0.3,3.9,0.6,5.3c0.5,0.8,3,0.3,4.5,0.4
			c-0.2-1.8-0.4-3.5-0.5-5.3c0.5-0.3,1.1-0.5,1.6-0.8c0.8,2.3,2.7,6.4,2.2,6.7c-3.8,2.5-8.1,4.2-12.3,6.2c-1-0.8-1.9-1.6-2.9-2.4
			c2.1-12.3,4.2-24.6,6.3-37c7.4,0.1,12.3,2,13.4,8.2c0.3,1.6-2.9,3.8-5.9,4.4c0.9-1.6,1.8-3.3,2.7-4.9c-1.8-0.2-4.4-1.3-5.1-0.5
			c-1.3,1.3-2.5,4.7-1.7,5.6c1.5,1.9,4.9,4.4,6.5,3.9c3-1,7.8-4.3,7.6-6.3c-0.5-6.7,2-11.2,6-16.1
			C135.7,196.7,134.7,192,133.4,189.2z"/>
		<path class="st0" d="M186.7,98.3c6.1-1.7,13-0.4,19.5-0.4c-11.6-13.8-23.5-28.1-36.3-43.3c0,22.2,0,42.6,0,63.4
			c8.4-3.6,16.2-6.9,23.9-10.2c0-1,0-2,0-3c-7.2,1.6-14.3,3.2-21.5,4.8C176.4,104.6,181.1,99.8,186.7,98.3z"/>
		<path class="st0" d="M335.6,136.8c0.8-0.8,1.5-1.6,2.3-2.4c-4.5-4.7-8.9-9.4-13.4-14.2c0.1-0.8,0.3-1.6,0.4-2.4
			c5.5,2.8,12,4.6,16.1,8.8c4.3,4.5,6.3,11.2,9.6,17.4c6.3-17.2,12.6-34.8,19.8-54.4c-19.6,11.4-37.2,21.6-55.4,32.1
			C322.4,127.2,329,132,335.6,136.8z"/>
		<path class="st0" d="M160.1,119.5c-17.8-10.2-33.7-19.4-51.7-29.8c7.8,21.4,14.7,40.3,21.8,60.1c7-6.6,13.3-12.5,19.6-18.5
			c-0.6-0.8-1.2-1.6-1.8-2.4c-5.9,3.9-11.9,7.8-17.6,11.5C131.5,127.3,139.9,120.9,160.1,119.5z"/>
		<path class="st0" d="M293.6,98.6c5.7,3.6,10.3,8.8,14.7,12.6c0-17.5,0-36.3,0-56.2c-13.9,16.6-26.9,32.2-40.3,48.3
			c9.2,2.7,17.3,5.1,25.4,7.6c0.4-1,0.8-1.9,1.3-2.9c-6.4-3-12.7-6.1-19.4-9.3C281.1,94.9,287.8,94.9,293.6,98.6z"/>
		<path class="st0" d="M352.8,155c5.4,8.1,10.1,15.1,14.7,22.1c0.9-0.5,1.8-0.9,2.8-1.4c-2.8-6.4-5.6-12.7-8.6-19.7
			c6.9,1.1,11.9,5.6,13.9,12.3c2,6.3,2.2,13.1,3.2,19.7c11.6-13.9,23.5-28.1,36.9-44.1C393.4,147.9,373.5,151.4,352.8,155z"/>
		<path class="st0" d="M259.1,96.4c-6.6-18.2-12.8-35.1-19.8-54.4c-7.7,21.3-14.6,40.3-21.4,59.1c9.4,0,17.6,0,26.9,0
			c-6.5-6.1-6.5-6.1-21.8-5.2C231,86.1,239.3,86,259.1,96.4z"/>
		<path class="st0" d="M116.2,168.5c-10,2-11.5,10-15,17.8c-3.3-8.8-1.5-15.5,3.5-20.7c4.6-4.7,10.5-7.9,15.6-11.7
			c-17.7-3.1-36-6.2-54.2-9.4c-0.4,0.6-0.7,1.2-1.1,1.8c12.8,15.3,25.5,30.6,38.8,46.5C108.2,184.4,112,176.9,116.2,168.5z"/>
		<path class="st0" d="M97.9,200c-19.6,3.5-38.4,6.9-59.6,10.7c17.9,9.9,33.4,18.4,49,27c2.1,1.5,4.3,3,6.7,4.8
			c1.2-9.6,2.2-18.2,3.3-26.7c-0.9-0.3-1.7-0.6-2.6-0.8c-1.7,5.2-3.5,10.5-5.2,15.7c-0.7,2.1-1.1,4.3-1.7,6.5
			C81,221.6,83.1,213.5,97.9,200z"/>
		<path class="st0" d="M239.6,139.4c0.1,0,0.2,0,0.3,0c36.3,0.1,69.6,18.3,89,48.8l0.3,0.2c2,1.2,4,2.5,5.8,3.9l1.3,0.9l-0.1-1.7
			l-0.1-0.3c-19.9-35.1-56.9-56.8-96.6-56.8h-0.1c-61.2,0.1-111.1,50-111.2,111.2c0,19.7,5.2,39,15.1,56l0.2,0.4h0.5
			c1.1-0.1,2.2-0.1,3.3-0.1h1.3l-0.7-1.1c-10-16.6-15.3-35.7-15.2-55.2c0-28.5,11.1-55.2,31.2-75.2
			C184.1,150.4,210.9,139.4,239.6,139.4z"/>
		<path class="st0" d="M237,210.1c1.9-24.5-17.5-33.1-27.6-45c6.5-3.5,12.7-7,19-10.2c1.3-0.6,4.2-0.8,4.4-0.4
			c0.8,1.9,1.7,4.5,1,6.1c-1.5,3.2-4.1,6-6.5,9.2c3.1,3.6,7.5,9,12.3,14.6c4.7-5.8,9-11.1,13.3-16.4c-2.3-1.8-5.3-3.1-6.4-5.4
			c-1.1-2.3-0.4-5.5-0.4-8.3c2.1,0.8,4.1,1.6,6.2,2.4c4.5,1.8,8.9,3.8,13.5,5.5c1.5,0.6,3.3,0.5,5.8,0.8
			c-33.8,31.7-31.5,34.1-27.5,44.4c12-20.2,26.7-37.5,52.5-43.8c-7.1-4.2-12.1-7.3-17.4-10c-1.8-0.9-4.4-1.5-6.2-1
			c-13.3,3.9-13.3,4-19.6-8.4c-7.3,0-15.2-0.4-23.1,0.2c-2.5,0.2-5.7,2.8-6.9,5.2c-3.1,6.1-8,8-13.2,4.8c-5.5-3.5-9.5-1.5-13.9,1.1
			c-3.9,2.3-7.7,4.8-13.5,8.4C209.2,170.1,223.1,188.9,237,210.1z"/>
		<path class="st0" d="M328.7,314.7c0.1-1.3,2-2.2,3.1-3.4c5.1-6,10.9-11.1,15.2-18.2c9.8-16,12-34.5,6.2-54.1
			c-12.2-41.3-53.9-55.3-77.9-26.5c-7.8,9.4-11.7,23.1-10.3,37.2c2.2-19.8,10.6-30.7,22.9-35.8c11.1-4.6,22.3-6.1,32.9,1.4
			c11.2,7.9,17.6,21.5,18.8,40.2c1,16.1-3.1,29.3-12.4,38.6c-15.5,15.5-32.8,24.9-50.4,32.6c-16.6,7.2-33.2,13.7-49.8,19.3
			c0,3,0,5.7,0,8.3c0,1-0.1,1.9-0.3,2.8c20.5-5.7,40.9-12.4,61.3-19.6c11-3.9,21.9-8.4,32.7-13.2C323.9,322.9,328.1,322,328.7,314.7
			z"/>
		<path class="st0" d="M449.5,285c-8.4,12.7-19.1,17.9-31,20c2.2,8.1,2.2,8.1-7.4,14.4c12.7,2.4,25.1,5.1,37.6,6.9
			c2.3,0.3,5.9-2.1,7-4.9c0.9-2.2-1.1-7-1.8-10.4c5.3,1.3,10.7,3,16,5.1c1.7-6,3.1-12.2,4.4-18.4c-6-4.6-12-9.2-18-14
			C453.7,281.7,451.9,281.3,449.5,285z"/>
		<path class="st0" d="M379.3,219.6c-11.6-6.8-23.2-13.2-34.9-19.7c-0.3,0.8-0.5,1.7-0.8,2.5c8.1,5.6,14.7,13.7,19,25.4
			c8.3,22.6,5,49.4-9.2,68.4c-4.7,6.3-10.5,10.6-15.9,15.5c-1.6,1.5-3.3,1.7-3.2,5.9c0,2.2-2.6,4.6-4.3,7.4c9.7-2,19-4.4,27.7-11.3
			c0.7-0.6,1.9-1.4,2-2.2c0.4-8.2,5.5-9,8.7-12.4c17.4-17.8,23.2-48.2,13.8-74C381.5,223.1,380.6,220.4,379.3,219.6z"/>
		<path class="st0" d="M437.1,371.6c1.8,2.7,3.8,4.6,5.9,5.7c7.4-12,13.8-24.7,19.1-37.9c-12.8-3.4-25.5-6.7-38.6-10.1
			C426.5,346.3,429.8,360.5,437.1,371.6z"/>
		<path class="st0" d="M366.9,305.5c0,13.4-8.2,10.1-12,15.2c7.7-1,15.3-1.7,22.8-3.2c6-1.1,7.3-4.2,5.9-12.6
			c2.7-1.5,5.6-2.9,8.3-4.7c12.3-8.5,20.7-21.9,22.7-42.8c0.6-6.2-0.1-10.9-4.2-14c-5.3-4-10.3-9-16.7-14.7
			c4.3,17.7,3.5,33-2.4,47.7C385.6,291.1,377.1,300.3,366.9,305.5z"/>
		<path class="st0" d="M442.6,273c-6.3-5.8-12.3-11.3-18.9-17.4c-1.2,27-13.1,39-27.6,48.3c2.3,7.8-1.2,10.9-5.1,14.5
			c4.8-0.4,9.6-0.1,14.2-1.4c5.6-1.5,6.4-4,5.5-12.9C423.3,299.5,434.7,291.5,442.6,273z"/>
		<path class="st0" d="M380.3,328.2c2.2,11.2,5.1,21.8,11.8,28.9c4.2,4.5,8.6,3.5,12.3-1.2c5.8-7.4,11.1-15.7,16.7-23.5
			c-0.2-0.9-0.4-1.8-0.6-2.7C407.2,329.2,394,328.7,380.3,328.2z"/>
		<path class="st0" d="M299.4,370.7c11.9,1.5,46-4.7,77.5,2.2c18.9,4.1,37.5,9.7,54.8,21.1c1.6-2.1,3.1-4.3,4.6-6.5
			C403.4,370.3,366.7,357.5,299.4,370.7z"/>
		<path class="st0" d="M358.7,355c10.4-1.9,14.3-14.6,19.4-28.5c-13.9,1.6-26.7,3.1-40.2,4.7C342.8,347.5,350.7,356.5,358.7,355z"/>
		<path class="st0" d="M320.9,357.4c8.9-1.8,11.7-13.5,15.9-25.8c-12.6,3.2-24,6-36.5,9.2C306.4,350.9,312.1,359.2,320.9,357.4z"/>
		<path class="st0" d="M297,342.1c-12,4.1-23.6,8-35.7,12.2C278.7,373.2,293.1,368.9,297,342.1z"/>
		<path class="st0" d="M244.3,380.8c8.3-2,9.4-13.9,12.6-24.8c-10.8,3.6-20.3,6.9-30.7,10.4C231.5,374.8,236.6,382.7,244.3,380.8z"
			/>
		<path class="st0" d="M432.7,374.5c-4.2-8.7-8.8-18.2-12.9-26.7c-4.7,4.8-10.3,10.5-15.7,16C413.5,367.2,423.6,371,432.7,374.5z"/>
		<path class="st0" d="M378.5,341.5c-3.4,5.3-7.2,11.2-10.1,15.7c5.2,0.7,12.8,1.7,20.4,2.7C385.1,353.3,381.4,346.8,378.5,341.5z"
			/>
		<path class="st0" d="M337.1,344.5c-2.9,4.3-5.9,8.8-9.3,13.9c7-0.4,13.7-0.9,20.8-1.3C344.5,352.5,340.8,348.5,337.1,344.5z"/>
		<path class="st0" d="M299.7,350c-2.1,3.9-4.5,8.3-7.6,14.1c7-1.4,13-2.5,19.6-3.8C307.4,356.5,303.8,353.4,299.7,350z"/>
		<path class="st0" d="M253.9,376.3c6.6-2.4,12.3-4.5,19-6.9c-4.8-2.8-8.8-5.1-13.1-7.6C258,366.4,256.2,370.6,253.9,376.3z"/>
		<path class="st0" d="M332.6,421.2c0,0.1,0,0.2,0,0.3c0.3,3.9,1.3,7.3,3,10.6c0.8,1.5,2.2,2.9,3.8,4.5c0.7,0.7,1.5,1.5,2.2,2.3
			c0.3,0.3,1.1,0.9,1.6,1.3c1.9,1.5,3.3,2.5,4.2,3.5c10.1,1.1,20.3,2.1,30.4,3.2c2.6-1.8,5.1-3.7,7.6-5.7
			c-18.1-12.5-36.6-21.4-55.5-26.8C331.4,416.7,332.3,418.9,332.6,421.2z"/>
		<path class="st0" d="M393.3,427.2c1,2,2.1,3.5,3.4,4.7c11.1-9.7,21.4-20.5,30.5-32.1c-14.2-5.4-28.2-10.6-42.8-16.1
			C385.6,400.9,387.4,415.3,393.3,427.2z"/>
		<path class="st0" d="M362.6,408.1c6.6-6.8,12.8-14.4,19.2-21.7c-0.1-0.9-0.2-1.8-0.3-2.7c-13.1-1.8-26.2-3.7-39.8-5.6
			c0.9,11.4,2.7,22.2,8.5,30C353.9,413,358.4,412.5,362.6,408.1z"/>
		<path class="st0" d="M305.9,395.5c1.3,0.3,2.6,0.7,4,1.2c1.8,0.6,5.5,3,8.9,5.7c9.5-1.9,14.6-13.5,20.9-26.1
			c-14,0.2-26.9,0.4-40.5,0.5C300.6,384.7,303,391.1,305.9,395.5z"/>
		<path class="st0" d="M271.2,398.7c0.8-0.2,1.6-0.5,2.4-0.7c4.9-1.4,10-2.7,15.3-3.3c3.3-4.6,5.9-11,9-17.5
			c-12.9,1.9-24.5,3.5-37.3,5.4C263.9,389.4,267,395.4,271.2,398.7z"/>
		<path class="st0" d="M257.3,383.5c-9,2.1-17.9,4.1-26.8,6.1c1.9,4.5,3.1,9.4,3.5,14.5C243.9,408.6,252.5,401.7,257.3,383.5z"/>
		<path class="st0" d="M361.4,415.9c8.9,4.5,18.5,9.3,27.2,13.6c-3.2-9.1-6.7-19-9.8-27.9C373.6,405.9,367.4,411,361.4,415.9z"/>
		<path class="st0" d="M326.6,405.8c5.1,1.2,12.6,3,20,4.8c-3-7-5.9-13.8-8.2-19.3C334.4,396.2,330,401.6,326.6,405.8z"/>
		<path class="st0" d="M300.3,394.5c-1.1-1.6-2.3-3.1-3.4-4.6c-1.2,1.4-2.4,2.9-3.7,4.4c1.2-0.1,2.5-0.1,3.8,0
			C298.2,394.3,299.3,394.4,300.3,394.5z"/>
		<path class="st0" d="M267.1,399.9c-2.7-2.9-5.2-5.5-7.9-8.3c-2.5,3.7-5.4,7.8-9.1,13.2c1.2-0.1,2.4-0.2,3.5-0.3
			C258,402.8,262.5,401.3,267.1,399.9z"/>
		<path class="st0" d="M198.2,459.4c3.1-2.3,6.3-4.6,7.8-7.5c3-5.7,2.7-10.7-0.7-14.9c-3.8-4.7-8.6-6.8-14.3-6
			c-2.2,0.3-4.4,0.7-6.5,1.3c-10.8,3.1-20,10.4-28.8,22.9c-0.8,1.1-1,3.2-1.2,5.3c-0.1,1.1-0.2,2.3-0.5,3.5
			c-0.2,0.8-0.3,1.6-0.4,2.5c-0.1,0.7-0.2,1.4-0.3,2.1c4.3,1.7,8.7,3.2,13.1,4.6c-1.7-2.5-2.9-5.3-3.4-8.3c-1.2-6.7,1.1-13.3,6.2-18
			c4.6-4.3,10.9-6.5,15.9-7.9c0.6-0.2,1.2-0.3,1.8-0.5c4-1.1,9.1,2.7,11.4,5.4c1.8,2.1,0.4,4.7-1.3,8.1c-0.4,0.8-0.8,1.6-1.1,2.3
			c-0.5,1.1-1.1,2.2-1.7,3.3c-0.5,0.8-1.2,2.1-1.5,2.9c0.7,0.8,1.4,1,2.6,0.6c0.8-0.2,1.7-0.7,2.5-1.3L198.2,459.4z"/>
		<path class="st0" d="M337.7,450.7L337.7,450.7c-0.7-0.9-2.1-2.1-3.5-3.3c-0.7-0.6-1.8-1.5-2-1.8c-0.6-0.8-1.3-1.6-2-2.4
			c-1.6-1.8-3.2-3.6-4.1-5.8c-1.8-3.9-2.7-7.9-2.8-12.4v-0.1v-0.1c-0.7-9.6-15.8-20.5-17.6-21.3c-4.5-1.9-9.2-2.8-14.3-2.8
			c-6,0-12,1.2-17.6,2.5c-9.2,2.1-18,4.6-26.2,7.5c-2.8,1-5.3,3-7.9,5.2c-0.6,0.5-1.2,1-1.8,1.5c-0.9,0.7-1.8,1.2-2.7,1.5
			c-0.5,0.1-1,0.2-1.4,0.2c-2.3,0-3.6-1.7-4.3-3.2c-3.8-7.6-7.3-15.5-10.8-23.2l-0.1-0.1l-2.4-5.4l-0.2-0.5l-0.4-0.3
			c0,0-0.1-0.3-0.2-0.5c-0.2-0.4-0.4-1-0.8-1.6c-0.4-1.3-0.7-2.4-0.9-3.5l-0.2-1.1l-1.1-0.4c-0.3-0.1-0.5-0.3-0.6-0.6
			c-0.3-1-0.6-1.9-0.9-2.9c-0.8-2.3-1.5-4.5-1.6-6.9c-0.1-4.2,0.7-8.3,2.3-12.4l0.1-0.2v-0.2c2.3-12.4-6.4-24.2-8-25.8
			c-8.2-8.1-18.2-10.1-29.5-11.8c-9.3-1.4-18.5-2.2-27.3-2.5c-0.1,0-0.3,0-0.4,0c-2.9,0-5.8,0.9-8.9,1.9c-0.8,0.2-1.5,0.5-2.3,0.7
			c-0.9,0.3-1.8,0.4-2.6,0.4c-0.2,0-0.4,0-0.6,0c-3.4-0.3-4-3.1-4.1-4.7c-0.5-8.4-0.7-17-0.9-25.3v-0.1l-0.1-5.8v-0.5l-0.3-0.4
			c-0.9-1.5-1.6-2.9-2.2-4.4l-0.3-0.7l-0.6-0.3c-2.4-1.3-4.5-3.1-6.3-5.4c0,0,0-0.1-0.1-0.1l-2.6-4.3l-0.2-0.4l-0.3-0.2
			c-11-8-23.6-12.3-40.9-13.8c-8.2-0.7-16.5-0.8-25.3-0.9c-2.4,0-4.7,0-7.1-0.1c-0.1,0-0.2,0-0.3-0.1l-0.6-0.2l-0.6,0.2
			c-0.7,0.2-1.3,0.4-2,0.5c-2.9,0.7-23.6,3.8-32.6,4.8L2.9,257v1.8c0.4,23.2,4.3,46,11.6,67.9l-0.8-1l3.9,9.7l5.3,14.7l-0.4-3
			c0.4,1,0.9,2,1.3,2.9l0.7,1.6l1.7-0.5c1.2-0.4,2.5-0.6,3.7-0.6c0.3,0,0.7,0,1,0c4.2,0.4,8.2,3,11.5,7.6c6,8.3,8.4,20.8,5.6,30.4
			c0,0,0,0.1-0.1,0.1l-0.6,1.1l0.8,1c9.9,13.3,21.3,25.6,33.8,36.6l0.3,0.2l0.3,0.1c0.1,0,0.2,0.1,0.4,0.1
			c8,7.7,26.6,21.5,36.9,26.5c1.1,0.7,2.3,1.3,3.4,2c1.1,0.6,2.2,1.2,3.2,1.8l5.2,2.8l-2.4-5.4c-0.6-1.4-1.1-2.6-1.4-3.8l-0.1-0.2
			l-0.1-0.2c-1.1-2.1-1.8-4.6-2.2-7.2l-0.1-0.5l-0.3-0.4c-0.1-0.1-0.1-0.2-0.1-0.3c-0.4-1.9-0.9-3.9-1.3-5.8
			c-0.1-0.4-0.2-0.8-0.3-1.2c0.2,0,0.5,0,0.7,0c2.7,0,5.5-0.1,8.5-0.3c-0.7,7.6,3.3,19.7,7.8,26.7l2.9,4.6l0.7-5.4v-0.1
			c0.3-2.1,0.6-4.2,0.8-6.2c0.6-4.9,1.1-10,2.8-14.6c0.7-2,1.8-4.8,3.5-7.4c18.5-3.5,36.5-9.7,48.1-16.6l2.6-1.5l-2.4-1.8
			c-0.6-0.4-1-0.5-3.6-0.8c-6.2-0.7-22.6-2.6-33.7-9.9c-5.3-3.5-10.8-7.7-16.4-12.7c-2.1-1.9-4.3-3.8-6.4-5.6l-0.1-0.1l-4.2-3.5
			l0.9,5.3c2,11.5,9.9,28.4,18,34.4c0.2,0.2,0.4,0.4,0.4,0.7c0,0.2-0.1,0.5-0.4,0.6c-2.9,2-6.4,3.2-9.8,3.2c-0.4,0-0.8,0-1.2-0.1
			c-2.6-0.2-4.8-1.2-6.5-2.8c-12.7-12.8-26.1-28.5-22.8-52.1c1.5-11.1,7.1-21,17.1-30.4c8.5-7.9,19.5-12.2,30.9-12.2
			c1.3,0,2.7,0.1,4,0.2c9.2,0.8,17.8,4.4,25,10.3c8.2,6.8,10.9,24,5.1,33.3c-2.9,4.7-9.2,7.9-15.5,7.9c-0.5,0-1.1,0-1.6-0.1
			c-2.2-0.2-4.2-0.8-6-1.8c-4.8-2.8-9.4-6.9-12.9-11.5c-1.3-1.8-1.2-4.5-1-7.3c0.1-1.2,0.1-2.4,0.1-3.4c0-0.4,0.4-0.8,0.9-0.9
			c0.8,0,1.7-0.1,2.5-0.2c1.7-0.1,3.4-0.2,5-0.2c0.4,0,0.8,0,1.2,0h0.2c0.8,0.1,1.6,0.5,2.2,0.8c0.3,0.2,0.7,0.4,0.9,0.4l0.3,0.1
			h0.3c0.2,0,0.4,0,0.6,0c0.6,0,1.2,0,1.7-0.1l1.3-0.2l0.3-1.3c0.3-1.1,0.3-2.8-0.2-4c-1.9-4.6-7.9-8.2-14.6-8.8
			c-0.6-0.1-1.2-0.1-1.8-0.1c-2.8,0-5.3,0.6-7.3,1.7c-3.1,1.8-5.5,4.9-6.5,8.8c-1.3,4.8-0.6,10.2,2,14.6c7.6,12.9,19.5,21,37.5,25.5
			c0.2,0.1,0.5,0.1,0.7,0.1c0.2,0,0.3,0,0.5,0c1.5,0,3.2-0.5,4.9-1.1c1.2-0.4,2.4-0.7,3.5-1c2-0.4,3.9-0.7,5.9-1.1l2.7-0.5
			c0.1,0,0.1,0,0.2,0c0.4,0,0.8,0.2,0.9,0.6l1.3,3.2c0.1,0.3,0,0.7-0.3,0.9c-0.2,0.2-0.5,0.4-0.7,0.6l-0.2,0.2l-1.9,1.5l1.9,1.5
			c0.5,0.4,1,0.7,1.4,0.9l0.2,0.1c2.9,2.7,5.6,5.9,7.8,9.6c15.3,25.9,14,44.4-4.8,65.9c-2.5,2.9-5.2,5.1-8,6.7l-5,2.8l5.7,0.9
			c4.6,0.7,9.3,1.3,13.8,1.8l0.7,0.1l0.6-0.4c2.2-1.4,4.1-3,5.8-4.9c0.2-0.2,0.4-0.3,0.6-0.4c0.2,0,0.4-0.1,0.6-0.1
			c1.5,0,3.6,0.9,4.5,1.4c1.3,0.7,2,1.3,2.2,2c0.2,0.6,0.4,1.3,0.6,1.9l0.4,1.4h1.4c2,0,4,0.1,6,0.1c0.2,0,0.4,0,0.6,0h0.5h3.3
			l-1.6-2.9c-1.8-3.3-3.2-6.8-4.2-10.6c-3-10.8-1.7-22.1,3.8-34.3c5.2-11.6,15.3-20.2,27.5-23.8c4.1-1.2,8.3-1.8,12.6-1.8
			c4.9,0,9.8,0.8,14.6,2.3c10.3,3.4,19.6,18.3,18,29.1c-0.9,5.9-6.2,11.5-12.6,13.4c-1.4,0.4-2.8,0.6-4.2,0.6c-0.7,0-1.4-0.1-2-0.2
			c-5.5-0.8-11.4-3-16.5-6c-2-1.2-2.9-3.7-3.9-6.5c-0.4-1.2-0.8-2.2-1.3-3.2c-0.1-0.2-0.1-0.4,0-0.6s0.2-0.4,0.5-0.5
			c0.8-0.3,1.5-0.7,2.2-1.1c1.8-0.9,3.7-1.8,5.7-2.5h0.2c0.3-0.1,0.7-0.1,1.1-0.1c0.5,0,0.9,0.1,1.3,0.1c0.3,0,0.8,0.1,1,0.1h0.4
			l0.3-0.1c0.8-0.3,1.6-0.6,2.2-1l1.2-0.7l-0.2-1.4c-0.2-1.1-0.8-2.7-1.8-3.6c-2.4-2.4-6.4-3.7-10.9-3.7c-2,0-4,0.3-6,0.8l0,0l0,0
			l0,0h-0.1c-3.3,1-6,2.7-7.7,4.8c-2.2,2.7-3.1,6.4-2.6,10.3c0.6,5,3.5,9.9,7.6,13.1c9.6,7.3,20.6,10.8,33.8,10.8
			c3.5,0,7.1-0.2,11-0.7c0.2,0,0.5-0.1,0.7-0.1c1.6-0.5,3.1-1.7,4.6-3c0.9-0.8,1.9-1.5,2.9-2.2c1.7-1.1,3.4-2.1,5-3.1l2.2-1.4
			c0.2-0.1,0.4-0.2,0.6-0.2c0.3,0,0.6,0.1,0.8,0.3l2.5,2.5c0.3,0.3,0.3,0.6,0.1,0.9c-0.9,1.6-1.7,3.2-2.3,4.5l-2.2,4.7l4.8-2
			c1.9-0.8,4-1.7,6-2.6l0.9-0.4l0.2-0.9C341.7,456.4,337.9,451,337.7,450.7L337.7,450.7z M60.9,377.3c1.4-1.6,4.1-3.3,6.5-3.3
			c0.1,0,0.2,0,0.3,0l2.5,0.2c3.5,0.3,6.8,0.5,10.1,0.5c6.5,0,11.7-1,16.4-3.2c0.2-0.1,0.4-0.1,0.6-0.1c0.1,0,0.1,0,0.2,0
			c1.3,0.1,3.3,1.9,4.2,3.1c0.9,1.1,1.3,1.9,1.2,2.6c-1.7,12.9,0.9,25.1,8.1,37.3c0.8,1.4,1,4.4,0,5.4c-1,1.1-2.5,1.5-3.7,1.9h-0.1
			c-0.4,0.1-0.7,0.2-1.1,0.4c-0.1,0.1-0.3,0.1-0.4,0.1h-0.1c-0.1,0-0.2,0-0.3-0.1c-14.8-5.4-31.7-12.4-44-26.6
			C58.4,392.1,58.2,380.5,60.9,377.3z M76,293c0.7,0,1.4,0,2.1,0c0.5,0,1.1,0,1.6,0c0.9,0,1.8,0,2.7,0l8.6-0.2l-7.8-3.6l-3.6-1.7
			c-7.9-3.7-16-7.4-24.1-10.5l-0.1-0.1h-0.1c0,0-0.1,0-0.4-0.1c-0.1,0-0.2,0-0.4,0c-2,0-5.2,1.5-7.4,3.3
			c-5.2,4.5-10.1,9.5-14.9,14.3c-2,2-3.9,3.9-5.9,5.9c-0.6,0.6-1.3,1.2-1.9,1.8l-0.9,0.9c-0.2,0.2-0.4,0.3-0.7,0.3
			c-0.1,0-0.2,0-0.4-0.1l-1.7-0.6c-0.4-0.1-0.7-0.5-0.6-0.9c0.4-2,0.7-3.9,1.1-5.9c1-5.5,2.1-11.2,3.4-16.7c0.4-1.8,2.8-3.1,4.9-4.2
			c14.7-7.5,27.1-11.3,39.1-12c0.5,0,1,0,1.6,0c4.8,0,10.1,1.2,15.9,3.6c13.9,5.7,28.5,14.3,31.1,34.3c3.9,29.5-4.6,46.1-30.5,59.2
			c-4.7,2.4-9.2,3.6-13.5,3.6c-0.7,0-1.3,0-2-0.1c-6-0.5-11.6-3.5-16.8-8.9c-5-5.2-7-12.1-5.5-18.6c1.4-6,5.7-10.7,11.7-13
			c3.1-1.2,6.7-1.7,11-1.7c1.8,0,3.7,0.1,6,0.3c0.6,0.1,1.2,0.1,1.8,0.2c3,0.3,5.8,4.8,6.8,7.7c0.4,1.2-1.2,2.7-3.8,4.9
			c-0.8,0.7-1.5,1.3-2,1.8c-0.8,0.8-1.8,1.5-2.7,2.3c-1.1,0.9-2.2,1.7-2.8,2.3l-0.8,0.8l0.3,1.1c0.5,1.8,1.8,2.8,3.9,3
			c0.2,0,0.5,0,0.7,0c0.9,0,1.8-0.1,2.8-0.4l0.5-0.1c4-1,8.1-2.1,11-4.5c7.1-5.9,7.1-12,5.9-16.1c-1.8-6.4-6.1-10.6-12.3-12.1
			c-2.3-0.6-4.6-1-6.9-1.2c-1.3-0.1-2.7-0.2-4-0.2c-10.4,0-20.9,3.6-33,11.2c-1.6,1-2.8,3.1-3.9,5.2c-0.5,1-1.1,2-1.7,2.9
			c-0.5,0.7-0.9,1.4-1.4,2.2l-0.1,0.1c-1.1,1.8-2,3.5-3.6,4.8c-1.7,1.4-3.4,2.1-5.2,2.1c-0.2,0-0.4,0-0.5,0
			c-1.7-0.2-3.3-1.1-4.5-2.6l-1.7-2.2l-0.6-4c-0.8-5.8,0.9-10.9,5.4-15.9C38.4,300.2,55,293,76,293z"/>
	</g>
	<g>
		<path class="st0" d="M580.2,150.4c0,0,0-0.1,0-0.1c0,0,0-0.1,0-0.1c0-0.6,0.3-0.9,0.9-0.9c0.3,0,0.6,0.2,1,0.5
			c1.8,1.7,3.8,3.1,6,4.1s4.6,1.5,7.2,1.5c0.7,0,1.5-0.1,2.4-0.2c0.9-0.2,1.8-0.4,2.6-0.8c0.8-0.4,1.5-0.8,2-1.4
			c0.6-0.6,0.8-1.3,0.8-2.2c0-1-0.2-1.8-0.7-2.6c-0.5-0.8-1.1-1.4-1.9-2c-0.3-0.2-0.8-0.5-1.4-1c-0.6-0.5-1.3-1-2.1-1.6
			c-0.8-0.6-1.6-1.2-2.4-1.9c-0.8-0.7-1.6-1.3-2.4-2c-0.8-0.6-1.4-1.2-2-1.7s-1.1-0.9-1.4-1.2c-2-1.5-3.5-3-4.7-4.5
			c-1.2-1.5-2-3.1-2.6-4.7c-0.6-1.6-1-3.3-1.2-5.1c-0.2-1.8-0.3-3.6-0.3-5.6c0-3,0.7-5.8,2.1-8.4c1.4-2.6,3.4-5,6-6.9
			c2.6-2,5.6-3.5,9.2-4.7c3.6-1.2,7.6-1.7,12-1.7c0.5,0,1.3,0.1,2.4,0.2c1.1,0.1,2.3,0.3,3.5,0.6c1.3,0.3,2.6,0.6,3.9,1.1
			c1.3,0.5,2.6,1.1,3.7,1.8c0.4,0.3,0.7,0.5,0.9,0.8c0.2,0.3,0.4,0.7,0.4,1.3c0.2,2.7,0.3,5.4,0.4,8c0.1,2.6,0.2,5.4,0.4,8.4
			c0,0.6-0.1,0.9-0.4,1.1c-0.2,0.2-0.5,0.3-0.9,0.3c-0.4,0-0.7-0.1-0.9-0.3c-1-1-2-1.9-3-2.9c-1-0.9-2.1-1.8-3.3-2.5
			c-1.1-0.7-2.4-1.3-3.6-1.7c-1.3-0.4-2.7-0.7-4.2-0.7c-0.9,0-1.8,0.1-2.7,0.2c-0.9,0.2-1.7,0.4-2.5,0.8c-0.7,0.4-1.3,1-1.8,1.7
			c-0.5,0.7-0.7,1.6-0.7,2.7c0,1.1,0.1,2.1,0.4,3c0.3,0.8,1,1.6,2.1,2.4l12.1,8.2c2.2,1.6,4,3.1,5.4,4.7c1.4,1.6,2.4,3.1,3.2,4.7
			c0.8,1.5,1.3,3.1,1.6,4.6c0.3,1.5,0.4,3,0.4,4.4c0,2.3-0.4,4.6-1.2,6.6c-0.8,2.1-1.8,4-3.2,5.8c-1.3,1.8-2.9,3.3-4.7,4.7
			c-1.8,1.4-3.7,2.6-5.8,3.6c-2,1-4.2,1.7-6.4,2.3c-2.2,0.5-4.4,0.8-6.5,0.8c-1.6,0-3.3,0-4.9-0.1c-1.6-0.1-3.1-0.2-4.7-0.4
			c-1.5-0.2-3-0.6-4.4-1c-1.4-0.5-2.7-1.1-4-1.9L580.2,150.4z"/>
		<path class="st0" d="M660,113c3.2,0,6.1,0.6,8.7,1.8c2.6,1.2,4.8,2.7,6.7,4.6c1.9,1.9,3.3,4,4.3,6.4c1,2.3,1.5,4.7,1.5,7
			c0,2.1-0.6,4.2-1.9,6.3c-1.3,2.1-3.1,4-5.4,5.7c-2.3,1.7-5.1,3-8.3,4.1c-3.2,1-6.8,1.6-10.6,1.6c-2,0-4.1-0.2-6.3-0.6
			c0.1,1.4,0.6,2.7,1.3,3.7c0.7,1,1.6,1.9,2.7,2.6c1.1,0.7,2.3,1.2,3.6,1.5c1.4,0.3,2.8,0.5,4.2,0.5c1.6,0,3.2-0.1,4.7-0.4
			c1.5-0.3,2.9-0.7,4.3-1.1c1.4-0.5,2.7-1,4-1.6c1.3-0.6,2.5-1.1,3.6-1.7c0.3-0.1,0.6-0.1,0.8-0.2c0.2,0,0.4-0.1,0.6-0.1
			c0,1.1,0,2.1,0,3.1c0,1,0,2.1,0,3.5c0,1.4,0,2.9-0.1,4.6c0.1,0.2,0.2,0.3,0.2,0.5c0,0.2,0.1,0.3,0.1,0.4c0,0.4-0.4,0.8-1.1,1.3
			c-0.7,0.5-1.7,1-2.9,1.5c-1.2,0.5-2.5,1-4.1,1.5s-3.1,0.9-4.7,1.3c-1.6,0.4-3.1,0.7-4.6,0.9c-1.5,0.2-2.8,0.3-3.9,0.3
			c-3.6,0-7.1-0.6-10.5-1.9c-3.4-1.3-6.4-3.1-9.1-5.4c-2.6-2.3-4.7-5.2-6.3-8.5c-1.6-3.4-2.4-7.1-2.4-11.3c0-4.4,0.8-8.5,2.3-12.3
			c1.5-3.8,3.6-7.2,6.4-10c2.7-2.8,6-5.1,9.8-6.7C651.3,113.8,655.5,113,660,113z M659.4,126.4c-1.4,0-2.6,0.3-3.8,0.9
			c-1.2,0.6-2.2,1.4-3.2,2.5c-1,1.1-1.8,2.4-2.5,3.9c-0.7,1.5-1.3,3.2-1.7,5.1c3.5-0.6,6.3-1.2,8.6-1.9c2.3-0.7,4.1-1.3,5.5-2
			c1.4-0.7,2.3-1.4,2.9-2.1c0.6-0.7,0.9-1.3,0.9-2c0-0.6-0.2-1.2-0.7-1.7c-0.5-0.5-1-1-1.7-1.4c-0.7-0.4-1.4-0.7-2.2-0.9
			C660.8,126.5,660.1,126.4,659.4,126.4z"/>
		<path class="st0" d="M735.8,159c0,0.1-0.1,0.3-0.1,0.4c0,0.1,0,0.2,0,0.3c0,0.8,0.1,1.5,0.4,2.1c0.3,0.6,0.6,1,0.9,1.4
			c0.3,0.4,0.6,0.6,0.9,0.9c0.3,0.2,0.4,0.4,0.4,0.6c0,0.5-0.5,0.9-1.5,1.3l-13.5,5.8c0,0-0.2,0.1-0.4,0.1c-0.3,0-0.5-0.2-0.8-0.7
			c-0.3-0.5-0.5-1.1-0.8-1.8c-0.3-0.7-0.5-1.5-0.7-2.3c-0.2-0.8-0.4-1.6-0.6-2.3c-2.1,2.4-4.4,4.2-6.8,5.4c-2.4,1.1-4.9,1.7-7.3,1.7
			c-2.8,0-5.6-0.6-8.2-1.9s-5.1-3-7.1-5.3c-2.1-2.3-3.7-5.1-5-8.3c-1.3-3.3-1.9-6.9-1.9-11c0-4.8,0.7-9.2,2.1-13.1
			c1.4-4,3.3-7.4,5.7-10.2c2.4-2.8,5.2-5.1,8.3-6.6c3.2-1.6,6.5-2.3,10.1-2.3c2.5,0,4.9,0.5,7.1,1.5c2.2,1,4.4,2.3,6.4,3.9
			c0.2-1,0.3-1.8,0.4-2.4c0-0.6,0.1-1.1,0.2-1.4c0.1-0.3,0.3-0.6,0.7-0.7c0.3-0.1,0.9-0.2,1.7-0.3c2.4-0.3,4.8-0.6,7.2-0.9
			c2.4-0.3,4.9-0.5,7.5-0.6L735.8,159z M720.7,140c0.3-1.9,0.6-3.7,0.7-5.4c0.1-1.7,0.2-3.2,0.3-4.7c-0.5-0.4-1.1-0.8-1.7-1.3
			c-0.6-0.4-1.3-0.8-2-1.2c-0.7-0.4-1.5-0.7-2.3-0.9c-0.8-0.2-1.6-0.4-2.5-0.4c-1.8,0-3.3,0.6-4.6,1.8c-1.2,1.2-2.2,2.6-3,4.3
			c-0.8,1.7-1.3,3.5-1.6,5.4c-0.3,1.9-0.5,3.6-0.5,5.1c0,5.3,0.7,9.2,2.1,11.6c1.4,2.5,3.3,3.7,5.8,3.7c1,0,2.1-0.3,3.4-0.9
			c1.2-0.6,2.5-1.4,3.8-2.4L720.7,140z"/>
		<path class="st0" d="M790.8,97c0,0.8-0.1,1.8-0.2,3c-0.1,1.2-0.2,2.4-0.3,3.8c-0.1,1.3-0.3,2.7-0.4,4c-0.2,1.4-0.3,2.6-0.4,3.7
			c-0.1,1.1-0.2,2.1-0.3,2.9c-0.1,0.8-0.1,1.3-0.1,1.6c-0.1,2.1-0.3,4-0.4,5.8c-0.2,1.8-0.3,3.5-0.5,5.3c-0.2,1.7-0.3,3.5-0.5,5.4
			c-0.2,1.9-0.4,3.9-0.6,6.2c-0.2,2.2-0.4,4.7-0.7,7.5c-0.3,2.7-0.5,5.9-0.8,9.5l20.8-2.1c0.9-0.1,1.7-0.2,2.3-0.2
			c0.7,0,1.2,0.1,1.4,0.4c0.2,0.2,0.3,0.6,0.3,1.1c0,0.1,0,0.2-0.1,0.3c0,0.1-0.1,0.3-0.2,0.7c-0.1,0.3-0.3,0.8-0.5,1.5
			c-0.2,0.6-0.5,1.5-0.9,2.7l-1.1,3.3c-0.4,1.1-0.7,2-1,2.9c-0.3,0.9-0.7,1.6-1.2,2.2c-0.5,0.6-1.1,1.1-1.8,1.5
			c-0.7,0.4-1.6,0.6-2.7,0.7c-0.7,0.1-1.7,0.1-2.9,0.2c-1.2,0-2.6,0.1-4.2,0.2c-1.6,0.1-3.3,0.1-5.1,0.2c-1.8,0.1-3.7,0.2-5.6,0.3
			c-1.9,0.1-3.8,0.1-5.7,0.1c-1.9,0-3.7,0-5.4,0.1c-1.7,0-3.3,0.1-4.7,0.1c-1.4,0-2.6,0.1-3.6,0.1c-0.9,0-1.5-0.1-1.9-0.2
			c-0.4-0.1-0.6-0.4-0.6-0.7c0-0.4,0.1-0.9,0.4-1.6c0.2-0.7,0.5-1.5,0.9-2.3c0.4-0.9,0.8-1.7,1.2-2.7c0.5-0.9,0.9-1.8,1.3-2.7
			l1.4-18c0.3-3.1,0.5-6.2,0.8-9.3c0.3-3.2,0.5-6.2,0.7-9.2l0.9-13.3c0.2-3.2,0.3-5.4,0.4-6.9c0.1-1.4,0.1-2.2,0.1-2.3
			c0.1-0.6,0.1-1.1,0.2-1.5s0.1-0.7,0.2-1c0.1-0.3,0.2-0.5,0.4-0.6c0.2-0.1,0.4-0.2,0.8-0.3l17.7-4.2c0.4-0.1,0.8-0.2,1.4-0.2
			c0.4,0,0.6,0.1,0.8,0.3c0.2,0.2,0.2,0.6,0.2,1.2c0,0.1,0,0.2,0,0.3C790.8,96.8,790.8,96.9,790.8,97z"/>
		<path class="st0" d="M841,113c3.2,0,6.1,0.6,8.7,1.8c2.6,1.2,4.8,2.7,6.7,4.6c1.9,1.9,3.3,4,4.3,6.4c1,2.3,1.5,4.7,1.5,7
			c0,2.1-0.6,4.2-1.9,6.3c-1.3,2.1-3.1,4-5.4,5.7c-2.3,1.7-5.1,3-8.3,4.1c-3.2,1-6.8,1.6-10.6,1.6c-2,0-4.1-0.2-6.3-0.6
			c0.1,1.4,0.6,2.7,1.3,3.7c0.7,1,1.6,1.9,2.7,2.6c1.1,0.7,2.3,1.2,3.6,1.5c1.4,0.3,2.8,0.5,4.2,0.5c1.6,0,3.2-0.1,4.7-0.4
			c1.5-0.3,2.9-0.7,4.3-1.1c1.4-0.5,2.7-1,4-1.6c1.3-0.6,2.5-1.1,3.6-1.7c0.3-0.1,0.6-0.1,0.8-0.2c0.2,0,0.4-0.1,0.6-0.1
			c0,1.1,0,2.1,0,3.1c0,1,0,2.1,0,3.5c0,1.4,0,2.9-0.1,4.6c0.1,0.2,0.2,0.3,0.2,0.5c0,0.2,0.1,0.3,0.1,0.4c0,0.4-0.4,0.8-1.1,1.3
			c-0.7,0.5-1.7,1-2.9,1.5c-1.2,0.5-2.5,1-4.1,1.5s-3.1,0.9-4.7,1.3c-1.6,0.4-3.1,0.7-4.6,0.9c-1.5,0.2-2.8,0.3-3.9,0.3
			c-3.6,0-7.1-0.6-10.5-1.9c-3.4-1.3-6.4-3.1-9.1-5.4c-2.6-2.3-4.7-5.2-6.3-8.5c-1.6-3.4-2.4-7.1-2.4-11.3c0-4.4,0.8-8.5,2.3-12.3
			c1.5-3.8,3.6-7.2,6.4-10c2.7-2.8,6-5.1,9.8-6.7C832.2,113.8,836.4,113,841,113z M840.4,126.4c-1.4,0-2.6,0.3-3.8,0.9
			c-1.2,0.6-2.2,1.4-3.2,2.5c-1,1.1-1.8,2.4-2.5,3.9c-0.7,1.5-1.3,3.2-1.7,5.1c3.5-0.6,6.3-1.2,8.6-1.9c2.3-0.7,4.1-1.3,5.5-2
			c1.4-0.7,2.3-1.4,2.9-2.1c0.6-0.7,0.9-1.3,0.9-2c0-0.6-0.2-1.2-0.7-1.7c-0.5-0.5-1-1-1.7-1.4c-0.7-0.4-1.4-0.7-2.2-0.9
			C841.7,126.5,841,126.4,840.4,126.4z"/>
		<path class="st0" d="M901.4,113.5c0.1-0.3,0.4-0.5,0.8-0.5c0.1,0,0.1,0,0.2,0c0.1,0,0.1,0,0.2,0c2.5,1,5.1,1.8,7.7,2.4
			c2.6,0.6,5.3,1.2,7.9,1.8c0.6,0.1,1,0.5,1,1.1c0,0.4-0.2,1.1-0.6,2l-20.7,44.1c-0.3,0.6-0.5,1.1-0.7,1.5c-0.2,0.4-0.4,0.7-0.6,0.9
			c-0.2,0.2-0.4,0.4-0.7,0.5c-0.2,0.1-0.5,0.2-0.9,0.3c-2.5,0.5-5.1,1.1-7.7,1.7c-2.6,0.7-5.3,1.5-8.1,2.4c-0.1,0-0.1,0-0.2,0
			c0,0-0.1,0-0.1,0h-0.4c-0.2,0-0.3-0.1-0.4-0.2c-0.1-0.1-0.2-0.2-0.2-0.3c-0.5-1.4-1.1-3.3-1.7-5.6c-0.7-2.3-1.4-4.8-2.1-7.6
			s-1.6-5.8-2.4-9c-0.8-3.2-1.7-6.4-2.6-9.7c-0.9-3.3-1.7-6.5-2.6-9.8c-0.9-3.2-1.7-6.3-2.5-9.2c-0.3-1-0.5-1.8-0.5-2.2
			c0-0.5,0.3-0.8,0.8-0.9c2.6-0.6,5.3-1.2,8.1-1.8c2.8-0.6,5.5-1.4,8-2.4c0.1,0,0.3-0.1,0.5-0.1c0.4,0,0.7,0.2,0.7,0.5l6.6,33.8
			c0.2-0.4,0.5-1.1,0.9-2.2c0.4-1.1,0.9-2.3,1.5-3.8c0.6-1.5,1.2-3.1,1.9-4.9c0.7-1.8,1.4-3.6,2.1-5.4c0.7-1.8,1.4-3.7,2.1-5.5
			c0.7-1.8,1.4-3.5,2-5.1c0.6-1.6,1.2-3,1.6-4.2C900.8,115,901.2,114.1,901.4,113.5z"/>
		<path class="st0" d="M947.1,113c3.2,0,6.1,0.6,8.7,1.8c2.6,1.2,4.8,2.7,6.7,4.6c1.9,1.9,3.3,4,4.3,6.4c1,2.3,1.5,4.7,1.5,7
			c0,2.1-0.6,4.2-1.9,6.3c-1.3,2.1-3.1,4-5.4,5.7c-2.3,1.7-5.1,3-8.3,4.1c-3.2,1-6.8,1.6-10.6,1.6c-2,0-4.1-0.2-6.3-0.6
			c0.1,1.4,0.6,2.7,1.3,3.7c0.7,1,1.6,1.9,2.7,2.6c1.1,0.7,2.3,1.2,3.6,1.5c1.4,0.3,2.8,0.5,4.2,0.5c1.6,0,3.2-0.1,4.7-0.4
			c1.5-0.3,2.9-0.7,4.3-1.1c1.4-0.5,2.7-1,4-1.6c1.3-0.6,2.5-1.1,3.6-1.7c0.3-0.1,0.6-0.1,0.8-0.2c0.2,0,0.4-0.1,0.6-0.1
			c0,1.1,0,2.1,0,3.1c0,1,0,2.1,0,3.5c0,1.4,0,2.9-0.1,4.6c0.1,0.2,0.2,0.3,0.2,0.5c0,0.2,0.1,0.3,0.1,0.4c0,0.4-0.4,0.8-1.1,1.3
			c-0.7,0.5-1.7,1-2.9,1.5c-1.2,0.5-2.5,1-4.1,1.5s-3.1,0.9-4.7,1.3c-1.6,0.4-3.1,0.7-4.6,0.9c-1.5,0.2-2.8,0.3-3.9,0.3
			c-3.6,0-7.1-0.6-10.5-1.9c-3.4-1.3-6.4-3.1-9.1-5.4c-2.6-2.3-4.7-5.2-6.3-8.5c-1.6-3.4-2.4-7.1-2.4-11.3c0-4.4,0.8-8.5,2.3-12.3
			c1.5-3.8,3.6-7.2,6.4-10c2.7-2.8,6-5.1,9.8-6.7C938.3,113.8,942.5,113,947.1,113z M946.5,126.4c-1.4,0-2.6,0.3-3.8,0.9
			c-1.2,0.6-2.2,1.4-3.2,2.5c-1,1.1-1.8,2.4-2.5,3.9c-0.7,1.5-1.3,3.2-1.7,5.1c3.5-0.6,6.3-1.2,8.6-1.9c2.3-0.7,4.1-1.3,5.5-2
			c1.4-0.7,2.3-1.4,2.9-2.1c0.6-0.7,0.9-1.3,0.9-2c0-0.6-0.2-1.2-0.7-1.7c-0.5-0.5-1-1-1.7-1.4c-0.7-0.4-1.4-0.7-2.2-0.9
			C947.8,126.5,947.1,126.4,946.5,126.4z"/>
		<path class="st0" d="M974.9,126.6c0.4-4.6,0.7-9.1,1-13.6c0.3-4.5,0.5-9.1,0.8-13.8c0.1-1.1,0.2-1.9,0.3-2.3
			c0.2-0.4,0.5-0.7,1.1-0.8c3.1-0.6,6.2-1.1,9.4-1.7c3.1-0.6,6.3-1.4,9.4-2.3c0.1,0,0.3-0.1,0.5-0.1c0.4,0,0.6,0.2,0.6,0.5
			l-6.5,71.8v0.9c0,0.3-0.1,0.5-0.4,0.7c-0.2,0.2-0.8,0.4-1.7,0.6l-13.2,4.8c-0.4,0.2-0.9,0.3-1.5,0.5c-0.6,0.2-1.2,0.3-1.8,0.3
			c-0.5,0-0.9-0.1-1.2-0.4c-0.4-0.2-0.5-0.6-0.5-1.2v-0.3c0.3-3.4,0.5-6.7,0.8-9.9c0.3-3.2,0.5-6.6,0.8-10c0.3-3.5,0.6-7.1,0.9-11
			C974.1,135.4,974.5,131.1,974.9,126.6z"/>
		<path class="st0" d="M1045.7,165.1c0,0.3-0.1,0.6-0.2,0.9c-0.1,0.3-0.3,0.5-0.7,0.7c-0.1,0.1-0.8,0.3-2,0.7
			c-1.2,0.4-2.6,0.9-4.1,1.5c-1.6,0.6-3.1,1.1-4.6,1.7c-1.5,0.6-2.7,1-3.5,1.3c-0.4,0.2-0.9,0.3-1.5,0.5c-0.6,0.2-1.2,0.3-1.7,0.3
			c-0.5,0-0.9-0.1-1.2-0.4c-0.4-0.2-0.5-0.7-0.5-1.3c0-1.5,0-2.8,0.1-4c0.1-1.2,0.2-2.5,0.3-3.8c0.1-1.3,0.3-2.8,0.4-4.5
			c0.2-1.6,0.3-3.6,0.4-5.8c0.2-3,0.4-5.8,0.6-8.5c0.2-2.7,0.4-5.6,0.6-8.5l0.7-8.6c0.1-1.4,0.2-2.8,0.3-4.3c0.1-1.5,0.2-3,0.3-4.5
			l0.6-6.1c0-0.1-0.1-0.1-0.3-0.1c-0.3,0-0.7,0.1-1.4,0.2c-0.6,0.1-1.4,0.3-2.3,0.4c-0.9,0.2-1.8,0.3-2.9,0.5
			c-1.1,0.2-2.1,0.4-3.2,0.5c-0.3,0-0.5-0.1-0.8-0.2c-0.3-0.1-0.4-0.3-0.4-0.4c0-0.1,0-0.2,0.1-0.3l8.1-14.2c1.8-0.4,3.8-0.8,6-1.2
			c2.1-0.4,4.4-0.8,6.9-1.1c2.4-0.3,5-0.6,7.8-0.8c2.7-0.2,5.7-0.3,8.8-0.3c3.5,0.1,6.9,0.4,10.2,1c3.3,0.6,6.2,1.7,8.8,3.1
			c2.6,1.5,4.6,3.4,6.2,5.9c1.6,2.5,2.3,5.7,2.3,9.5c0,2.1-0.4,4.1-1.1,5.8c-0.7,1.8-1.6,3.4-2.8,4.8c-1.1,1.4-2.4,2.7-3.7,3.8
			c-1.3,1.1-2.6,2-3.8,2.8c-1.2,0.8-2.3,1.4-3.2,1.8c-0.9,0.5-1.6,0.7-1.9,0.9c0,0.1,0,0.2,0.1,0.3c0.1,0.1,0.2,0.3,0.3,0.6
			c0.2,0.3,0.4,0.7,0.7,1.2c0.3,0.5,0.7,1.2,1.2,2.1c0.5,0.8,1.2,1.9,1.9,3.2c0.7,1.3,1.6,2.9,2.6,4.8c1,1.8,2.2,3.9,3.5,6.1
			c1.3,2.2,2.9,4.7,4.6,7.2c0.6,0.5,1.2,0.8,2,0.9c0.7,0.1,1.4,0.2,2.1,0.2c0.6,0,1.2,0,1.6,0.1c0.4,0,0.7,0.3,0.7,0.6
			c0,0.3-0.3,0.6-0.8,0.9c-0.6,0.4-1.2,0.7-1.9,1.1c-0.7,0.4-1.5,0.7-2.2,1.1c-0.8,0.3-1.3,0.6-1.7,0.8c-0.8,0.4-1.6,0.8-2.5,1.2
			c-0.9,0.4-1.8,0.8-2.8,1.2c-1,0.5-2.1,1-3.3,1.6c-1.2,0.6-2.6,1.3-4.1,2.2c-0.4,0.2-0.8,0.4-1.1,0.5c-0.4,0.1-0.7,0.1-1,0.1
			c-0.6,0-1.1-0.1-1.6-0.4c-0.4-0.3-0.8-0.6-1.1-1c-0.3-0.4-0.5-0.8-0.7-1.2c-0.2-0.4-0.3-0.8-0.5-1l-15-31.6L1045.7,165.1z
			 M1048.8,131c1.7,0,3.5-0.4,5.3-1.3c1.8-0.9,3.5-2,5-3.4c1.5-1.4,2.7-2.9,3.7-4.7c1-1.7,1.5-3.5,1.5-5.3c0-4.9-2.9-7.3-8.8-7.3
			c-1.1,0-2,0.1-2.8,0.2c-0.7,0.2-1.4,0.3-2,0.3L1048.8,131z"/>
		<path class="st0" d="M1091,147.8c0.4-4.6,0.9-9.1,1.3-13.6c0.4-4.5,0.8-9.1,1.2-13.8c0.1-1.1,0.2-1.9,0.3-2.3
			c0.2-0.4,0.5-0.7,1.1-0.8c2.8-0.6,5.8-1.2,9-1.8c3.1-0.6,6.1-1.4,9.1-2.4c0.1,0,0.3-0.1,0.5-0.1c0.4,0,0.6,0.1,0.6,0.4l-4.5,49
			c-0.1,1.1-0.2,1.9-0.4,2.3c-0.1,0.4-0.5,0.7-1.1,0.8c-2.8,0.9-5.7,1.8-8.7,2.9c-2.9,1.1-6,2.2-9.3,3.3c-0.1,0-0.3,0.1-0.5,0.1
			c-0.4,0-0.6-0.2-0.6-0.5c0,0,0-0.5,0.1-1.4c0.1-0.9,0.2-2,0.3-3.4c0.1-1.4,0.2-2.9,0.4-4.6c0.1-1.7,0.3-3.4,0.4-5.1
			c0.2-1.7,0.3-3.4,0.4-4.9C1090.8,150.2,1090.9,148.9,1091,147.8z M1094.8,107.6c0.1-1.4,0.2-2.5,0.2-3.3c0.1-0.8,0.1-1.3,0.1-1.7
			c0-0.4,0.1-0.6,0.1-0.7s0-0.2,0-0.2c0-0.1,0-0.2,0.1-0.3c0-0.2,0-0.5,0.1-1c0-0.5,0.1-1.2,0.2-2.1c0.1-0.9,0.2-2.2,0.3-3.9
			c0.1-1.1,0.2-1.9,0.3-2.3c0.2-0.4,0.5-0.7,1.1-0.8c2.8-0.6,5.8-1.2,9-1.8c3.1-0.6,6.1-1.4,9.1-2.4c0.1,0,0.3-0.1,0.5-0.1
			c0.1,0.2,0.2,0.3,0.4,0.4l0.2,0.1l-1.1,13.8c-0.1,1.1-0.2,1.9-0.4,2.3c-0.2,0.4-0.5,0.7-1.1,0.8c-2.9,0.5-5.7,1.1-8.7,1.8
			c-2.9,0.6-6,1.3-9.3,1.9c-0.1,0-0.3,0.1-0.5,0.1C1094.9,108.1,1094.8,108,1094.8,107.6z"/>
		<path class="st0" d="M1117.6,155.2C1117.6,155.2,1117.6,155.2,1117.6,155.2c0-0.1-0.1-0.1-0.1-0.2c0-0.4,0.2-0.7,0.7-0.7
			c0.3,0,0.6,0.1,0.8,0.4c1.3,1.3,2.9,2.3,4.6,3.1s3.6,1.2,5.6,1.2c0.5,0,1.2-0.1,1.9-0.2c0.7-0.1,1.4-0.3,2-0.6
			c0.6-0.3,1.2-0.6,1.6-1.1c0.4-0.5,0.6-1,0.6-1.7c0-0.7-0.2-1.4-0.6-2c-0.4-0.6-0.9-1.1-1.5-1.5c-0.3-0.2-0.9-0.6-1.8-1.2
			c-0.8-0.6-1.7-1.2-2.7-1.9c-1-0.7-1.9-1.3-2.7-1.9c-0.9-0.6-1.5-1-1.8-1.3c-1.5-1.1-2.7-2.3-3.6-3.5c-0.9-1.2-1.6-2.4-2-3.6
			c-0.5-1.3-0.8-2.6-0.9-3.9c-0.1-1.4-0.2-2.8-0.2-4.4c0-2.3,0.6-4.6,1.9-6.6c1.2-2.1,2.9-3.9,4.9-5.5c2-1.6,4.3-2.8,6.9-3.7
			c2.6-0.9,5.2-1.4,7.9-1.4c2.2,0,4.4,0.3,6.5,1c2.1,0.7,4.1,1.8,6,3.4c0.2,2.1,0.3,4.2,0.4,6.2c0.1,2,0.2,4.2,0.3,6.4
			c0,0.4-0.1,0.7-0.3,0.9c-0.2,0.2-0.4,0.2-0.7,0.2c-0.2,0-0.4-0.1-0.6-0.3c-0.8-0.7-1.6-1.5-2.4-2.2c-0.8-0.7-1.7-1.4-2.5-1.9
			c-0.9-0.6-1.8-1-2.8-1.4c-1-0.4-2.1-0.5-3.2-0.5c-0.7,0-1.4,0.1-2.1,0.2c-0.7,0.1-1.3,0.3-1.9,0.7c-0.6,0.3-1,0.7-1.4,1.3
			c-0.4,0.5-0.5,1.2-0.5,2.1c0,1,0.1,1.8,0.4,2.5c0.2,0.7,0.8,1.4,1.7,2.1l9.4,6.3c1.7,1.2,3.1,2.3,4.1,3.4c1.1,1.1,1.9,2.2,2.5,3.3
			s1,2.2,1.2,3.3c0.2,1.1,0.3,2.2,0.3,3.2c0,3-0.7,5.7-2.1,8c-1.4,2.3-3.2,4.2-5.4,5.7c-2.2,1.5-4.7,2.7-7.5,3.5
			c-2.8,0.8-5.6,1.2-8.4,1.2c-2.1,0-4.2-0.2-6.2-0.7c-2-0.5-3.8-1.1-5.6-2.1L1117.6,155.2z"/>
		<path class="st0" d="M1187.5,113c3.2,0,6.1,0.6,8.7,1.8c2.6,1.2,4.8,2.7,6.7,4.6c1.9,1.9,3.3,4,4.3,6.4c1,2.3,1.5,4.7,1.5,7
			c0,2.1-0.6,4.2-1.9,6.3c-1.3,2.1-3.1,4-5.4,5.7c-2.3,1.7-5.1,3-8.3,4.1c-3.2,1-6.8,1.6-10.6,1.6c-2,0-4.1-0.2-6.3-0.6
			c0.1,1.4,0.6,2.7,1.3,3.7c0.7,1,1.6,1.9,2.7,2.6c1.1,0.7,2.3,1.2,3.6,1.5c1.4,0.3,2.8,0.5,4.2,0.5c1.6,0,3.2-0.1,4.7-0.4
			c1.5-0.3,2.9-0.7,4.3-1.1c1.4-0.5,2.7-1,4-1.6c1.3-0.6,2.5-1.1,3.6-1.7c0.3-0.1,0.6-0.1,0.8-0.2c0.2,0,0.4-0.1,0.6-0.1
			c0,1.1,0,2.1,0,3.1c0,1,0,2.1,0,3.5c0,1.4,0,2.9-0.1,4.6c0.1,0.2,0.2,0.3,0.2,0.5c0,0.2,0.1,0.3,0.1,0.4c0,0.4-0.4,0.8-1.1,1.3
			c-0.7,0.5-1.7,1-2.9,1.5c-1.2,0.5-2.5,1-4.1,1.5s-3.1,0.9-4.7,1.3c-1.6,0.4-3.1,0.7-4.6,0.9c-1.5,0.2-2.8,0.3-3.9,0.3
			c-3.6,0-7.1-0.6-10.5-1.9c-3.4-1.3-6.4-3.1-9.1-5.4c-2.6-2.3-4.7-5.2-6.3-8.5c-1.6-3.4-2.4-7.1-2.4-11.3c0-4.4,0.8-8.5,2.3-12.3
			c1.5-3.8,3.6-7.2,6.4-10c2.7-2.8,6-5.1,9.8-6.7C1178.8,113.8,1183,113,1187.5,113z M1186.9,126.4c-1.4,0-2.6,0.3-3.8,0.9
			c-1.2,0.6-2.2,1.4-3.2,2.5c-1,1.1-1.8,2.4-2.5,3.9c-0.7,1.5-1.3,3.2-1.7,5.1c3.5-0.6,6.3-1.2,8.6-1.9c2.3-0.7,4.1-1.3,5.5-2
			c1.4-0.7,2.3-1.4,2.9-2.1c0.6-0.7,0.9-1.3,0.9-2c0-0.6-0.2-1.2-0.7-1.7c-0.5-0.5-1-1-1.7-1.4c-0.7-0.4-1.4-0.7-2.2-0.9
			C1188.3,126.5,1187.6,126.4,1186.9,126.4z"/>
		<path class="st0" d="M579.3,268.7l2.5-34.4c0.8-11.5,1.5-20,1.9-25.4c0.4-5.4,0.6-8.1,0.6-8c0-0.6,0.1-1.1,0.1-1.5
			c0-0.4,0.1-0.7,0.2-1c0.1-0.3,0.2-0.5,0.4-0.6c0.2-0.1,0.4-0.2,0.8-0.3l17.4-4.2c0.4-0.1,0.9-0.2,1.4-0.2c0.5,0,0.8,0.1,1,0.4
			c0.2,0.3,0.3,0.9,0.3,1.7c-0.2,2.1-0.4,4-0.6,5.8c-0.1,1.8-0.2,3.5-0.3,5.2c-0.1,1.6-0.2,3.2-0.2,4.8c-0.1,1.5-0.2,3-0.3,4.6
			c-0.2,1.6-0.4,3.3-0.5,4.9c-0.2,1.6-0.3,3.3-0.4,5.1c-0.1,1.8-0.3,3.6-0.4,5.6c-0.2,2-0.3,4.1-0.5,6.4l-2.2,26.5
			c0,0.3-0.1,0.6-0.2,0.9c-0.1,0.3-0.3,0.5-0.7,0.7c0,0-0.2,0.1-0.6,0.2c-0.4,0.1-0.9,0.3-1.5,0.5c-0.6,0.2-1.3,0.4-2.1,0.7
			s-1.7,0.5-2.6,0.7c-1.5,0.3-2.8,0.7-3.9,1c-1.1,0.3-2.1,0.6-3,0.9c-0.9,0.3-1.7,0.5-2.4,0.7c-0.7,0.2-1.5,0.3-2.2,0.3
			c-0.5,0-0.9-0.1-1.3-0.4C579.5,269.9,579.3,269.4,579.3,268.7z"/>
		<path class="st0" d="M608.2,253.2C608.2,253.2,608.2,253.2,608.2,253.2c0-0.1-0.1-0.1-0.1-0.2c0-0.4,0.2-0.7,0.7-0.7
			c0.3,0,0.6,0.1,0.8,0.4c1.3,1.3,2.9,2.3,4.6,3.1c1.7,0.8,3.6,1.2,5.6,1.2c0.5,0,1.2-0.1,1.9-0.2c0.7-0.1,1.4-0.3,2-0.6
			c0.6-0.3,1.2-0.6,1.6-1.1c0.4-0.5,0.6-1,0.6-1.7c0-0.7-0.2-1.4-0.6-2c-0.4-0.6-0.9-1.1-1.5-1.5c-0.3-0.2-0.9-0.6-1.8-1.2
			c-0.8-0.6-1.7-1.2-2.7-1.9c-1-0.7-1.9-1.3-2.7-1.9c-0.9-0.6-1.5-1-1.8-1.3c-1.5-1.1-2.7-2.3-3.6-3.5c-0.9-1.2-1.6-2.4-2-3.6
			c-0.5-1.3-0.8-2.6-0.9-3.9c-0.1-1.4-0.2-2.8-0.2-4.4c0-2.3,0.6-4.6,1.9-6.6c1.2-2.1,2.9-3.9,4.9-5.5c2-1.6,4.3-2.8,6.9-3.7
			c2.6-0.9,5.2-1.4,7.9-1.4c2.2,0,4.4,0.3,6.5,1c2.1,0.7,4.1,1.8,6,3.4c0.2,2.1,0.3,4.2,0.4,6.2c0.1,2,0.2,4.2,0.3,6.4
			c0,0.4-0.1,0.7-0.3,0.9c-0.2,0.2-0.4,0.2-0.7,0.2c-0.2,0-0.4-0.1-0.6-0.3c-0.8-0.7-1.6-1.5-2.4-2.2c-0.8-0.7-1.7-1.4-2.5-1.9
			c-0.9-0.6-1.8-1-2.8-1.4c-1-0.4-2.1-0.5-3.2-0.5c-0.7,0-1.4,0.1-2.1,0.2c-0.7,0.1-1.3,0.3-1.9,0.7c-0.6,0.3-1,0.7-1.4,1.3
			c-0.4,0.5-0.5,1.2-0.5,2.1c0,1,0.1,1.8,0.4,2.5c0.2,0.7,0.8,1.4,1.7,2.1l9.4,6.3c1.7,1.2,3.1,2.3,4.1,3.4c1.1,1.1,1.9,2.2,2.5,3.3
			s1,2.2,1.2,3.3c0.2,1.1,0.3,2.2,0.3,3.2c0,3-0.7,5.7-2.1,8c-1.4,2.3-3.2,4.2-5.4,5.7c-2.2,1.5-4.7,2.7-7.5,3.5
			c-2.8,0.8-5.6,1.2-8.4,1.2c-2.1,0-4.2-0.2-6.2-0.7c-2-0.5-3.8-1.1-5.6-2.1L608.2,253.2z"/>
		<path class="st0" d="M652,224.6c0.4-4.6,0.7-9.1,1-13.6c0.3-4.5,0.5-9.1,0.8-13.8c0.1-1.1,0.2-1.9,0.3-2.3
			c0.2-0.4,0.5-0.7,1.1-0.8c3.1-0.6,6.2-1.1,9.4-1.7c3.1-0.6,6.3-1.4,9.4-2.3c0.1,0,0.3-0.1,0.5-0.1c0.4,0,0.6,0.2,0.6,0.5
			l-6.5,71.8v0.9c0,0.3-0.1,0.5-0.4,0.7c-0.2,0.2-0.8,0.4-1.7,0.6l-13.2,4.8c-0.4,0.2-0.9,0.3-1.5,0.5c-0.6,0.2-1.2,0.3-1.8,0.3
			c-0.5,0-0.9-0.1-1.2-0.4c-0.4-0.2-0.5-0.6-0.5-1.2v-0.3c0.3-3.4,0.5-6.7,0.8-9.9c0.3-3.2,0.5-6.6,0.8-10c0.3-3.5,0.6-7.1,0.9-11
			C651.2,233.4,651.6,229.1,652,224.6z"/>
		<path class="st0" d="M728.4,257c0,0.1-0.1,0.3-0.1,0.4c0,0.1,0,0.2,0,0.3c0,0.8,0.1,1.5,0.4,2.1c0.3,0.6,0.6,1,0.9,1.4
			c0.3,0.4,0.6,0.6,0.9,0.9c0.3,0.2,0.4,0.4,0.4,0.6c0,0.5-0.5,0.9-1.5,1.3l-13.5,5.8c0,0-0.2,0-0.4,0c-0.3,0-0.5-0.2-0.8-0.7
			c-0.3-0.5-0.5-1.1-0.8-1.8c-0.3-0.7-0.5-1.5-0.7-2.3c-0.2-0.8-0.4-1.6-0.6-2.3c-2.1,2.4-4.4,4.2-6.8,5.4c-2.4,1.1-4.9,1.7-7.3,1.7
			c-2.8,0-5.6-0.6-8.2-1.9s-5.1-3-7.1-5.3c-2.1-2.3-3.7-5.1-5-8.3c-1.3-3.3-1.9-6.9-1.9-11c0-4.8,0.7-9.2,2.1-13.1
			c1.4-4,3.3-7.4,5.7-10.2c2.4-2.8,5.2-5.1,8.3-6.6c3.2-1.6,6.5-2.3,10.1-2.3c2.5,0,4.9,0.5,7.1,1.5c2.2,1,4.4,2.3,6.4,3.9
			c0.2-1,0.3-1.8,0.4-2.4c0-0.6,0.1-1.1,0.2-1.4c0.1-0.3,0.3-0.6,0.7-0.7c0.3-0.1,0.9-0.2,1.7-0.3c2.4-0.3,4.8-0.6,7.2-0.9
			c2.4-0.3,4.9-0.5,7.5-0.6L728.4,257z M713.3,238c0.3-1.9,0.6-3.7,0.7-5.4c0.1-1.7,0.2-3.2,0.3-4.7c-0.5-0.4-1.1-0.8-1.7-1.3
			c-0.6-0.4-1.3-0.8-2-1.2c-0.7-0.4-1.5-0.7-2.3-0.9c-0.8-0.2-1.6-0.4-2.5-0.4c-1.8,0-3.3,0.6-4.6,1.8c-1.2,1.2-2.2,2.6-3,4.3
			c-0.8,1.7-1.3,3.5-1.6,5.4c-0.3,1.9-0.5,3.6-0.5,5.1c0,5.3,0.7,9.2,2.1,11.6c1.4,2.5,3.3,3.7,5.8,3.7c1,0,2.1-0.3,3.4-0.9
			c1.2-0.6,2.5-1.4,3.8-2.4L713.3,238z"/>
		<path class="st0" d="M778.7,268.9c-0.4,0.1-0.9,0.3-1.5,0.5s-1.2,0.3-1.8,0.3c-0.5,0-0.9-0.1-1.2-0.4c-0.4-0.2-0.5-0.6-0.5-1.2
			v-0.3c0.2-1.8,0.4-3.3,0.5-4.6c0.1-1.3,0.3-2.4,0.4-3.4c0.1-1,0.2-2,0.3-3.1c0.1-1,0.2-2.2,0.3-3.6c0.1-1.4,0.3-3,0.5-4.8
			c0.2-1.9,0.4-4.2,0.7-7c0.2-1.7,0.3-3.5,0.5-5.2c0.1-1.8,0.2-3.4,0.2-4.9c0-1-0.1-1.9-0.2-2.8c-0.2-0.9-0.4-1.6-0.8-2.2
			c-0.4-0.6-0.9-1.1-1.6-1.4c-0.7-0.3-1.5-0.5-2.6-0.5c-0.8,0-1.8,0.2-3.2,0.5c-1.4,0.3-2.7,0.9-4,1.7c-1.3,0.8-2.5,1.8-3.6,3
			c-1,1.3-1.6,2.8-1.8,4.7c-0.2,2.5-0.4,4.6-0.6,6.4c-0.2,1.8-0.3,3.3-0.5,4.5c-0.1,1.2-0.2,2.2-0.3,3c-0.1,0.8-0.1,1.4-0.2,2
			c0,0.1-0.1,0.5-0.2,1.1s-0.1,1.3-0.2,2.2c-0.1,0.8-0.2,1.7-0.3,2.7c-0.1,0.9-0.2,1.8-0.3,2.7c-0.1,0.8-0.2,1.6-0.2,2.2
			c-0.1,0.6-0.1,1-0.1,1.1c0,0.3,0,0.5,0,0.7c0,0.2,0,0.4,0,0.5c0,0.3-0.1,0.5-0.4,0.7c-0.3,0.2-0.8,0.4-1.7,0.6l-13.3,4.6
			c-0.4,0.1-0.9,0.3-1.5,0.5s-1.2,0.3-1.8,0.3c-0.5,0-0.9-0.1-1.2-0.4c-0.4-0.2-0.5-0.6-0.5-1.2l4.6-51.4c0.1-1.1,0.2-1.9,0.4-2.3
			c0.2-0.4,0.5-0.7,1.1-0.8c3.1-0.6,6.2-1.2,9.4-1.8c3.2-0.6,6.4-1.4,9.4-2.4c0.3,0,0.4,0,0.5,0.1c0.1,0.1,0.1,0.2,0.1,0.4
			c0,0.1,0,0.2,0,0.3c0,0.1-0.1,0.4-0.2,0.9c-0.1,0.5-0.2,1.2-0.4,2.1c-0.2,1-0.4,2.3-0.6,4c2.3-1.3,4.5-2.4,6.5-3.2
			c2-0.8,3.9-1.5,5.7-1.9c1.8-0.5,3.5-0.8,5.1-0.9c1.6-0.2,3.1-0.2,4.4-0.2c4.7,0,8.2,1.4,10.3,4.3c2.1,2.9,3.2,7.2,3.2,12.9
			c0,0.8,0,1.6,0,2.5c0,0.9-0.1,1.7-0.2,2.6l-2.3,21.6c-0.2,1.4-0.3,2.7-0.3,3.9c0,1.2,0,2.6,0,4.1c0,0.3,0,0.5,0,0.7
			c0,0.2,0,0.3,0,0.5c0,0.3-0.1,0.5-0.4,0.7c-0.3,0.2-0.8,0.4-1.7,0.7L778.7,268.9z"/>
		<path class="st0" d="M856.3,262c0,0.1,0,0.1,0,0.2c0,0.1,0,0.2,0,0.2c0,0.2,0,0.3,0,0.4s0,0.2,0,0.3c0,0.3-0.1,0.5-0.3,0.7
			c-0.2,0.2-0.8,0.4-1.7,0.6l-13.5,4.4c-0.4,0.1-0.9,0.3-1.5,0.5s-1.2,0.3-1.8,0.3c-0.5,0-0.9-0.1-1.2-0.4c-0.4-0.2-0.5-0.7-0.5-1.3
			c0-0.6,0-1.1,0-1.5c0-0.4,0-0.7,0.1-1c0-0.3,0-0.7,0.1-1c0-0.4,0.1-0.9,0.2-1.5c-2.5,2-5.1,3.6-7.8,4.8c-2.7,1.2-5.5,1.8-8.4,1.8
			c-3.2,0-6.1-0.8-8.6-2.3s-4.6-3.6-6.3-6.1c-1.7-2.6-3-5.5-3.9-8.8c-0.9-3.3-1.3-6.7-1.3-10.3c0-4.7,0.8-8.9,2.3-12.7
			c1.5-3.8,3.6-7.1,6.2-9.9c2.6-2.7,5.7-4.8,9.2-6.3c3.5-1.5,7.2-2.2,11.1-2.2c2.1,0,4.1,0.6,6.1,1.7c1.9,1.1,3.7,2.5,5.5,4.3
			c0.1-1.6,0.2-3.4,0.4-5.4c0.1-1.9,0.3-3.9,0.4-5.9c0.1-2,0.3-4,0.4-5.9c0.1-1.9,0.3-3.7,0.4-5.3c0-0.3,0.1-0.5,0.3-0.7
			c0.2-0.2,0.8-0.4,1.7-0.6l14.1-3.4c0.4-0.1,0.9-0.2,1.5-0.5c0.6-0.2,1.2-0.4,1.8-0.4c0.4,0,0.8,0.1,1.2,0.3
			c0.4,0.2,0.6,0.6,0.6,1.2c0,0.1,0,0.2,0,0.4c0,0.2,0,0.4,0,0.4L856.3,262z M838.8,238.5c0.1-1.1,0.2-2.2,0.3-3.4
			c0.1-1.2,0.3-2.4,0.4-3.7c-0.8-2-1.9-3.6-3.3-4.9c-1.4-1.3-3.2-1.9-5.3-1.9c-2.1,0-3.8,0.6-5.3,1.8c-1.4,1.2-2.6,2.7-3.5,4.4
			c-0.9,1.7-1.5,3.6-1.9,5.5c-0.4,1.9-0.6,3.6-0.6,5.1c0,1.8,0.1,3.6,0.3,5.4s0.6,3.4,1.1,4.8c0.5,1.4,1.1,2.6,1.9,3.5
			c0.8,0.9,1.8,1.3,3,1.3c2.9-0.1,5.3-0.8,7.2-2c1.8-1.2,3.3-2.7,4.4-4.5L838.8,238.5z"/>
		<path class="st0" d="M948.5,214.8c0,2.9-0.3,5.5-0.8,7.7c-0.5,2.3-1.3,4.3-2.2,6.2c-1,1.8-2.1,3.5-3.5,4.9
			c-1.4,1.5-2.9,2.8-4.7,4.1c-3.4,2.4-7,4.2-11,5.5c-4,1.2-8,1.8-12,1.8c-0.7,0-1.3,0-2,0c-0.7,0-1.3-0.1-2-0.2l-1.7,18.4l-0.9,1.6
			c-0.1,0.1-0.6,0.4-1.7,0.8c-1.1,0.4-2.4,0.9-4,1.4l-3.2,1.1c-1,0.4-1.9,0.7-2.7,1c-0.8,0.3-1.5,0.6-2.2,0.8
			c-0.7,0.2-1.3,0.4-2,0.5c-0.6,0.1-1.3,0.2-2,0.2c-0.5,0-0.8-0.1-1.1-0.4c-0.3-0.2-0.4-0.7-0.4-1.4l0.6-8.6
			c0.1-1.7,0.2-3.4,0.4-5.2c0.2-1.7,0.3-3.7,0.4-5.9l1-12c0.2-2.4,0.4-4.9,0.6-7.3c0.2-2.4,0.3-4.8,0.5-7c0.2-2.2,0.3-4.3,0.5-6.2
			c0.1-1.9,0.3-3.6,0.4-5.1c-1.8,0.4-3.3,0.7-4.4,0.9c-1.1,0.2-1.9,0.3-2.5,0.3c-0.7,0-1.1-0.3-1.1-0.9c0.5-1.6,0.9-3.3,1.3-4.8
			c0.4-1.3,0.7-2.7,1.1-4.1c0.4-1.4,0.7-2.6,1-3.6c0.2-0.6,0.4-1.1,0.6-1.4c0.2-0.3,0.5-0.6,0.9-0.8c0.4-0.2,0.8-0.4,1.4-0.5
			c0.6-0.2,1.2-0.4,2-0.6c0.6-0.2,1.5-0.4,2.7-0.7c1.2-0.3,2.5-0.5,4-0.8c1.5-0.3,3.1-0.5,4.9-0.7c1.7-0.2,3.5-0.4,5.3-0.6
			c1.8-0.2,3.6-0.3,5.3-0.5c1.7-0.1,3.4-0.2,4.9-0.2c3.8,0,7.4,0.4,10.9,1.1s6.4,1.9,9,3.6c2.6,1.7,4.6,4,6.2,6.8
			C947.8,206.9,948.5,210.5,948.5,214.8z M911.8,229.9c0,0.4,0.1,0.7,0.2,1c0.1,0.3,0.5,0.4,1.1,0.4c0.9,0,2.1-0.2,3.3-0.6
			c1.3-0.4,2.6-1,3.9-1.9c1.3-0.8,2.5-1.9,3.6-3.1c1.1-1.2,1.9-2.7,2.5-4.4c0.2-0.7,0.4-1.5,0.6-2.6c0.2-1,0.2-2.3,0.2-3.7
			c0-2.3-0.8-4.1-2.4-5.2c-1.6-1.1-3.7-1.7-6.4-1.7c-0.4,0-0.9,0-1.5,0.1c-0.6,0.1-1.1,0.1-1.6,0.3c-0.5,0.1-0.9,0.3-1.2,0.5
			c-0.3,0.2-0.5,0.4-0.6,0.7l-0.1,1.1c0,0.4-0.1,1.1-0.2,2.1c-0.1,1-0.2,2.1-0.3,3.4c-0.1,1.3-0.2,2.6-0.4,4c-0.1,1.4-0.2,2.7-0.4,4
			c-0.1,1.3-0.2,2.4-0.3,3.4C911.9,228.8,911.8,229.5,911.8,229.9z"/>
		<path class="st0" d="M977.7,211c3.2,0,6.1,0.6,8.7,1.8c2.6,1.2,4.8,2.7,6.7,4.6c1.9,1.9,3.3,4,4.3,6.4c1,2.3,1.5,4.7,1.5,7
			c0,2.1-0.6,4.2-1.9,6.3c-1.3,2.1-3.1,4-5.4,5.7c-2.3,1.7-5.1,3-8.3,4.1c-3.2,1-6.8,1.6-10.6,1.6c-2,0-4.1-0.2-6.3-0.6
			c0.1,1.4,0.6,2.7,1.3,3.7s1.6,1.9,2.7,2.6c1.1,0.7,2.3,1.2,3.6,1.5c1.4,0.3,2.8,0.5,4.2,0.5c1.6,0,3.2-0.1,4.7-0.4
			c1.5-0.3,2.9-0.7,4.3-1.1c1.4-0.5,2.7-1,4-1.6c1.3-0.6,2.5-1.1,3.6-1.7c0.3-0.1,0.6-0.1,0.8-0.2c0.2,0,0.4-0.1,0.6-0.1
			c0,1.1,0,2.1,0,3.1s0,2.1,0,3.5c0,1.4,0,2.9-0.1,4.6c0.1,0.2,0.2,0.3,0.2,0.5c0,0.2,0.1,0.3,0.1,0.4c0,0.4-0.4,0.8-1.1,1.3
			c-0.7,0.5-1.7,1-2.9,1.5c-1.2,0.5-2.5,1-4.1,1.5c-1.5,0.5-3.1,0.9-4.7,1.3s-3.1,0.7-4.6,0.9c-1.5,0.2-2.8,0.3-3.9,0.3
			c-3.6,0-7.1-0.6-10.5-1.9c-3.4-1.3-6.4-3.1-9.1-5.4s-4.7-5.2-6.3-8.5c-1.6-3.4-2.4-7.1-2.4-11.3c0-4.4,0.8-8.5,2.3-12.3
			c1.5-3.8,3.6-7.2,6.4-10c2.7-2.8,6-5.1,9.8-6.7C969,211.8,973.1,211,977.7,211z M977.1,224.4c-1.4,0-2.6,0.3-3.8,0.9
			c-1.2,0.6-2.2,1.4-3.2,2.5c-1,1.1-1.8,2.4-2.5,3.9c-0.7,1.5-1.3,3.2-1.7,5.1c3.5-0.6,6.3-1.2,8.6-1.9c2.3-0.7,4.1-1.3,5.5-2
			c1.4-0.7,2.3-1.4,2.9-2.1c0.6-0.7,0.9-1.3,0.9-2c0-0.6-0.2-1.2-0.7-1.7c-0.5-0.5-1-1-1.7-1.4c-0.7-0.4-1.4-0.7-2.2-0.9
			C978.4,224.5,977.7,224.4,977.1,224.4z"/>
		<path class="st0" d="M1030,269.7c-4.7,0-8.9-0.8-12.4-2.3c-3.6-1.5-6.6-3.6-9-6.2c-2.4-2.6-4.2-5.5-5.4-8.9
			c-1.2-3.3-1.8-6.8-1.8-10.4c0-3.6,0.6-7,1.8-10.2c1.2-3.2,2.8-6.1,4.9-8.7c2.1-2.6,4.6-4.7,7.6-6.4c3-1.7,6.2-2.9,9.8-3.5
			c0.5,0,0.8-0.2,0.8-0.4c0-0.4,0-0.7-0.1-1c-0.1-0.3-0.1-0.6-0.1-0.8c0-0.4,0.1-0.6,0.2-0.8c0.1-0.1,0.3-0.2,0.5-0.2
			c6.4,0,11.9,0.7,16.3,2.2c4.5,1.5,8.1,3.4,11,6s4.9,5.5,6.1,8.9s1.9,7.1,1.9,11c0,5-0.8,9.5-2.5,13.4s-4,7.2-6.9,10
			c-2.9,2.7-6.3,4.8-10.2,6.2C1038.6,269,1034.4,269.7,1030,269.7z M1020.7,241.5c0,1.8,0.2,3.6,0.6,5.4c0.4,1.8,1,3.4,1.9,4.8
			c0.9,1.4,2.1,2.6,3.5,3.5c1.4,0.9,3.2,1.3,5.4,1.3c1.5-0.1,2.9-0.4,4-1c1.2-0.6,2.2-1.4,3-2.4c0.8-1,1.5-2.1,2.1-3.3
			c0.6-1.2,1-2.5,1.3-3.8c0.3-1.3,0.5-2.6,0.7-3.9c0.1-1.3,0.2-2.4,0.2-3.5c0-1.7-0.3-3.5-0.8-5.1c-0.5-1.7-1.3-3.2-2.3-4.4
			c-1-1.3-2.3-2.3-3.7-3.1c-1.5-0.8-3.2-1.2-5.2-1.2c-2,0-3.7,0.6-5.1,1.8c-1.4,1.2-2.5,2.7-3.3,4.4c-0.8,1.7-1.4,3.6-1.8,5.5
			C1020.9,238.3,1020.7,240,1020.7,241.5z"/>
		<path class="st0" d="M1089.1,217.3c2.8-1.9,5.8-3.4,8.9-4.6c3.1-1.1,6.3-1.7,9.7-1.7c3.2,0,5.9,0.6,8.2,1.9c2.3,1.3,4.2,3,5.7,5.2
			c1.5,2.2,2.6,4.7,3.3,7.6c0.7,2.9,1.1,5.8,1.1,9c0,2.7-0.3,5.5-0.8,8.2c-0.5,2.8-1.3,5.5-2.4,8.1c-1,2.6-2.3,5-3.9,7.3
			s-3.3,4.3-5.3,6c-2,1.7-4.2,3-6.7,4c-2.4,1-5.1,1.5-7.9,1.5c-2.5,0-4.9-0.5-7.2-1.5s-4.5-2.3-6.5-3.9c0,0.2,0,0.8-0.1,1.8
			c-0.1,1.1-0.2,2.3-0.3,3.8c-0.1,1.5-0.3,3.1-0.5,4.9c-0.2,1.7-0.3,3.3-0.5,4.9c-0.1,1.5-0.2,2.8-0.3,3.8c-0.1,1.1-0.1,1.7-0.1,1.8
			c0,0.3,0,0.5,0,0.7c0,0.2,0,0.4,0,0.5c0,0.3-0.1,0.5-0.4,0.7c-0.3,0.2-0.8,0.4-1.7,0.6l-13.2,3.4c-0.4,0.1-0.9,0.3-1.5,0.5
			s-1.2,0.3-1.8,0.3c-0.5,0-0.9-0.1-1.2-0.4c-0.4-0.2-0.5-0.7-0.5-1.3l6.1-73.6c0.1-1.1,0.2-1.9,0.4-2.3c0.2-0.4,0.5-0.7,1.1-0.8
			c3-0.6,6.2-1.2,9.4-1.8c3.2-0.6,6.4-1.4,9.4-2.4c0.3,0,0.4,0,0.5,0.1c0,0.1,0.1,0.2,0.1,0.4c0,0.1,0,0.2,0,0.3
			c0,0.1-0.1,0.4-0.2,0.9c-0.1,0.5-0.2,1.2-0.4,2.1C1089.6,214.2,1089.4,215.6,1089.1,217.3z M1088.1,232c-0.2,3.2-0.4,5.8-0.5,7.8
			c-0.2,2-0.3,3.6-0.4,4.9c-0.1,1.3-0.2,2.2-0.3,3c-0.1,0.7-0.1,1.4-0.2,2c0.8,2,1.9,3.6,3.4,4.9c1.5,1.3,3.3,1.9,5.4,1.9
			c1.8,0,3.5-0.6,4.9-1.7c1.4-1.2,2.5-2.7,3.5-4.5c0.9-1.8,1.6-3.9,2.1-6.2c0.5-2.3,0.7-4.5,0.7-6.8c0-1.8-0.2-3.6-0.5-5.1
			c-0.3-1.6-0.8-2.9-1.4-4.1c-0.6-1.2-1.4-2.1-2.4-2.7c-1-0.7-2.1-1-3.4-1c-1.1,0-2.1,0.2-3.2,0.6c-1.1,0.4-2.1,1-3,1.6
			c-1,0.7-1.9,1.4-2.6,2.2c-0.8,0.8-1.4,1.6-1.9,2.4L1088.1,232z"/>
		<path class="st0" d="M1133,224.6c0.4-4.6,0.7-9.1,1-13.6c0.3-4.5,0.5-9.1,0.8-13.8c0.1-1.1,0.2-1.9,0.3-2.3
			c0.2-0.4,0.5-0.7,1.1-0.8c3.1-0.6,6.2-1.1,9.4-1.7c3.1-0.6,6.3-1.4,9.4-2.3c0.1,0,0.3-0.1,0.5-0.1c0.4,0,0.6,0.2,0.6,0.5
			l-6.5,71.8v0.9c0,0.3-0.1,0.5-0.4,0.7c-0.2,0.2-0.8,0.4-1.7,0.6l-13.2,4.8c-0.4,0.2-0.9,0.3-1.5,0.5c-0.6,0.2-1.2,0.3-1.8,0.3
			c-0.5,0-0.9-0.1-1.2-0.4c-0.4-0.2-0.5-0.6-0.5-1.2v-0.3c0.3-3.4,0.5-6.7,0.8-9.9c0.3-3.2,0.5-6.6,0.8-10c0.3-3.5,0.6-7.1,0.9-11
			C1132.2,233.4,1132.6,229.1,1133,224.6z"/>
		<path class="st0" d="M1188,211c3.2,0,6.1,0.6,8.7,1.8c2.6,1.2,4.8,2.7,6.7,4.6c1.9,1.9,3.3,4,4.3,6.4c1,2.3,1.5,4.7,1.5,7
			c0,2.1-0.6,4.2-1.9,6.3c-1.3,2.1-3.1,4-5.4,5.7c-2.3,1.7-5.1,3-8.3,4.1c-3.2,1-6.8,1.6-10.6,1.6c-2,0-4.1-0.2-6.3-0.6
			c0.1,1.4,0.6,2.7,1.3,3.7s1.6,1.9,2.7,2.6c1.1,0.7,2.3,1.2,3.6,1.5c1.4,0.3,2.8,0.5,4.2,0.5c1.6,0,3.2-0.1,4.7-0.4
			c1.5-0.3,2.9-0.7,4.3-1.1c1.4-0.5,2.7-1,4-1.6c1.3-0.6,2.5-1.1,3.6-1.7c0.3-0.1,0.6-0.1,0.8-0.2c0.2,0,0.4-0.1,0.6-0.1
			c0,1.1,0,2.1,0,3.1s0,2.1,0,3.5c0,1.4,0,2.9-0.1,4.6c0.1,0.2,0.2,0.3,0.2,0.5c0,0.2,0.1,0.3,0.1,0.4c0,0.4-0.4,0.8-1.1,1.3
			c-0.7,0.5-1.7,1-2.9,1.5c-1.2,0.5-2.5,1-4.1,1.5c-1.5,0.5-3.1,0.9-4.7,1.3s-3.1,0.7-4.6,0.9c-1.5,0.2-2.8,0.3-3.9,0.3
			c-3.6,0-7.1-0.6-10.5-1.9c-3.4-1.3-6.4-3.1-9.1-5.4s-4.7-5.2-6.3-8.5c-1.6-3.4-2.4-7.1-2.4-11.3c0-4.4,0.8-8.5,2.3-12.3
			c1.5-3.8,3.6-7.2,6.4-10c2.7-2.8,6-5.1,9.8-6.7C1179.2,211.8,1183.4,211,1188,211z M1187.4,224.4c-1.4,0-2.6,0.3-3.8,0.9
			c-1.2,0.6-2.2,1.4-3.2,2.5c-1,1.1-1.8,2.4-2.5,3.9c-0.7,1.5-1.3,3.2-1.7,5.1c3.5-0.6,6.3-1.2,8.6-1.9c2.3-0.7,4.1-1.3,5.5-2
			c1.4-0.7,2.3-1.4,2.9-2.1c0.6-0.7,0.9-1.3,0.9-2c0-0.6-0.2-1.2-0.7-1.7c-0.5-0.5-1-1-1.7-1.4c-0.7-0.4-1.4-0.7-2.2-0.9
			C1188.7,224.5,1188,224.4,1187.4,224.4z"/>
		<path class="st0" d="M580.2,346.4c0,0,0-0.1,0-0.1c0,0,0-0.1,0-0.1c0-0.6,0.3-0.9,0.9-0.9c0.3,0,0.6,0.2,1,0.5
			c1.8,1.7,3.8,3.1,6,4.1s4.6,1.5,7.2,1.5c0.7,0,1.5-0.1,2.4-0.2c0.9-0.2,1.8-0.4,2.6-0.8c0.8-0.4,1.5-0.8,2-1.4
			c0.6-0.6,0.8-1.3,0.8-2.2c0-1-0.2-1.8-0.7-2.6c-0.5-0.8-1.1-1.4-1.9-2c-0.3-0.2-0.8-0.5-1.4-1c-0.6-0.5-1.3-1-2.1-1.6
			c-0.8-0.6-1.6-1.2-2.4-1.9c-0.8-0.7-1.6-1.3-2.4-2c-0.8-0.6-1.4-1.2-2-1.7c-0.6-0.5-1.1-0.9-1.4-1.2c-2-1.5-3.5-3-4.7-4.5
			c-1.2-1.5-2-3.1-2.6-4.7s-1-3.3-1.2-5.1c-0.2-1.8-0.3-3.6-0.3-5.6c0-3,0.7-5.8,2.1-8.4s3.4-5,6-6.9c2.6-2,5.6-3.5,9.2-4.7
			c3.6-1.2,7.6-1.7,12-1.7c0.5,0,1.3,0.1,2.4,0.2c1.1,0.1,2.3,0.3,3.5,0.6c1.3,0.3,2.6,0.6,3.9,1.1c1.3,0.5,2.6,1.1,3.7,1.8
			c0.4,0.3,0.7,0.5,0.9,0.8c0.2,0.3,0.4,0.7,0.4,1.3c0.2,2.7,0.3,5.4,0.4,8c0.1,2.6,0.2,5.4,0.4,8.4c0,0.6-0.1,0.9-0.4,1.1
			c-0.2,0.2-0.5,0.3-0.9,0.3c-0.4,0-0.7-0.1-0.9-0.3c-1-1-2-1.9-3-2.9c-1-0.9-2.1-1.8-3.3-2.5c-1.1-0.7-2.4-1.3-3.6-1.7
			c-1.3-0.4-2.7-0.7-4.2-0.7c-0.9,0-1.8,0.1-2.7,0.2c-0.9,0.2-1.7,0.4-2.5,0.8c-0.7,0.4-1.3,1-1.8,1.7c-0.5,0.7-0.7,1.6-0.7,2.7
			c0,1.1,0.1,2.1,0.4,3c0.3,0.8,1,1.6,2.1,2.4l12.1,8.2c2.2,1.6,4,3.1,5.4,4.7c1.4,1.6,2.4,3.1,3.2,4.7c0.8,1.5,1.3,3.1,1.6,4.6
			c0.3,1.5,0.4,3,0.4,4.4c0,2.3-0.4,4.6-1.2,6.6c-0.8,2.1-1.8,4-3.2,5.8c-1.3,1.8-2.9,3.3-4.7,4.7c-1.8,1.4-3.7,2.6-5.8,3.6
			c-2,1-4.2,1.7-6.4,2.3c-2.2,0.5-4.4,0.8-6.5,0.8c-1.6,0-3.3,0-4.9-0.1c-1.6-0.1-3.1-0.2-4.7-0.4c-1.5-0.2-3-0.6-4.4-1
			c-1.4-0.5-2.7-1.1-4-1.9L580.2,346.4z"/>
		<path class="st0" d="M657.7,367.7c-4.7,0-8.9-0.8-12.4-2.3c-3.6-1.5-6.6-3.6-9-6.2c-2.4-2.6-4.2-5.5-5.4-8.9
			c-1.2-3.3-1.8-6.8-1.8-10.4s0.6-7,1.8-10.2c1.2-3.2,2.8-6.1,4.9-8.7c2.1-2.6,4.6-4.7,7.6-6.4c3-1.7,6.2-2.9,9.8-3.5
			c0.5,0,0.8-0.2,0.8-0.4c0-0.4,0-0.7-0.1-1c-0.1-0.3-0.1-0.6-0.1-0.8c0-0.4,0.1-0.6,0.2-0.8c0.1-0.1,0.3-0.2,0.5-0.2
			c6.4,0,11.9,0.7,16.3,2.2c4.5,1.5,8.1,3.4,11,6s4.9,5.5,6.1,8.9s1.9,7.1,1.9,11c0,5-0.8,9.5-2.5,13.4s-4,7.2-6.9,10
			c-2.9,2.7-6.3,4.8-10.2,6.2C666.3,367,662.1,367.7,657.7,367.7z M648.4,339.5c0,1.8,0.2,3.6,0.6,5.4c0.4,1.8,1,3.4,1.9,4.8
			c0.9,1.4,2.1,2.6,3.5,3.5c1.4,0.9,3.2,1.3,5.4,1.3c1.5-0.1,2.9-0.4,4-1c1.2-0.6,2.2-1.4,3-2.4s1.5-2.1,2.1-3.3
			c0.6-1.2,1-2.5,1.3-3.8c0.3-1.3,0.5-2.6,0.7-3.9c0.1-1.3,0.2-2.4,0.2-3.5c0-1.7-0.3-3.5-0.8-5.1c-0.5-1.7-1.3-3.2-2.3-4.4
			s-2.3-2.3-3.7-3.1c-1.5-0.8-3.2-1.2-5.2-1.2c-2,0-3.7,0.6-5.1,1.8c-1.4,1.2-2.5,2.7-3.3,4.4c-0.8,1.7-1.4,3.6-1.8,5.5
			C648.6,336.3,648.4,338,648.4,339.5z"/>
		<path class="st0" d="M728.6,309.5c0.1-0.3,0.4-0.5,0.8-0.5c0.1,0,0.1,0,0.2,0c0.1,0,0.1,0,0.2,0c2.5,1,5.1,1.8,7.7,2.4
			c2.6,0.6,5.3,1.2,7.9,1.8c0.6,0.1,1,0.5,1,1.1c0,0.4-0.2,1.1-0.6,2L725,360.4c-0.3,0.6-0.5,1.1-0.7,1.5c-0.2,0.4-0.4,0.7-0.6,0.9
			s-0.4,0.4-0.7,0.5c-0.2,0.1-0.5,0.2-0.9,0.3c-2.5,0.5-5.1,1.1-7.7,1.7c-2.6,0.7-5.3,1.5-8.1,2.4c-0.1,0-0.1,0-0.2,0
			c0,0-0.1,0-0.1,0h-0.4c-0.2,0-0.3-0.1-0.4-0.2c-0.1-0.1-0.2-0.2-0.2-0.3c-0.5-1.4-1.1-3.3-1.7-5.6c-0.7-2.3-1.4-4.8-2.1-7.6
			s-1.6-5.8-2.4-9c-0.8-3.2-1.7-6.4-2.6-9.7c-0.9-3.3-1.7-6.5-2.6-9.8c-0.9-3.2-1.7-6.3-2.5-9.2c-0.3-1-0.5-1.8-0.5-2.2
			c0-0.5,0.3-0.8,0.8-0.9c2.6-0.6,5.3-1.2,8.1-1.8s5.5-1.4,8-2.4c0.1,0,0.3-0.1,0.5-0.1c0.4,0,0.7,0.2,0.7,0.5l6.6,33.8
			c0.2-0.4,0.5-1.1,0.9-2.2c0.4-1.1,0.9-2.3,1.5-3.8c0.6-1.5,1.2-3.1,1.9-4.9c0.7-1.8,1.4-3.6,2.1-5.4c0.7-1.8,1.4-3.7,2.1-5.5
			s1.4-3.5,2-5.1c0.6-1.6,1.2-3,1.6-4.2C728,311,728.3,310.1,728.6,309.5z"/>
		<path class="st0" d="M774.2,309c3.2,0,6.1,0.6,8.7,1.8c2.6,1.2,4.8,2.7,6.7,4.6c1.9,1.9,3.3,4,4.3,6.4c1,2.3,1.5,4.7,1.5,7
			c0,2.1-0.6,4.2-1.9,6.3s-3.1,4-5.4,5.7c-2.3,1.7-5.1,3-8.3,4.1c-3.2,1-6.8,1.6-10.6,1.6c-2,0-4.1-0.2-6.3-0.6
			c0.1,1.4,0.6,2.7,1.3,3.7s1.6,1.9,2.7,2.6c1.1,0.7,2.3,1.2,3.6,1.5c1.4,0.3,2.8,0.5,4.2,0.5c1.6,0,3.2-0.1,4.7-0.4
			s2.9-0.7,4.3-1.1c1.4-0.5,2.7-1,4-1.6c1.3-0.6,2.5-1.1,3.6-1.7c0.3-0.1,0.6-0.1,0.8-0.2c0.2,0,0.4-0.1,0.6-0.1c0,1.1,0,2.1,0,3.1
			c0,1,0,2.1,0,3.5c0,1.4,0,2.9-0.1,4.6c0.1,0.2,0.2,0.3,0.2,0.5c0,0.2,0.1,0.3,0.1,0.4c0,0.4-0.4,0.8-1.1,1.3
			c-0.7,0.5-1.7,1-2.9,1.5c-1.2,0.5-2.5,1-4.1,1.5s-3.1,0.9-4.7,1.3s-3.1,0.7-4.6,0.9c-1.5,0.2-2.8,0.3-3.9,0.3
			c-3.6,0-7.1-0.6-10.5-1.9c-3.4-1.3-6.4-3.1-9.1-5.4c-2.6-2.3-4.7-5.2-6.3-8.5c-1.6-3.4-2.4-7.1-2.4-11.3c0-4.4,0.8-8.5,2.3-12.3
			s3.6-7.2,6.4-10c2.7-2.8,6-5.1,9.8-6.7S769.6,309,774.2,309z M773.6,322.4c-1.4,0-2.6,0.3-3.8,0.9c-1.2,0.6-2.2,1.4-3.2,2.5
			c-1,1.1-1.8,2.4-2.5,3.9c-0.7,1.5-1.3,3.2-1.7,5.1c3.5-0.6,6.3-1.2,8.6-1.9c2.3-0.7,4.1-1.3,5.5-2c1.4-0.7,2.3-1.4,2.9-2.1
			c0.6-0.7,0.9-1.3,0.9-2c0-0.6-0.2-1.2-0.7-1.7c-0.5-0.5-1-1-1.7-1.4c-0.7-0.4-1.4-0.7-2.2-0.9C775,322.5,774.2,322.4,773.6,322.4z
			"/>
		<path class="st0" d="M839.7,324.2c-0.7-0.1-1.5-0.1-2.4-0.2c-0.9-0.1-1.8-0.1-2.8-0.1c-1.5,0-3,0.1-4.5,0.4
			c-1.5,0.3-2.9,0.7-4.3,1.5c-1.3,0.7-2.4,1.8-3.4,3s-1.5,3-1.8,5c-0.2,2.5-0.4,4.5-0.6,6.1c-0.2,1.6-0.3,2.9-0.3,3.9
			c-0.1,1-0.1,1.8-0.2,2.5c0,0.6-0.1,1.2-0.1,1.7c0,0.1,0,0.5-0.1,1.1c0,0.6-0.1,1.3-0.2,2.1c-0.1,0.8-0.2,1.7-0.3,2.6
			c-0.1,0.9-0.2,1.8-0.3,2.6s-0.2,1.5-0.2,2.1c0,0.6-0.1,1-0.1,1.1c0,0.3,0,0.5,0,0.7c0,0.2,0,0.4,0,0.5c0,0.3-0.1,0.5-0.4,0.7
			c-0.3,0.2-0.8,0.4-1.7,0.6l-13.3,4.8c-0.4,0.1-0.9,0.3-1.5,0.5s-1.2,0.3-1.8,0.3c-0.5,0-0.9-0.1-1.2-0.4c-0.4-0.2-0.5-0.6-0.5-1.2
			l4.3-49.8c0.1-1.1,0.2-1.9,0.4-2.3c0.2-0.4,0.5-0.7,1.1-0.8c3.1-0.6,6.2-1.2,9.5-1.8c3.3-0.6,6.4-1.4,9.5-2.4c0.3,0,0.4,0,0.5,0.1
			c0.1,0.1,0.1,0.2,0.1,0.4c0,0.1,0,0.2,0,0.3c0,0.1-0.1,0.4-0.2,0.9c-0.1,0.5-0.2,1.2-0.4,2.1c-0.2,1-0.4,2.3-0.6,4
			c1.5-1.2,3.2-2.3,5.1-3.3c1.9-1,3.7-1.9,5.6-2.6c1.9-0.7,3.7-1.3,5.4-1.7c1.7-0.4,3.3-0.6,4.6-0.6L839.7,324.2z"/>
		<path class="st0" d="M869.9,309c3.2,0,6.1,0.6,8.7,1.8c2.6,1.2,4.8,2.7,6.7,4.6c1.9,1.9,3.3,4,4.3,6.4c1,2.3,1.5,4.7,1.5,7
			c0,2.1-0.6,4.2-1.9,6.3s-3.1,4-5.4,5.7c-2.3,1.7-5.1,3-8.3,4.1c-3.2,1-6.8,1.6-10.6,1.6c-2,0-4.1-0.2-6.3-0.6
			c0.1,1.4,0.6,2.7,1.3,3.7s1.6,1.9,2.7,2.6c1.1,0.7,2.3,1.2,3.6,1.5c1.4,0.3,2.8,0.5,4.2,0.5c1.6,0,3.2-0.1,4.7-0.4
			s2.9-0.7,4.3-1.1c1.4-0.5,2.7-1,4-1.6c1.3-0.6,2.5-1.1,3.6-1.7c0.3-0.1,0.6-0.1,0.8-0.2c0.2,0,0.4-0.1,0.6-0.1c0,1.1,0,2.1,0,3.1
			c0,1,0,2.1,0,3.5c0,1.4,0,2.9-0.1,4.6c0.1,0.2,0.2,0.3,0.2,0.5c0,0.2,0.1,0.3,0.1,0.4c0,0.4-0.4,0.8-1.1,1.3
			c-0.7,0.5-1.7,1-2.9,1.5c-1.2,0.5-2.5,1-4.1,1.5s-3.1,0.9-4.7,1.3s-3.1,0.7-4.6,0.9c-1.5,0.2-2.8,0.3-3.9,0.3
			c-3.6,0-7.1-0.6-10.5-1.9c-3.4-1.3-6.4-3.1-9.1-5.4c-2.6-2.3-4.7-5.2-6.3-8.5c-1.6-3.4-2.4-7.1-2.4-11.3c0-4.4,0.8-8.5,2.3-12.3
			s3.6-7.2,6.4-10c2.7-2.8,6-5.1,9.8-6.7S865.3,309,869.9,309z M869.3,322.4c-1.4,0-2.6,0.3-3.8,0.9c-1.2,0.6-2.2,1.4-3.2,2.5
			c-1,1.1-1.8,2.4-2.5,3.9c-0.7,1.5-1.3,3.2-1.7,5.1c3.5-0.6,6.3-1.2,8.6-1.9c2.3-0.7,4.1-1.3,5.5-2c1.4-0.7,2.3-1.4,2.9-2.1
			c0.6-0.7,0.9-1.3,0.9-2c0-0.6-0.2-1.2-0.7-1.7c-0.5-0.5-1-1-1.7-1.4c-0.7-0.4-1.4-0.7-2.2-0.9
			C870.6,322.5,869.9,322.4,869.3,322.4z"/>
		<path class="st0" d="M895.6,343.8c0.4-4.6,0.9-9.1,1.3-13.6c0.4-4.5,0.8-9.1,1.2-13.8c0.1-1.1,0.2-1.9,0.3-2.3
			c0.2-0.4,0.5-0.7,1.1-0.8c2.8-0.6,5.8-1.2,9-1.8s6.1-1.4,9.1-2.4c0.1,0,0.3-0.1,0.5-0.1c0.4,0,0.6,0.1,0.6,0.4l-4.5,49
			c-0.1,1.1-0.2,1.9-0.4,2.3c-0.1,0.4-0.5,0.7-1.1,0.8c-2.8,0.9-5.7,1.8-8.7,2.9c-2.9,1.1-6,2.2-9.3,3.3c-0.1,0-0.3,0.1-0.5,0.1
			c-0.4,0-0.6-0.2-0.6-0.5c0,0,0-0.5,0.1-1.4c0.1-0.9,0.2-2,0.3-3.4c0.1-1.4,0.2-2.9,0.4-4.6c0.1-1.7,0.3-3.4,0.4-5.1
			c0.2-1.7,0.3-3.4,0.4-4.9C895.3,346.2,895.5,344.9,895.6,343.8z M899.3,303.6c0.1-1.4,0.2-2.5,0.2-3.3c0.1-0.8,0.1-1.3,0.1-1.7
			c0-0.4,0.1-0.6,0.1-0.7c0-0.1,0-0.2,0-0.2c0-0.1,0-0.2,0.1-0.3c0-0.2,0-0.5,0.1-1c0-0.5,0.1-1.2,0.2-2.1c0.1-0.9,0.2-2.2,0.3-3.9
			c0.1-1.1,0.2-1.9,0.3-2.3c0.2-0.4,0.5-0.7,1.1-0.8c2.8-0.6,5.8-1.2,9-1.8s6.1-1.4,9.1-2.4c0.1,0,0.3-0.1,0.5-0.1
			c0.1,0.2,0.2,0.3,0.4,0.4l0.2,0.1l-1.1,13.8c-0.1,1.1-0.2,1.9-0.4,2.3c-0.2,0.4-0.5,0.7-1.1,0.8c-2.9,0.5-5.7,1.1-8.7,1.8
			c-2.9,0.6-6,1.3-9.3,1.9c-0.1,0-0.3,0.1-0.5,0.1C899.5,304.1,899.3,304,899.3,303.6z"/>
		<path class="st0" d="M975.2,359.6c-0.3,3.3-1.1,6.4-2.3,9.3c-1.2,2.9-2.7,5.5-4.5,7.9c-1.8,2.4-3.8,4.5-6.1,6.4
			c-2.3,1.9-4.7,3.5-7.3,4.8c-2.6,1.3-5.2,2.3-7.9,3c-2.7,0.7-5.4,1-8,1c-1.4,0-2.9-0.1-4.3-0.2c-1.5-0.1-2.9-0.3-4.3-0.6
			c-1.4-0.3-2.8-0.7-4-1.2c-1.3-0.5-2.4-1.2-3.4-2v0c0-0.2,0.1-0.8,0.4-1.8c0.3-1,0.6-2.2,0.9-3.5c0.4-1.4,0.7-2.8,1.1-4.2
			c0.4-1.4,0.7-2.7,1-3.7c0.1-0.5,0.3-0.8,0.4-1c0.1-0.2,0.3-0.3,0.5-0.3c0.2,0,0.3,0,0.4,0.1c1,0.6,1.9,1.2,2.7,1.6
			c0.9,0.4,1.8,0.8,2.7,1c1,0.3,2,0.4,3.1,0.5c1.1,0.1,2.5,0.2,4,0.2c2.3,0,4.4-0.5,6.2-1.4s3.4-2.1,4.7-3.5c1.3-1.4,2.4-3,3.1-4.8
			c0.8-1.7,1.3-3.4,1.6-5.1c-2.4,1.6-4.9,2.9-7.3,3.9c-2.5,1-5,1.5-7.5,1.5c-3.5,0-6.4-0.7-9-2.1c-2.5-1.4-4.6-3.3-6.2-5.6
			c-1.6-2.3-2.9-5-3.6-8.1s-1.2-6.2-1.2-9.5c0-2.6,0.2-5.3,0.7-7.9c0.5-2.7,1.2-5.2,2.2-7.7c1-2.5,2.1-4.8,3.5-7
			c1.4-2.2,3-4,4.9-5.7s3.9-2.9,6.1-3.8c2.2-0.9,4.7-1.4,7.3-1.4c2.9,0,5.6,0.6,8,1.9c2.5,1.3,4.7,2.9,6.7,4.7
			c0.1-0.6,0.1-1.1,0.2-1.4c0-0.4,0.1-0.6,0.3-0.8c0.1-0.2,0.4-0.4,0.7-0.5s0.8-0.2,1.4-0.4c0.4-0.1,1-0.2,2-0.4
			c1-0.2,2.1-0.5,3.5-0.8c1.3-0.3,2.8-0.6,4.4-1c1.6-0.3,3.2-0.7,4.9-1.1c0.4-0.1,0.8-0.2,1.1-0.2c1,0,1.6,0.7,1.6,2
			c0,0.2,0,0.3,0,0.5c0,0.2,0,0.3-0.1,0.5L975.2,359.6z M958.6,329.2c-0.3-0.8-0.8-1.6-1.4-2.4s-1.3-1.5-2-2.2
			c-0.8-0.7-1.6-1.2-2.5-1.6c-0.9-0.4-1.9-0.6-2.9-0.6c-1.4,0-2.7,0.6-3.9,1.7s-2.3,2.7-3.2,4.6c-0.9,1.9-1.6,4.1-2.1,6.5
			s-0.8,5-0.8,7.6c0,1.6,0.1,3.1,0.4,4.6c0.3,1.4,0.7,2.7,1.3,3.7c0.6,1.1,1.4,1.9,2.3,2.6c1,0.6,2.1,1,3.4,1c2,0,3.9-0.6,5.5-1.9
			c1.7-1.3,3.1-2.9,4.3-4.9c0-0.7,0.1-1.5,0.2-2.5c0.1-1,0.2-2.2,0.3-3.5c0.1-1.4,0.2-3,0.4-4.9c0.2-1.9,0.3-4.1,0.6-6.8
			L958.6,329.2z"/>
		<path class="st0" d="M1025.7,366.9c-0.4,0.1-0.9,0.3-1.5,0.5c-0.6,0.2-1.2,0.3-1.8,0.3c-0.5,0-0.9-0.1-1.2-0.4
			c-0.4-0.2-0.5-0.6-0.5-1.2v-0.3c0.2-1.8,0.4-3.3,0.5-4.6c0.1-1.3,0.3-2.4,0.4-3.4c0.1-1,0.2-2,0.3-3.1c0.1-1,0.2-2.2,0.3-3.6
			c0.1-1.4,0.3-3,0.5-4.8c0.2-1.9,0.4-4.2,0.7-7c0.2-1.7,0.3-3.5,0.5-5.2c0.1-1.8,0.2-3.4,0.2-4.9c0-1-0.1-1.9-0.2-2.8
			c-0.2-0.9-0.4-1.6-0.8-2.2c-0.4-0.6-0.9-1.1-1.6-1.4c-0.7-0.3-1.5-0.5-2.6-0.5c-0.8,0-1.8,0.2-3.2,0.5c-1.4,0.3-2.7,0.9-4,1.7
			c-1.3,0.8-2.5,1.8-3.6,3c-1,1.3-1.6,2.8-1.8,4.7c-0.2,2.5-0.4,4.6-0.6,6.4c-0.2,1.8-0.3,3.3-0.5,4.5c-0.1,1.2-0.2,2.2-0.3,3
			c-0.1,0.8-0.1,1.4-0.2,2c0,0.1-0.1,0.5-0.2,1.1s-0.1,1.3-0.2,2.2c-0.1,0.8-0.2,1.7-0.3,2.7s-0.2,1.8-0.3,2.7
			c-0.1,0.8-0.2,1.6-0.2,2.2c-0.1,0.6-0.1,1-0.1,1.1c0,0.3,0,0.5,0,0.7s0,0.4,0,0.5c0,0.3-0.1,0.5-0.4,0.7c-0.3,0.2-0.8,0.4-1.7,0.6
			l-13.3,4.6c-0.4,0.1-0.9,0.3-1.5,0.5s-1.2,0.3-1.8,0.3c-0.5,0-0.9-0.1-1.2-0.4c-0.4-0.2-0.5-0.6-0.5-1.2l4.6-51.4
			c0.1-1.1,0.2-1.9,0.4-2.3c0.2-0.4,0.5-0.7,1.1-0.8c3.1-0.6,6.2-1.2,9.4-1.8s6.4-1.4,9.4-2.4c0.3,0,0.4,0,0.5,0.1
			c0.1,0.1,0.1,0.2,0.1,0.4c0,0.1,0,0.2,0,0.3c0,0.1-0.1,0.4-0.2,0.9c-0.1,0.5-0.2,1.2-0.4,2.1c-0.2,1-0.4,2.3-0.6,4
			c2.3-1.3,4.5-2.4,6.5-3.2s3.9-1.5,5.7-1.9c1.8-0.5,3.5-0.8,5.1-0.9c1.6-0.2,3.1-0.2,4.4-0.2c4.7,0,8.2,1.4,10.3,4.3
			c2.1,2.9,3.2,7.2,3.2,12.9c0,0.8,0,1.6,0,2.5c0,0.9-0.1,1.7-0.2,2.6l-2.3,21.6c-0.2,1.4-0.3,2.7-0.3,3.9c0,1.2,0,2.6,0,4.1
			c0,0.3,0,0.5,0,0.7c0,0.2,0,0.3,0,0.5c0,0.3-0.1,0.5-0.4,0.7c-0.3,0.2-0.8,0.4-1.7,0.7L1025.7,366.9z"/>
		<path class="st0" d="M1074.5,326.3c-0.5,3.5-0.9,7-1.3,10.5c-0.4,3.5-0.7,6.8-0.8,9.8c0,1.3,0.1,2.4,0.3,3.3
			c0.2,0.9,0.5,1.6,0.9,2.1c0.4,0.5,0.8,0.9,1.4,1.1c0.5,0.2,1.1,0.3,1.8,0.3c1.1,0,2.2-0.2,3.5-0.5c1.3-0.3,2.5-0.7,3.8-1.2
			c0.4-0.2,0.7-0.3,1-0.4c0.3-0.1,0.5-0.1,0.7-0.1c0.3,0,0.6,0.2,0.7,0.5c0.1,0.3,0.2,0.8,0.4,1.6c0.1,0.8,0.3,1.8,0.5,3
			c0.2,1.3,0.6,2.9,1.2,4.8c0,0.2,0.1,0.3,0.1,0.4c0,0.1,0,0.2,0,0.3c0,0.5-0.2,0.8-0.5,1c-0.4,0.2-0.9,0.4-1.7,0.7
			c-1.4,0.5-2.8,0.9-4.4,1.4c-1.5,0.5-3,0.9-4.5,1.3s-2.9,0.7-4.3,1c-1.4,0.3-2.6,0.4-3.6,0.4c-5.6,0-9.7-1.4-12.2-4.2
			c-2.6-2.8-3.8-7-3.8-12.7c0-1,0-2,0.1-3c0.1-1,0.2-2.1,0.3-3.2c0.3-3.4,0.6-6.5,0.9-9.5c0.3-3,0.5-5.9,0.8-8.6h-5.3
			c-1.8,0-3.1-0.1-3.9-0.2c-0.8-0.2-1.2-0.5-1.2-0.9c0-0.1,0.2-0.5,0.5-1.1c0.3-0.6,0.8-1.3,1.3-2.1c0.5-0.8,1.1-1.7,1.7-2.6
			s1.2-1.8,1.7-2.6c0.6-0.8,1-1.5,1.4-2.1s0.7-1,0.8-1.1h3.6c0.3-2.5,0.5-4.7,0.7-6.4s0.3-3.2,0.5-4.3c0.1-1.1,0.2-2,0.3-2.6
			c0.1-0.6,0.2-1.1,0.3-1.4c0.1-0.3,0.3-0.5,0.5-0.6c0.2-0.1,0.4-0.2,0.7-0.2c1.5-0.3,3-0.6,4.4-0.8c1.4-0.3,2.8-0.5,4.2-0.8
			c1.4-0.3,2.8-0.6,4.3-0.9c1.5-0.4,3-0.8,4.6-1.2c0.1,0,0.2,0,0.2,0c0,0,0.1,0,0.2,0c0.4,0,0.6,0.1,0.6,0.4v0.1
			c-0.2,1.8-0.4,4.4-0.8,7.7c-0.4,3.3-0.7,7-1.2,11.2h13.5c0.3,0,0.5,0.1,0.8,0.3c0.3,0.2,0.4,0.5,0.4,0.9c0,0.2-0.2,0.8-0.6,1.8
			c-0.4,1-1,2.4-1.7,4.1l-1.8,4.1c-0.2,0.5-0.5,0.9-0.7,1.1c-0.3,0.2-0.8,0.4-1.5,0.5H1074.5z"/>
		<path class="st0" d="M1112.7,388c-0.1,0.1-0.1,0.2-0.2,0.3c-0.1,0.1-0.2,0.1-0.4,0.1s-0.4,0-0.5-0.1c-1.2-0.4-2.3-0.8-3.4-1.1
			c-1.1-0.3-2.1-0.6-3.2-0.8c-1.1-0.3-2.1-0.5-3.2-0.7s-2.3-0.5-3.5-0.7c-0.3-0.1-0.6-0.2-0.8-0.3c-0.2-0.2-0.3-0.4-0.3-0.8
			c0-0.1,0.1-0.3,0.2-0.7c0.1-0.4,0.4-1.2,0.9-2.4c0.5-1.2,1.2-2.9,2.2-5.2c1-2.3,2.3-5.3,4-9.1c-0.5-1.7-1.1-3.7-1.7-6
			s-1.3-4.9-2-7.7c-0.7-2.8-1.5-5.7-2.2-8.8c-0.8-3.1-1.6-6.2-2.3-9.4c-0.8-3.2-1.6-6.3-2.4-9.4c-0.8-3.1-1.6-6.1-2.3-8.9
			c-0.2-0.5-0.4-1-0.4-1.3c0-0.4,0-0.6,0-0.9c0-0.5,0.3-0.8,0.8-0.9c2.6-0.6,5.3-1.2,8.1-1.8s5.5-1.4,8-2.4c0.1,0,0.3-0.1,0.5-0.1
			c0.4,0,0.7,0.2,0.7,0.5l6.1,33.8c0.1-0.4,0.4-1.1,0.8-2.2c0.4-1.1,0.8-2.3,1.4-3.8c0.5-1.5,1.1-3.1,1.7-4.9c0.6-1.8,1.3-3.6,2-5.4
			c0.7-1.8,1.3-3.7,2-5.5c0.7-1.8,1.3-3.5,1.8-5.1c0.6-1.6,1.1-3,1.5-4.2s0.7-2.1,1-2.7c0.1-0.3,0.4-0.5,0.8-0.5c0.1,0,0.2,0,0.2,0
			c0,0,0.1,0,0.2,0c2.5,1,5.1,1.8,7.7,2.4c2.6,0.6,5.3,1.2,7.9,1.8c0.6,0.1,1,0.5,1,1.1c0,0.4-0.2,1.1-0.6,2l-20.7,46.8L1112.7,388z
			"/>
		<path class="st0" d="M1164.1,331.1c0-3.7,0.4-7.2,1.3-10.6c0.9-3.4,2.2-6.6,3.8-9.5c1.6-2.9,3.6-5.6,6-8c2.3-2.4,4.9-4.5,7.8-6.2
			c2.9-1.7,6-3.1,9.4-4c3.4-0.9,6.9-1.4,10.6-1.4c3,0,5.5,0.2,7.8,0.6c2.2,0.4,4.2,0.9,5.8,1.5c1.7,0.6,3.1,1.2,4.2,1.9
			c1.1,0.7,2.1,1.4,2.8,2c0,0-0.1,0.1-0.1,0.4c0,0.5,0,1.4,0.1,2.8c0.1,1.3,0.2,2.8,0.3,4.5c0.1,1.6,0.2,3.3,0.3,5
			c0.1,1.7,0.1,3.2,0.1,4.4c0,0.2-0.1,0.4-0.2,0.7c-0.1,0.3-0.5,0.4-1,0.4c-0.3,0-0.7,0-1.1-0.2c-0.7-0.2-1.6-0.7-2.7-1.4
			c-1.1-0.7-2.3-1.5-3.7-2.3s-3-1.5-4.8-2.1c-1.8-0.6-3.7-0.9-5.8-0.9c-2.8,0-5.2,0.5-7.5,1.6c-2.2,1.1-4.2,2.6-5.7,4.5
			s-2.8,4.2-3.7,6.8c-0.9,2.6-1.3,5.5-1.3,8.6c0,2.8,0.3,5.4,0.9,7.9c0.6,2.5,1.5,4.7,2.7,6.6c1.2,1.9,2.7,3.4,4.6,4.5
			c1.8,1.1,3.9,1.7,6.4,1.7c1.9,0,3.6-0.1,5.1-0.2s2.8-0.4,4.1-0.7c1.3-0.3,2.5-0.7,3.7-1.2s2.5-1.1,3.9-1.9c0.1,0,0.2,0,0.5,0
			c0.2,0,0.4,0.1,0.5,0.3s0.1,0.6,0.1,1.1v6c0,1.1,0,2.2,0,3.2c0,1.1,0,2,0,2.8c0,0.8,0,1.5-0.1,2s0,0.8-0.1,0.8
			c-1.5,1-3.2,1.8-5,2.4c-1.8,0.6-3.6,1.1-5.4,1.5c-1.9,0.4-3.7,0.6-5.6,0.7c-1.9,0.1-3.7,0.2-5.4,0.2c-4.7,0-9.2-0.9-13.3-2.7
			c-4.1-1.8-7.7-4.3-10.7-7.5c-3-3.2-5.4-7.1-7.2-11.6C1165,341.4,1164.1,336.5,1164.1,331.1z"/>
		<path class="st0" d="M1251.4,367.7c-4.7,0-8.9-0.8-12.4-2.3c-3.6-1.5-6.6-3.6-9-6.2c-2.4-2.6-4.2-5.5-5.4-8.9
			c-1.2-3.3-1.8-6.8-1.8-10.4s0.6-7,1.8-10.2c1.2-3.2,2.8-6.1,4.9-8.7c2.1-2.6,4.6-4.7,7.6-6.4c3-1.7,6.2-2.9,9.8-3.5
			c0.5,0,0.8-0.2,0.8-0.4c0-0.4,0-0.7-0.1-1c-0.1-0.3-0.1-0.6-0.1-0.8c0-0.4,0.1-0.6,0.2-0.8c0.1-0.1,0.3-0.2,0.5-0.2
			c6.4,0,11.9,0.7,16.3,2.2c4.5,1.5,8.1,3.4,11,6s4.9,5.5,6.1,8.9s1.9,7.1,1.9,11c0,5-0.8,9.5-2.5,13.4s-4,7.2-6.9,10
			c-2.9,2.7-6.3,4.8-10.2,6.2C1259.9,367,1255.8,367.7,1251.4,367.7z M1242.1,339.5c0,1.8,0.2,3.6,0.6,5.4c0.4,1.8,1,3.4,1.9,4.8
			c0.9,1.4,2.1,2.6,3.5,3.5c1.4,0.9,3.2,1.3,5.4,1.3c1.5-0.1,2.9-0.4,4-1c1.2-0.6,2.2-1.4,3-2.4s1.5-2.1,2.1-3.3
			c0.6-1.2,1-2.5,1.3-3.8c0.3-1.3,0.5-2.6,0.7-3.9c0.1-1.3,0.2-2.4,0.2-3.5c0-1.7-0.3-3.5-0.8-5.1c-0.5-1.7-1.3-3.2-2.3-4.4
			s-2.3-2.3-3.7-3.1c-1.5-0.8-3.2-1.2-5.2-1.2c-2,0-3.7,0.6-5.1,1.8c-1.4,1.2-2.5,2.7-3.3,4.4c-0.8,1.7-1.4,3.6-1.8,5.5
			C1242.2,336.3,1242.1,338,1242.1,339.5z"/>
		<path class="st0" d="M1338,355c0,0.1-0.1,0.3-0.1,0.4s0,0.2,0,0.3c0,0.8,0.1,1.5,0.4,2.1c0.3,0.6,0.6,1,0.9,1.4
			c0.3,0.4,0.6,0.6,0.9,0.9s0.4,0.4,0.4,0.6c0,0.5-0.5,0.9-1.5,1.3l-13.5,5.8c0,0-0.2,0.1-0.4,0.1c-0.3,0-0.5-0.2-0.8-0.7
			c-0.3-0.5-0.5-1.1-0.8-1.8c-0.3-0.7-0.5-1.5-0.7-2.3s-0.4-1.6-0.6-2.3c-2.1,2.4-4.4,4.2-6.8,5.4c-2.4,1.1-4.9,1.7-7.3,1.7
			c-2.8,0-5.6-0.6-8.2-1.9c-2.7-1.2-5.1-3-7.1-5.3c-2.1-2.3-3.7-5.1-5-8.3c-1.3-3.3-1.9-6.9-1.9-11c0-4.8,0.7-9.2,2.1-13.1
			s3.3-7.4,5.7-10.2c2.4-2.8,5.2-5.1,8.3-6.6c3.2-1.6,6.5-2.3,10.1-2.3c2.5,0,4.9,0.5,7.1,1.5c2.2,1,4.4,2.3,6.4,3.9
			c0.2-1,0.3-1.8,0.4-2.4c0-0.6,0.1-1.1,0.2-1.4c0.1-0.3,0.3-0.6,0.7-0.7c0.3-0.1,0.9-0.2,1.7-0.3c2.4-0.3,4.8-0.6,7.2-0.9
			c2.4-0.3,4.9-0.5,7.5-0.6L1338,355z M1323,336c0.3-1.9,0.6-3.7,0.7-5.4s0.2-3.2,0.3-4.7c-0.5-0.4-1.1-0.8-1.7-1.3
			c-0.6-0.4-1.3-0.8-2-1.2c-0.7-0.4-1.5-0.7-2.3-0.9c-0.8-0.2-1.6-0.4-2.5-0.4c-1.8,0-3.3,0.6-4.6,1.8c-1.2,1.2-2.2,2.6-3,4.3
			c-0.8,1.7-1.3,3.5-1.6,5.4c-0.3,1.9-0.5,3.6-0.5,5.1c0,5.3,0.7,9.2,2.1,11.6c1.4,2.5,3.3,3.7,5.8,3.7c1,0,2.1-0.3,3.4-0.9
			c1.2-0.6,2.5-1.4,3.8-2.4L1323,336z"/>
		<path class="st0" d="M1349.8,322.6c0.4-4.6,0.7-9.1,1-13.6c0.3-4.5,0.5-9.1,0.8-13.8c0.1-1.1,0.2-1.9,0.3-2.3
			c0.2-0.4,0.5-0.7,1.1-0.8c3.1-0.6,6.2-1.1,9.4-1.7c3.1-0.6,6.3-1.4,9.4-2.3c0.1,0,0.3-0.1,0.5-0.1c0.4,0,0.6,0.2,0.6,0.5
			l-6.5,71.8v0.9c0,0.3-0.1,0.5-0.4,0.7c-0.2,0.2-0.8,0.4-1.7,0.6l-13.2,4.8c-0.4,0.2-0.9,0.3-1.5,0.5c-0.6,0.2-1.2,0.3-1.8,0.3
			c-0.5,0-0.9-0.1-1.2-0.4c-0.4-0.2-0.5-0.6-0.5-1.2v-0.3c0.3-3.4,0.5-6.7,0.8-9.9c0.3-3.2,0.5-6.6,0.8-10c0.3-3.5,0.6-7.1,0.9-11
			C1349,331.4,1349.4,327.1,1349.8,322.6z"/>
		<path class="st0" d="M1375.8,343.8c0.4-4.6,0.9-9.1,1.3-13.6c0.4-4.5,0.8-9.1,1.2-13.8c0.1-1.1,0.2-1.9,0.3-2.3
			c0.2-0.4,0.5-0.7,1.1-0.8c2.8-0.6,5.8-1.2,9-1.8s6.1-1.4,9.1-2.4c0.1,0,0.3-0.1,0.5-0.1c0.4,0,0.6,0.1,0.6,0.4l-4.5,49
			c-0.1,1.1-0.2,1.9-0.4,2.3c-0.1,0.4-0.5,0.7-1.1,0.8c-2.8,0.9-5.7,1.8-8.7,2.9c-2.9,1.1-6,2.2-9.3,3.3c-0.1,0-0.3,0.1-0.5,0.1
			c-0.4,0-0.6-0.2-0.6-0.5c0,0,0-0.5,0.1-1.4c0.1-0.9,0.2-2,0.3-3.4c0.1-1.4,0.2-2.9,0.4-4.6c0.1-1.7,0.3-3.4,0.4-5.1
			c0.2-1.7,0.3-3.4,0.4-4.9C1375.6,346.2,1375.7,344.9,1375.8,343.8z M1379.6,303.6c0.1-1.4,0.2-2.5,0.2-3.3
			c0.1-0.8,0.1-1.3,0.1-1.7c0-0.4,0.1-0.6,0.1-0.7c0-0.1,0-0.2,0-0.2c0-0.1,0-0.2,0.1-0.3c0-0.2,0-0.5,0.1-1c0-0.5,0.1-1.2,0.2-2.1
			c0.1-0.9,0.2-2.2,0.3-3.9c0.1-1.1,0.2-1.9,0.3-2.3c0.2-0.4,0.5-0.7,1.1-0.8c2.8-0.6,5.8-1.2,9-1.8s6.1-1.4,9.1-2.4
			c0.1,0,0.3-0.1,0.5-0.1c0.1,0.2,0.2,0.3,0.4,0.4l0.2,0.1l-1.1,13.8c-0.1,1.1-0.2,1.9-0.4,2.3c-0.2,0.4-0.5,0.7-1.1,0.8
			c-2.9,0.5-5.7,1.1-8.7,1.8c-2.9,0.6-6,1.3-9.3,1.9c-0.1,0-0.3,0.1-0.5,0.1C1379.8,304.1,1379.6,304,1379.6,303.6z"/>
		<path class="st0" d="M1429.3,326.3c-0.5,3.5-0.9,7-1.3,10.5c-0.4,3.5-0.7,6.8-0.8,9.8c0,1.3,0.1,2.4,0.3,3.3
			c0.2,0.9,0.5,1.6,0.9,2.1c0.4,0.5,0.8,0.9,1.4,1.1c0.5,0.2,1.1,0.3,1.8,0.3c1.1,0,2.2-0.2,3.5-0.5c1.3-0.3,2.5-0.7,3.8-1.2
			c0.4-0.2,0.7-0.3,1-0.4c0.3-0.1,0.5-0.1,0.7-0.1c0.3,0,0.6,0.2,0.7,0.5c0.1,0.3,0.2,0.8,0.4,1.6c0.1,0.8,0.3,1.8,0.5,3
			c0.2,1.3,0.6,2.9,1.2,4.8c0,0.2,0.1,0.3,0.1,0.4c0,0.1,0,0.2,0,0.3c0,0.5-0.2,0.8-0.5,1c-0.4,0.2-0.9,0.4-1.7,0.7
			c-1.4,0.5-2.8,0.9-4.4,1.4c-1.5,0.5-3,0.9-4.5,1.3s-2.9,0.7-4.3,1c-1.4,0.3-2.6,0.4-3.6,0.4c-5.6,0-9.7-1.4-12.2-4.2
			c-2.6-2.8-3.8-7-3.8-12.7c0-1,0-2,0.1-3c0.1-1,0.2-2.1,0.3-3.2c0.3-3.4,0.6-6.5,0.9-9.5c0.3-3,0.5-5.9,0.8-8.6h-5.3
			c-1.8,0-3.1-0.1-3.9-0.2c-0.8-0.2-1.2-0.5-1.2-0.9c0-0.1,0.2-0.5,0.5-1.1c0.3-0.6,0.8-1.3,1.3-2.1c0.5-0.8,1.1-1.7,1.7-2.6
			s1.2-1.8,1.7-2.6c0.6-0.8,1-1.5,1.4-2.1s0.7-1,0.8-1.1h3.6c0.3-2.5,0.5-4.7,0.7-6.4s0.3-3.2,0.5-4.3c0.1-1.1,0.2-2,0.3-2.6
			c0.1-0.6,0.2-1.1,0.3-1.4c0.1-0.3,0.3-0.5,0.5-0.6c0.2-0.1,0.4-0.2,0.7-0.2c1.5-0.3,3-0.6,4.4-0.8c1.4-0.3,2.8-0.5,4.2-0.8
			c1.4-0.3,2.8-0.6,4.3-0.9c1.5-0.4,3-0.8,4.6-1.2c0.1,0,0.2,0,0.2,0c0,0,0.1,0,0.2,0c0.4,0,0.6,0.1,0.6,0.4v0.1
			c-0.2,1.8-0.4,4.4-0.8,7.7c-0.4,3.3-0.7,7-1.2,11.2h13.5c0.3,0,0.5,0.1,0.8,0.3c0.3,0.2,0.4,0.5,0.4,0.9c0,0.2-0.2,0.8-0.6,1.8
			c-0.4,1-1,2.4-1.7,4.1l-1.8,4.1c-0.2,0.5-0.5,0.9-0.7,1.1c-0.3,0.2-0.8,0.4-1.5,0.5H1429.3z"/>
		<path class="st0" d="M1447.4,343.8c0.4-4.6,0.9-9.1,1.3-13.6c0.4-4.5,0.8-9.1,1.2-13.8c0.1-1.1,0.2-1.9,0.3-2.3
			c0.2-0.4,0.5-0.7,1.1-0.8c2.8-0.6,5.8-1.2,9-1.8s6.1-1.4,9.1-2.4c0.1,0,0.3-0.1,0.5-0.1c0.4,0,0.6,0.1,0.6,0.4l-4.5,49
			c-0.1,1.1-0.2,1.9-0.4,2.3c-0.1,0.4-0.5,0.7-1.1,0.8c-2.8,0.9-5.7,1.8-8.7,2.9c-2.9,1.1-6,2.2-9.3,3.3c-0.1,0-0.3,0.1-0.5,0.1
			c-0.4,0-0.6-0.2-0.6-0.5c0,0,0-0.5,0.1-1.4c0.1-0.9,0.2-2,0.3-3.4c0.1-1.4,0.2-2.9,0.4-4.6c0.1-1.7,0.3-3.4,0.4-5.1
			c0.2-1.7,0.3-3.4,0.4-4.9C1447.2,346.2,1447.3,344.9,1447.4,343.8z M1451.2,303.6c0.1-1.4,0.2-2.5,0.2-3.3
			c0.1-0.8,0.1-1.3,0.1-1.7c0-0.4,0.1-0.6,0.1-0.7c0-0.1,0-0.2,0-0.2c0-0.1,0-0.2,0.1-0.3c0-0.2,0-0.5,0.1-1c0-0.5,0.1-1.2,0.2-2.1
			c0.1-0.9,0.2-2.2,0.3-3.9c0.1-1.1,0.2-1.9,0.3-2.3c0.2-0.4,0.5-0.7,1.1-0.8c2.8-0.6,5.8-1.2,9-1.8s6.1-1.4,9.1-2.4
			c0.1,0,0.3-0.1,0.5-0.1c0.1,0.2,0.2,0.3,0.4,0.4l0.2,0.1l-1.1,13.8c-0.1,1.1-0.2,1.9-0.4,2.3c-0.2,0.4-0.5,0.7-1.1,0.8
			c-2.9,0.5-5.7,1.1-8.7,1.8c-2.9,0.6-6,1.3-9.3,1.9c-0.1,0-0.3,0.1-0.5,0.1C1451.4,304.1,1451.2,304,1451.2,303.6z"/>
		<path class="st0" d="M1501.4,367.7c-4.7,0-8.9-0.8-12.4-2.3c-3.6-1.5-6.6-3.6-9-6.2c-2.4-2.6-4.2-5.5-5.4-8.9
			c-1.2-3.3-1.8-6.8-1.8-10.4s0.6-7,1.8-10.2c1.2-3.2,2.8-6.1,4.9-8.7c2.1-2.6,4.6-4.7,7.6-6.4c3-1.7,6.2-2.9,9.8-3.5
			c0.5,0,0.8-0.2,0.8-0.4c0-0.4,0-0.7-0.1-1c-0.1-0.3-0.1-0.6-0.1-0.8c0-0.4,0.1-0.6,0.2-0.8c0.1-0.1,0.3-0.2,0.5-0.2
			c6.4,0,11.9,0.7,16.3,2.2c4.5,1.5,8.1,3.4,11,6s4.9,5.5,6.1,8.9s1.9,7.1,1.9,11c0,5-0.8,9.5-2.5,13.4s-4,7.2-6.9,10
			c-2.9,2.7-6.3,4.8-10.2,6.2C1510,367,1505.8,367.7,1501.4,367.7z M1492.1,339.5c0,1.8,0.2,3.6,0.6,5.4c0.4,1.8,1,3.4,1.9,4.8
			c0.9,1.4,2.1,2.6,3.5,3.5c1.4,0.9,3.2,1.3,5.4,1.3c1.5-0.1,2.9-0.4,4-1c1.2-0.6,2.2-1.4,3-2.4s1.5-2.1,2.1-3.3
			c0.6-1.2,1-2.5,1.3-3.8c0.3-1.3,0.5-2.6,0.7-3.9c0.1-1.3,0.2-2.4,0.2-3.5c0-1.7-0.3-3.5-0.8-5.1c-0.5-1.7-1.3-3.2-2.3-4.4
			s-2.3-2.3-3.7-3.1c-1.5-0.8-3.2-1.2-5.2-1.2c-2,0-3.7,0.6-5.1,1.8c-1.4,1.2-2.5,2.7-3.3,4.4c-0.8,1.7-1.4,3.6-1.8,5.5
			C1492.3,336.3,1492.1,338,1492.1,339.5z"/>
		<path class="st0" d="M1578.5,366.9c-0.4,0.1-0.9,0.3-1.5,0.5s-1.2,0.3-1.8,0.3c-0.5,0-0.9-0.1-1.2-0.4c-0.4-0.2-0.5-0.6-0.5-1.2
			v-0.3c0.2-1.8,0.4-3.3,0.5-4.6c0.1-1.3,0.3-2.4,0.4-3.4c0.1-1,0.2-2,0.3-3.1c0.1-1,0.2-2.2,0.3-3.6c0.1-1.4,0.3-3,0.5-4.8
			c0.2-1.9,0.4-4.2,0.7-7c0.2-1.7,0.3-3.5,0.5-5.2c0.1-1.8,0.2-3.4,0.2-4.9c0-1-0.1-1.9-0.2-2.8c-0.2-0.9-0.4-1.6-0.8-2.2
			c-0.4-0.6-0.9-1.1-1.6-1.4c-0.7-0.3-1.5-0.5-2.6-0.5c-0.8,0-1.8,0.2-3.2,0.5c-1.4,0.3-2.7,0.9-4,1.7c-1.3,0.8-2.5,1.8-3.6,3
			c-1,1.3-1.6,2.8-1.8,4.7c-0.2,2.5-0.4,4.6-0.6,6.4c-0.2,1.8-0.3,3.3-0.5,4.5c-0.1,1.2-0.2,2.2-0.3,3c-0.1,0.8-0.1,1.4-0.2,2
			c0,0.1-0.1,0.5-0.2,1.1s-0.1,1.3-0.2,2.2c-0.1,0.8-0.2,1.7-0.3,2.7s-0.2,1.8-0.3,2.7c-0.1,0.8-0.2,1.6-0.2,2.2
			c-0.1,0.6-0.1,1-0.1,1.1c0,0.3,0,0.5,0,0.7s0,0.4,0,0.5c0,0.3-0.1,0.5-0.4,0.7c-0.3,0.2-0.8,0.4-1.7,0.6l-13.3,4.6
			c-0.4,0.1-0.9,0.3-1.5,0.5s-1.2,0.3-1.8,0.3c-0.5,0-0.9-0.1-1.2-0.4c-0.4-0.2-0.5-0.6-0.5-1.2l4.6-51.4c0.1-1.1,0.2-1.9,0.4-2.3
			c0.2-0.4,0.5-0.7,1.1-0.8c3.1-0.6,6.2-1.2,9.4-1.8s6.4-1.4,9.4-2.4c0.3,0,0.4,0,0.5,0.1c0.1,0.1,0.1,0.2,0.1,0.4
			c0,0.1,0,0.2,0,0.3c0,0.1-0.1,0.4-0.2,0.9c-0.1,0.5-0.2,1.2-0.4,2.1c-0.2,1-0.4,2.3-0.6,4c2.3-1.3,4.5-2.4,6.5-3.2
			s3.9-1.5,5.7-1.9c1.8-0.5,3.5-0.8,5.1-0.9c1.6-0.2,3.1-0.2,4.4-0.2c4.7,0,8.2,1.4,10.3,4.3c2.1,2.9,3.2,7.2,3.2,12.9
			c0,0.8,0,1.6,0,2.5c0,0.9-0.1,1.7-0.2,2.6l-2.3,21.6c-0.2,1.4-0.3,2.7-0.3,3.9c0,1.2,0,2.6,0,4.1c0,0.3,0,0.5,0,0.7
			c0,0.2,0,0.3,0,0.5c0,0.3-0.1,0.5-0.4,0.7c-0.3,0.2-0.8,0.4-1.7,0.7L1578.5,366.9z"/>
	</g>
</g>
</svg>
