<?xml version="1.0" encoding="utf-8"?>
<!-- Generator: Adobe Illustrator 22.1.0, SVG Export Plug-In . SVG Version: 6.00 Build 0)  -->
<svg version="1.1" id="Capa_1" xmlns="http://www.w3.org/2000/svg" xmlns:xlink="http://www.w3.org/1999/xlink" x="0px" y="0px"
	 viewBox="0 0 489.5 486.6" style="enable-background:new 0 0 489.5 486.6;" xml:space="preserve">
<style type="text/css">
	.st0{fill:#FFFFFF;}
</style>
<g>
	<path class="st0" d="M444.6,184.4c-3.1,3.2-4,3.2-7.7,0.2c-9.5-7.9-29.2-8.8-34.2,8.3c-0.6,2-1.8,1.9-3.4,2
		c-4.7,0.5-7.5,3.2-7.8,7.6c-0.3,3.7,2.1,6.7,6.1,7.9c2.8,0.8,4.9,0,6.6-1.9c1.3-1.5,1.5-2.9-0.4-4.2c-1.5-1-2.8-2.2-1.2-3.8
		c1.5-1.6,3-0.6,4.4,0.5c0.9,0.7,1.6,1.5,2.6,2.5c1.6-1.1,3-2.3,4.5-3.2c7.6-4.5,16.7-3.4,23.2,2.8c5.6,5.3,4.7,13.9-1.8,17.6
		c-3.9,2.2-8.9,1.4-11.2-1.9c-0.5-0.8-0.5-2.3,0-3.1c0.3-0.5,2.4-0.6,2.9-0.1c2.3,2.1,4.4,2.6,6.8,0.4c2.4-2.2,2.8-5.6,1.1-8.3
		c-2.4-3.7-8.4-6.3-13.1-5.4c-5.2,0.9-9.5,3.5-11,8.2c-1.9,5.7-0.8,11.4,4,16c8.5,8.2,24.2,7.8,32-0.6c0.9-1,1.8-2.2,2.9-2.9
		c0.7-0.4,2.3-0.5,2.7,0c0.6,0.6,0.7,1.8,0.8,2.8c0,0.3-0.4,0.6-0.6,1c-0.9,1.7-0.3,3.1,1.5,3.8c1.9,0.7,3.5-0.2,3.7-2
		c0.4-3.2,2.1-3.1,4.8-2.3c10,3,19.9-0.3,26.2-6.7c-1.1-5.3-2.2-10.6-3-16c-0.1-0.7-0.2-1.5-0.3-2.2c-0.2,0.5-0.5,1-0.8,1.4
		c-4.4,6.9-14.2,8-20.7,2.3c-5.5-4.9-4.5-13.5,1.9-16.9c3.6-1.9,8.1-1.4,10.2,1.4c0.9,1.2,1.3,2.9,1.2,4.3c0,0.8-1.4,1.8-2.4,2
		c-0.6,0.1-1.9-1.1-2.2-1.9c-1-2.5-2.7-3.1-5-1.4c-2.4,1.7-3.3,5-2,7.6s5.2,4.9,8.4,4c2.3-0.6,4.9-1.9,6.2-3.7
		c4.1-5.5,2.4-14.1-3.8-18C464.8,174.6,453.7,175,444.6,184.4z"/>
	<path class="st0" d="M11.5,208.3l4.4,1.7l0.9-4.6C38.3,95.8,132.8,16.3,241.5,16.3c93.6,0,176.9,57.7,212.3,147l1.5,3.7l3.7-1.4
		c2.2-0.8,4.4-1.4,6.6-1.8l4.9-0.8l-1.8-4.6c-18-46-48.7-85.3-88.6-113.6c-40.9-29-88.8-44.3-138.6-44.3
		c-116.2,0-217.1,84.9-240,201.9l-0.9,4.7l4.8,0.1C7.5,207.2,9.5,207.6,11.5,208.3z"/>
	<path class="st0" d="M485.7,234l-5,1.6c-2.2,0.7-4.5,1.2-6.7,1.4l-3.7,0.4l0.2,3.8c0.2,3.8,0.2,7.4,0.2,10.8
		c0,7.5-0.4,15.3-1.1,23.2l-0.4,3.7l3.7,0.6c2.3,0.4,4.5,1,6.7,1.8l4.9,1.8l0.5-5.2c0.9-8.8,1.3-17.5,1.3-25.9
		c0-4.2-0.1-8.5-0.3-12.8L485.7,234z"/>
	<path class="st0" d="M134,189.7c-0.8-1.6-4.4-3.1-6.4-2.7c-1.9,0.3-3.8,2.9-4.8,5c-0.3,0.7,2.1,2.7,3.3,4.1c1.4-1.5,2.7-3,4.1-4.5
		c0.5,0.1,1,0.2,1.5,0.2c-0.8,2.3-1.3,6.4-2.5,6.6c-4.2,0.8-8.6,0.3-13,0.3c-0.5-1.1-1-2.1-1.4-3.2c6.3-10.8,12.5-21.6,20.3-35
		c3.8,6.1,6.6,9.7,8.2,13.8c0.4,1-3.1,3.6-5.9,4.1c0.6-2,1.2-4.1,1.8-6.1c-1.6-0.2-4.1-1-4.5-0.4c-1.2,1.9-2.9,5-2.1,6.5
		c1,2.1,4.4,4.8,6.2,4.4c3.2-0.7,6.5-3,8.8-5.5c1.4-1.6,1.1-4.8,1.6-7.5c6.6-1.5,12.2-4,10.7-12.3c-0.9-5-4.3-6.6-8.8-5
		c-1.4,0.5-2.8,2.8-3,4.4c-0.1,1.1,1.9,2.4,2.9,3.7c1.2-1.4,2.3-2.8,3.5-4.1c0.6,0.2,1.2,0.4,1.7,0.6c-1.1,2.1-2.6,6.2-3.3,6.1
		c-4.5-0.8-8.8-2.6-13.1-4c0-1.1-0.1-2.2-0.1-3.3c9.4-8,18.8-16,30.7-26.1c1.5,6.9,2.9,11.3,3.1,15.8c0,1.1-4.1,2.3-7.1,1.7
		c1.4-1.5,2.9-3.1,4.3-4.6c-1.9-0.7-5.2-2.2-5.5-1.8c-1.4,2.1-3.1,4.9-2.6,7.1c1.3,5.5,9.6,6.8,14,2.3c1.7-1.7,2.7-4.2,4-6.4
		c0.5,0.7,1,1.3,1.5,2c4.3-3,9.8-5.2,12.6-9.3c2.6-3.9-0.2-8.4-5.6-8.9c-1.6-0.1-3.7,2.1-4.9,3.7c-0.4,0.5,1.3,2.6,2,4
		c1.4-1.1,2.8-2.2,4.2-3.3c0.5,0.4,1,0.8,1.5,1.2c-1.7,1.8-4.3,5.4-4.8,5.1c-4-2.1-7.7-5-11.4-7.6c0.2-1.2,0.5-2.5,0.7-3.7
		c11.7-4.3,23.3-8.7,35-13c0.9,0.6,1.8,1.1,2.7,1.7c-0.6,4.3-0.6,8.8-2,12.9c-0.4,1.1-4.7,0.9-7.3-0.3c1.8-1.2,3.6-2.4,5.4-3.7
		c-1.8-1-4.4-3.4-5.1-2.9c-2,1.4-4.3,3.8-4.4,6c-0.3,5.3,7.1,9.5,12,6.4c4.7-3,8.4-4.7,14.2-2.6c2.1,0.8,6.8-3,9-5.8
		c1-1.3-0.3-5.5-1.8-7.4c-1-1.2-4.4-0.7-6.6-0.1c-0.7,0.2-0.8,2.9-1.1,4.4c2,0.1,4.1,0.2,6.1,0.3c0.3,0.4,0.6,0.8,0.9,1.1
		c-2.3,0.9-6.1,3-6.7,2.4c-2.9-3.2-4.9-7.2-7.3-10.9c0.6-0.8,1.1-1.6,1.7-2.4c12.4,0,24.9,0,40.6,0c-3.5,5.8-5.6,9.9-8.5,13.3
		c-0.5,0.6-4.4-1.6-6-4c2,0.2,4,0.3,6,0.5c-0.4-1.8-0.5-4.9-1.2-5.1c-2.2-0.4-5.6-0.5-6.5,0.8c-1.4,1.9-2.3,6-1.2,7.4
		c2,2.6,5.4,4.7,8.6,5.6c2,0.6,4.7-1.3,7.5-2.3c2.1,1.5,4.4,4.2,7.1,4.7c2.9,0.5,6.8-0.2,9.2-1.9c1.7-1.2,2.5-5.1,1.9-7.4
		c-0.3-1.5-3.7-2.6-6-3.1c-0.7-0.2-1.9,2.2-2.9,3.4c1.7,1,3.3,2.1,7.1,4.5c-4.2-0.2-8.5,0.3-8.9-0.7c-1.4-3.4-1.8-7.4-1.6-11.1
		c0-0.8,4.3-2.5,6-2c10.4,3.3,20.6,7.2,30.9,10.9c0.3,1.1,0.5,2.1,0.8,3.2c-3.3,2.9-6.4,6.2-10.1,8.4c-1,0.6-4.1-2.6-5.1-5.5
		c2,0.6,3.9,1.2,5.9,1.8c0.1-1.8,0.5-5,0.1-5.1c-2.4-0.6-5.9-1.7-7.3-0.5c-1.7,1.4-3,5.3-2.3,7.3c1.1,2.8,3.9,5.3,6.7,6.8
		c1.9,1.1,4.9,0.2,7.4,0.2c-0.3,0.8-0.7,1.6-1,2.4c4.3,2.3,8.4,5.9,13,6.5c5.4,0.7,8.9-6.2,5.7-10c-1.1-1.2-3.4-1.7-5.1-1.8
		c-0.8,0-1.7,1.8-2.5,2.7c1.4,1.2,2.8,2.3,4.1,3.5c-0.1,0.6-0.3,1.3-0.4,1.9c-2.2-0.8-6.2-1.5-6.3-2.4c-0.1-4.6,0.8-9.2,1.4-13.7
		c1.1-0.3,2.2-0.6,3.3-0.9c9.6,8.1,19.2,16.1,30.8,25.9c-6.2,2.7-10.1,5-14.4,5.9c-1.1,0.3-3.2-3.6-3.4-6.3c2,0.8,4,1.7,5.9,2.5
		c0.3-1.8,1.4-4.6,0.8-5.1c-1.8-1.3-4.9-2.9-6.5-2.1c-2.1,0.9-4.7,3.9-4.7,6c0.1,3,1.8,6.3,3.8,8.7c1.5,1.7,4.5,2.1,5.4,4.3
		c2.9,3.7,5.3,8,8.9,10.8c1.4,1.1,5.8-0.5,8.2-2c1.2-0.7,1.4-4.2,0.9-6c-0.4-1.3-2.8-2.3-4.5-2.7c-0.6-0.2-1.8,1.7-2.7,2.6
		c1.2,1.1,2.4,2.2,3.6,3.3c-0.2,0.5-0.3,1-0.5,1.5c-2-0.9-5.1-1.3-5.7-2.7c-2.7-6.7,2.3-9.6,8.6-13.4c5.5,9.4,11.1,18.8,17.5,29.7
		c1.3,0.7,2.6,1.4,4,2.1c-20.5-50.4-70-86.2-127.3-85.9c-76.8,0.4-137.9,61.6-137.6,138l0,0c1.5,0.7,3,1.5,4.5,2.4
		c0.2-0.2,0.4-0.4,0.6-0.6c4.2,1.8,8.6,3.3,12.4,5.7c0.6,0.4-0.5,3.3-2.3,5.3c0.7,0.6,1.4,1,2.2,1.3c0.7,0.3,1.4,0.6,2.1,1.1
		c1.7-2.4,2.7-5.7,3-8.6c0.2-2.1-2.2-4.4-1.9-6.5c0.3-4.9,1.2-9.9,0.6-14.7c-0.2-1.6-4.3-3.5-6.8-3.8c-1.6-0.2-4.2,1.7-5.2,3.3
		c-0.8,1.3-0.3,3.9,0.6,5.3c0.5,0.8,3,0.3,4.5,0.4c-0.2-1.8-0.4-3.5-0.5-5.3c0.5-0.3,1.1-0.5,1.6-0.8c0.8,2.3,2.7,6.4,2.2,6.7
		c-3.8,2.5-8.1,4.2-12.3,6.2c-1-0.8-1.9-1.6-2.9-2.4c2.1-12.3,4.2-24.6,6.3-37c7.4,0.1,12.3,2,13.4,8.2c0.3,1.6-2.9,3.8-5.9,4.4
		c0.9-1.6,1.8-3.3,2.7-4.9c-1.8-0.2-4.4-1.3-5.1-0.5c-1.3,1.3-2.5,4.7-1.7,5.6c1.5,1.9,4.9,4.4,6.5,3.9c3-1,7.8-4.3,7.6-6.3
		c-0.5-6.7,2-11.2,6-16.1C136.3,197.2,135.3,192.5,134,189.7z"/>
	<path class="st0" d="M187.3,98.8c6.1-1.7,13-0.4,19.5-0.4c-11.6-13.8-23.5-28.1-36.3-43.3c0,22.2,0,42.6,0,63.4
		c8.4-3.6,16.2-6.9,23.9-10.2c0-1,0-2,0-3c-7.2,1.6-14.3,3.2-21.5,4.8C177,105.1,181.7,100.3,187.3,98.8z"/>
	<path class="st0" d="M336.2,137.3c0.8-0.8,1.5-1.6,2.3-2.4c-4.5-4.7-8.9-9.4-13.4-14.2c0.1-0.8,0.3-1.6,0.4-2.4
		c5.5,2.8,12,4.6,16.1,8.8c4.3,4.5,6.3,11.2,9.6,17.4c6.3-17.2,12.6-34.8,19.8-54.4c-19.6,11.4-37.2,21.6-55.4,32.1
		C323,127.7,329.6,132.5,336.2,137.3z"/>
	<path class="st0" d="M160.7,120c-17.8-10.2-33.7-19.4-51.7-29.8c7.8,21.4,14.7,40.3,21.8,60.1c7-6.6,13.3-12.5,19.6-18.5
		c-0.6-0.8-1.2-1.6-1.8-2.4c-5.9,3.9-11.9,7.8-17.6,11.5C132.1,127.8,140.5,121.4,160.7,120z"/>
	<path class="st0" d="M294.2,99.1c5.7,3.6,10.3,8.8,14.7,12.6c0-17.5,0-36.3,0-56.2C295,72.1,282,87.7,268.6,103.8
		c9.2,2.7,17.3,5.1,25.4,7.6c0.4-1,0.8-1.9,1.3-2.9c-6.4-3-12.7-6.1-19.4-9.3C281.7,95.4,288.4,95.4,294.2,99.1z"/>
	<path class="st0" d="M353.4,155.5c5.4,8.1,10.1,15.1,14.7,22.1c0.9-0.5,1.8-0.9,2.8-1.4c-2.8-6.4-5.6-12.7-8.6-19.7
		c6.9,1.1,11.9,5.6,13.9,12.3c2,6.3,2.2,13.1,3.2,19.7c11.6-13.9,23.5-28.1,36.9-44.1C394,148.4,374.1,151.9,353.4,155.5z"/>
	<path class="st0" d="M259.7,96.9c-6.6-18.2-12.8-35.1-19.8-54.4c-7.7,21.3-14.6,40.3-21.4,59.1c9.4,0,17.6,0,26.9,0
		c-6.5-6.1-6.5-6.1-21.8-5.2C231.6,86.6,239.9,86.5,259.7,96.9z"/>
	<path class="st0" d="M116.8,169c-10,2-11.5,10-15,17.8c-3.3-8.8-1.5-15.5,3.5-20.7c4.6-4.7,10.5-7.9,15.6-11.7
		c-17.7-3.1-36-6.2-54.2-9.4c-0.4,0.6-0.7,1.2-1.1,1.8c12.8,15.3,25.5,30.6,38.8,46.5C108.8,184.9,112.6,177.4,116.8,169z"/>
	<path class="st0" d="M98.5,200.5c-19.6,3.5-38.4,6.9-59.6,10.7c17.9,9.9,33.4,18.4,49,27c2.1,1.5,4.3,3,6.7,4.8
		c1.2-9.6,2.2-18.2,3.3-26.7c-0.9-0.3-1.7-0.6-2.6-0.8c-1.7,5.2-3.5,10.5-5.2,15.7c-0.7,2.1-1.1,4.3-1.7,6.5
		C81.6,222.1,83.7,214,98.5,200.5z"/>
	<path class="st0" d="M240.2,139.9c0.1,0,0.2,0,0.3,0c36.3,0.1,69.6,18.3,89,48.8l0.3,0.2c2,1.2,4,2.5,5.8,3.9l1.3,0.9l-0.1-1.7
		l-0.1-0.3c-19.9-35.1-56.9-56.8-96.6-56.8H240c-61.2,0.1-111.1,50-111.2,111.2c0,19.7,5.2,39,15.1,56l0.2,0.4h0.5
		c1.1-0.1,2.2-0.1,3.3-0.1h1.3l-0.7-1.1c-10-16.6-15.3-35.7-15.2-55.2c0-28.5,11.1-55.2,31.2-75.2
		C184.7,150.9,211.5,139.9,240.2,139.9z"/>
	<path class="st0" d="M237.6,210.6c1.9-24.5-17.5-33.1-27.6-45c6.5-3.5,12.7-7,19-10.2c1.3-0.6,4.2-0.8,4.4-0.4
		c0.8,1.9,1.7,4.5,1,6.1c-1.5,3.2-4.1,6-6.5,9.2c3.1,3.6,7.5,9,12.3,14.6c4.7-5.8,9-11.1,13.3-16.4c-2.3-1.8-5.3-3.1-6.4-5.4
		c-1.1-2.3-0.4-5.5-0.4-8.3c2.1,0.8,4.1,1.6,6.2,2.4c4.5,1.8,8.9,3.8,13.5,5.5c1.5,0.6,3.3,0.5,5.8,0.8
		c-33.8,31.7-31.5,34.1-27.5,44.4c12-20.2,26.7-37.5,52.5-43.8c-7.1-4.2-12.1-7.3-17.4-10c-1.8-0.9-4.4-1.5-6.2-1
		c-13.3,3.9-13.3,4-19.6-8.4c-7.3,0-15.2-0.4-23.1,0.2c-2.5,0.2-5.7,2.8-6.9,5.2c-3.1,6.1-8,8-13.2,4.8c-5.5-3.5-9.5-1.5-13.9,1.1
		c-3.9,2.3-7.7,4.8-13.5,8.4C209.8,170.6,223.7,189.4,237.6,210.6z"/>
	<path class="st0" d="M329.3,315.2c0.1-1.3,2-2.2,3.1-3.4c5.1-6,10.9-11.1,15.2-18.2c9.8-16,12-34.5,6.2-54.1
		c-12.2-41.3-53.9-55.3-77.9-26.5c-7.8,9.4-11.7,23.1-10.3,37.2c2.2-19.8,10.6-30.7,22.9-35.8c11.1-4.6,22.3-6.1,32.9,1.4
		c11.2,7.9,17.6,21.5,18.8,40.2c1,16.1-3.1,29.3-12.4,38.6c-15.5,15.5-32.8,24.9-50.4,32.6c-16.6,7.2-33.2,13.7-49.8,19.3
		c0,3,0,5.7,0,8.3c0,1-0.1,1.9-0.3,2.8c20.5-5.7,40.9-12.4,61.3-19.6c11-3.9,21.9-8.4,32.7-13.2
		C324.5,323.4,328.7,322.5,329.3,315.2z"/>
	<path class="st0" d="M450.1,285.5c-8.4,12.7-19.1,17.9-31,20c2.2,8.1,2.2,8.1-7.4,14.4c12.7,2.4,25.1,5.1,37.6,6.9
		c2.3,0.3,5.9-2.1,7-4.9c0.9-2.2-1.1-7-1.8-10.4c5.3,1.3,10.7,3,16,5.1c1.7-6,3.1-12.2,4.4-18.4c-6-4.6-12-9.2-18-14
		C454.3,282.2,452.5,281.8,450.1,285.5z"/>
	<path class="st0" d="M379.9,220.1c-11.6-6.8-23.2-13.2-34.9-19.7c-0.3,0.8-0.5,1.7-0.8,2.5c8.1,5.6,14.7,13.7,19,25.4
		c8.3,22.6,5,49.4-9.2,68.4c-4.7,6.3-10.5,10.6-15.9,15.5c-1.6,1.5-3.3,1.7-3.2,5.9c0,2.2-2.6,4.6-4.3,7.4c9.7-2,19-4.4,27.7-11.3
		c0.7-0.6,1.9-1.4,2-2.2c0.4-8.2,5.5-9,8.7-12.4c17.4-17.8,23.2-48.2,13.8-74C382.1,223.6,381.2,220.9,379.9,220.1z"/>
	<path class="st0" d="M437.7,372.1c1.8,2.7,3.8,4.6,5.9,5.7c7.4-12,13.8-24.7,19.1-37.9c-12.8-3.4-25.5-6.7-38.6-10.1
		C427.1,346.8,430.4,361,437.7,372.1z"/>
	<path class="st0" d="M367.5,306c0,13.4-8.2,10.1-12,15.2c7.7-1,15.3-1.7,22.8-3.2c6-1.1,7.3-4.2,5.9-12.6c2.7-1.5,5.6-2.9,8.3-4.7
		c12.3-8.5,20.7-21.9,22.7-42.8c0.6-6.2-0.1-10.9-4.2-14c-5.3-4-10.3-9-16.7-14.7c4.3,17.7,3.5,33-2.4,47.7
		C386.2,291.6,377.7,300.8,367.5,306z"/>
	<path class="st0" d="M443.2,273.5c-6.3-5.8-12.3-11.3-18.9-17.4c-1.2,27-13.1,39-27.6,48.3c2.3,7.8-1.2,10.9-5.1,14.5
		c4.8-0.4,9.6-0.1,14.2-1.4c5.6-1.5,6.4-4,5.5-12.9C423.9,300,435.3,292,443.2,273.5z"/>
	<path class="st0" d="M380.9,328.7c2.2,11.2,5.1,21.8,11.8,28.9c4.2,4.5,8.6,3.5,12.3-1.2c5.8-7.4,11.1-15.7,16.7-23.5
		c-0.2-0.9-0.4-1.8-0.6-2.7C407.8,329.7,394.6,329.2,380.9,328.7z"/>
	<path class="st0" d="M300,371.2c11.9,1.5,46-4.7,77.5,2.2c18.9,4.1,37.5,9.7,54.8,21.1c1.6-2.1,3.1-4.3,4.6-6.5
		C404,370.8,367.3,358,300,371.2z"/>
	<path class="st0" d="M359.3,355.5c10.4-1.9,14.3-14.6,19.4-28.5c-13.9,1.6-26.7,3.1-40.2,4.7C343.4,348,351.3,357,359.3,355.5z"/>
	<path class="st0" d="M321.5,357.9c8.9-1.8,11.7-13.5,15.9-25.8c-12.6,3.2-24,6-36.5,9.2C307,351.4,312.7,359.7,321.5,357.9z"/>
	<path class="st0" d="M297.6,342.6c-12,4.1-23.6,8-35.7,12.2C279.3,373.7,293.7,369.4,297.6,342.6z"/>
	<path class="st0" d="M244.9,381.3c8.3-2,9.4-13.9,12.6-24.8c-10.8,3.6-20.3,6.9-30.7,10.4C232.1,375.3,237.2,383.2,244.9,381.3z"/>
	<path class="st0" d="M433.3,375c-4.2-8.7-8.8-18.2-12.9-26.7c-4.7,4.8-10.3,10.5-15.7,16C414.1,367.7,424.2,371.5,433.3,375z"/>
	<path class="st0" d="M379.1,342c-3.4,5.3-7.2,11.2-10.1,15.7c5.2,0.7,12.8,1.7,20.4,2.7C385.7,353.8,382,347.3,379.1,342z"/>
	<path class="st0" d="M337.7,345c-2.9,4.3-5.9,8.8-9.3,13.9c7-0.4,13.7-0.9,20.8-1.3C345.1,353,341.4,349,337.7,345z"/>
	<path class="st0" d="M300.3,350.5c-2.1,3.9-4.5,8.3-7.6,14.1c7-1.4,13-2.5,19.6-3.8C308,357,304.4,353.9,300.3,350.5z"/>
	<path class="st0" d="M254.5,376.8c6.6-2.4,12.3-4.5,19-6.9c-4.8-2.8-8.8-5.1-13.1-7.6C258.6,366.9,256.8,371.1,254.5,376.8z"/>
	<path class="st0" d="M333.2,421.7c0,0.1,0,0.2,0,0.3c0.3,3.9,1.3,7.3,3,10.6c0.8,1.5,2.2,2.9,3.8,4.5c0.7,0.7,1.5,1.5,2.2,2.3
		c0.3,0.3,1.1,0.9,1.6,1.3c1.9,1.5,3.3,2.5,4.2,3.5c10.1,1.1,20.3,2.1,30.4,3.2c2.6-1.8,5.1-3.7,7.6-5.7
		c-18.1-12.5-36.6-21.4-55.5-26.8C332,417.2,332.9,419.4,333.2,421.7z"/>
	<path class="st0" d="M393.9,427.7c1,2,2.1,3.5,3.4,4.7c11.1-9.7,21.4-20.5,30.5-32.1c-14.2-5.4-28.2-10.6-42.8-16.1
		C386.2,401.4,388,415.8,393.9,427.7z"/>
	<path class="st0" d="M363.2,408.6c6.6-6.8,12.8-14.4,19.2-21.7c-0.1-0.9-0.2-1.8-0.3-2.7c-13.1-1.8-26.2-3.7-39.8-5.6
		c0.9,11.4,2.7,22.2,8.5,30C354.5,413.5,359,413,363.2,408.6z"/>
	<path class="st0" d="M306.5,396c1.3,0.3,2.6,0.7,4,1.2c1.8,0.6,5.5,3,8.9,5.7c9.5-1.9,14.6-13.5,20.9-26.1
		c-14,0.2-26.9,0.4-40.5,0.5C301.2,385.2,303.6,391.6,306.5,396z"/>
	<path class="st0" d="M271.8,399.2c0.8-0.2,1.6-0.5,2.4-0.7c4.9-1.4,10-2.7,15.3-3.3c3.3-4.6,5.9-11,9-17.5
		c-12.9,1.9-24.5,3.5-37.3,5.4C264.5,389.9,267.6,395.9,271.8,399.2z"/>
	<path class="st0" d="M257.9,384c-9,2.1-17.9,4.1-26.8,6.1c1.9,4.5,3.1,9.4,3.5,14.5C244.5,409.1,253.1,402.2,257.9,384z"/>
	<path class="st0" d="M362,416.4c8.9,4.5,18.5,9.3,27.2,13.6c-3.2-9.1-6.7-19-9.8-27.9C374.2,406.4,368,411.5,362,416.4z"/>
	<path class="st0" d="M327.2,406.3c5.1,1.2,12.6,3,20,4.8c-3-7-5.9-13.8-8.2-19.3C335,396.7,330.6,402.1,327.2,406.3z"/>
	<path class="st0" d="M300.9,395c-1.1-1.6-2.3-3.1-3.4-4.6c-1.2,1.4-2.4,2.9-3.7,4.4c1.2-0.1,2.5-0.1,3.8,0
		C298.8,394.8,299.9,394.9,300.9,395z"/>
	<path class="st0" d="M267.7,400.4c-2.7-2.9-5.2-5.5-7.9-8.3c-2.5,3.7-5.4,7.8-9.1,13.2c1.2-0.1,2.4-0.2,3.5-0.3
		C258.6,403.3,263.1,401.8,267.7,400.4z"/>
	<path class="st0" d="M198.8,459.9c3.1-2.3,6.3-4.6,7.8-7.5c3-5.7,2.7-10.7-0.7-14.9c-3.8-4.7-8.6-6.8-14.3-6
		c-2.2,0.3-4.4,0.7-6.5,1.3c-10.8,3.1-20,10.4-28.8,22.9c-0.8,1.1-1,3.2-1.2,5.3c-0.1,1.1-0.2,2.3-0.5,3.5c-0.2,0.8-0.3,1.6-0.4,2.5
		c-0.1,0.7-0.2,1.4-0.3,2.1c4.3,1.7,8.7,3.2,13.1,4.6c-1.7-2.5-2.9-5.3-3.4-8.3c-1.2-6.7,1.1-13.3,6.2-18c4.6-4.3,10.9-6.5,15.9-7.9
		c0.6-0.2,1.2-0.3,1.8-0.5c4-1.1,9.1,2.7,11.4,5.4c1.8,2.1,0.4,4.7-1.3,8.1c-0.4,0.8-0.8,1.6-1.1,2.3c-0.5,1.1-1.1,2.2-1.7,3.3
		c-0.5,0.8-1.2,2.1-1.5,2.9c0.7,0.8,1.4,1,2.6,0.6c0.8-0.2,1.7-0.7,2.5-1.3L198.8,459.9z"/>
	<path class="st0" d="M338.3,451.2L338.3,451.2c-0.7-0.9-2.1-2.1-3.5-3.3c-0.7-0.6-1.8-1.5-2-1.8c-0.6-0.8-1.3-1.6-2-2.4
		c-1.6-1.8-3.2-3.6-4.1-5.8c-1.8-3.9-2.7-7.9-2.8-12.4v-0.1v-0.1c-0.7-9.6-15.8-20.5-17.6-21.3c-4.5-1.9-9.2-2.8-14.3-2.8
		c-6,0-12,1.2-17.6,2.5c-9.2,2.1-18,4.6-26.2,7.5c-2.8,1-5.3,3-7.9,5.2c-0.6,0.5-1.2,1-1.8,1.5c-0.9,0.7-1.8,1.2-2.7,1.5
		c-0.5,0.1-1,0.2-1.4,0.2c-2.3,0-3.6-1.7-4.3-3.2c-3.8-7.6-7.3-15.5-10.8-23.2l-0.1-0.1l-2.4-5.4l-0.2-0.5l-0.4-0.3
		c0,0-0.1-0.3-0.2-0.5c-0.2-0.4-0.4-1-0.8-1.6c-0.4-1.3-0.7-2.4-0.9-3.5l-0.2-1.1l-1.1-0.4c-0.3-0.1-0.5-0.3-0.6-0.6
		c-0.3-1-0.6-1.9-0.9-2.9c-0.8-2.3-1.5-4.5-1.6-6.9c-0.1-4.2,0.7-8.3,2.3-12.4l0.1-0.2v-0.2c2.3-12.4-6.4-24.2-8-25.8
		c-8.2-8.1-18.2-10.1-29.5-11.8c-9.3-1.4-18.5-2.2-27.3-2.5c-0.1,0-0.3,0-0.4,0c-2.9,0-5.8,0.9-8.9,1.9c-0.8,0.2-1.5,0.5-2.3,0.7
		c-0.9,0.3-1.8,0.4-2.6,0.4c-0.2,0-0.4,0-0.6,0c-3.4-0.3-4-3.1-4.1-4.7c-0.5-8.4-0.7-17-0.9-25.3v-0.1l-0.1-5.8v-0.5l-0.3-0.4
		c-0.9-1.5-1.6-2.9-2.2-4.4l-0.3-0.7l-0.6-0.3c-2.4-1.3-4.5-3.1-6.3-5.4c0,0,0-0.1-0.1-0.1l-2.6-4.3l-0.2-0.4l-0.3-0.2
		c-11-8-23.6-12.3-40.9-13.8c-8.2-0.7-16.5-0.8-25.3-0.9c-2.4,0-4.7,0-7.1-0.1c-0.1,0-0.2,0-0.3-0.1l-0.6-0.2l-0.6,0.2
		c-0.7,0.2-1.3,0.4-2,0.5c-2.9,0.7-23.6,3.8-32.6,4.8l-1.8,0.2v1.8c0.4,23.2,4.3,46,11.6,67.9l-0.8-1l3.9,9.7l5.3,14.7l-0.4-3
		c0.4,1,0.9,2,1.3,2.9l0.7,1.6l1.7-0.5c1.2-0.4,2.5-0.6,3.7-0.6c0.3,0,0.7,0,1,0c4.2,0.4,8.2,3,11.5,7.6c6,8.3,8.4,20.8,5.6,30.4
		c0,0,0,0.1-0.1,0.1l-0.6,1.1l0.8,1c9.9,13.3,21.3,25.6,33.8,36.6l0.3,0.2l0.3,0.1c0.1,0,0.2,0.1,0.4,0.1c8,7.7,26.6,21.5,36.9,26.5
		c1.1,0.7,2.3,1.3,3.4,2c1.1,0.6,2.2,1.2,3.2,1.8l5.2,2.8l-2.4-5.4c-0.6-1.4-1.1-2.6-1.4-3.8l-0.1-0.2l-0.1-0.2
		c-1.1-2.1-1.8-4.6-2.2-7.2l-0.1-0.5l-0.3-0.4c-0.1-0.1-0.1-0.2-0.1-0.3c-0.4-1.9-0.9-3.9-1.3-5.8c-0.1-0.4-0.2-0.8-0.3-1.2
		c0.2,0,0.5,0,0.7,0c2.7,0,5.5-0.1,8.5-0.3c-0.7,7.6,3.3,19.7,7.8,26.7l2.9,4.6l0.7-5.4v-0.1c0.3-2.1,0.6-4.2,0.8-6.2
		c0.6-4.9,1.1-10,2.8-14.6c0.7-2,1.8-4.8,3.5-7.4c18.5-3.5,36.5-9.7,48.1-16.6l2.6-1.5l-2.4-1.8c-0.6-0.4-1-0.5-3.6-0.8
		c-6.2-0.7-22.6-2.6-33.7-9.9c-5.3-3.5-10.8-7.7-16.4-12.7c-2.1-1.9-4.3-3.8-6.4-5.6l-0.1-0.1l-4.2-3.5l0.9,5.3
		c2,11.5,9.9,28.4,18,34.4c0.2,0.2,0.4,0.4,0.4,0.7c0,0.2-0.1,0.5-0.4,0.6c-2.9,2-6.4,3.2-9.8,3.2c-0.4,0-0.8,0-1.2-0.1
		c-2.6-0.2-4.8-1.2-6.5-2.8c-12.7-12.8-26.1-28.5-22.8-52.1c1.5-11.1,7.1-21,17.1-30.4c8.5-7.9,19.5-12.2,30.9-12.2
		c1.3,0,2.7,0.1,4,0.2c9.2,0.8,17.8,4.4,25,10.3c8.2,6.8,10.9,24,5.1,33.3c-2.9,4.7-9.2,7.9-15.5,7.9c-0.5,0-1.1,0-1.6-0.1
		c-2.2-0.2-4.2-0.8-6-1.8c-4.8-2.8-9.4-6.9-12.9-11.5c-1.3-1.8-1.2-4.5-1-7.3c0.1-1.2,0.1-2.4,0.1-3.4c0-0.4,0.4-0.8,0.9-0.9
		c0.8,0,1.7-0.1,2.5-0.2c1.7-0.1,3.4-0.2,5-0.2c0.4,0,0.8,0,1.2,0h0.2c0.8,0.1,1.6,0.5,2.2,0.8c0.3,0.2,0.7,0.4,0.9,0.4l0.3,0.1h0.3
		c0.2,0,0.4,0,0.6,0c0.6,0,1.2,0,1.7-0.1l1.3-0.2l0.3-1.3c0.3-1.1,0.3-2.8-0.2-4c-1.9-4.6-7.9-8.2-14.6-8.8
		c-0.6-0.1-1.2-0.1-1.8-0.1c-2.8,0-5.3,0.6-7.3,1.7c-3.1,1.8-5.5,4.9-6.5,8.8c-1.3,4.8-0.6,10.2,2,14.6c7.6,12.9,19.5,21,37.5,25.5
		c0.2,0.1,0.5,0.1,0.7,0.1s0.3,0,0.5,0c1.5,0,3.2-0.5,4.9-1.1c1.2-0.4,2.4-0.7,3.5-1c2-0.4,3.9-0.7,5.9-1.1l2.7-0.5
		c0.1,0,0.1,0,0.2,0c0.4,0,0.8,0.2,0.9,0.6l1.3,3.2c0.1,0.3,0,0.7-0.3,0.9c-0.2,0.2-0.5,0.4-0.7,0.6l-0.2,0.2l-1.9,1.5l1.9,1.5
		c0.5,0.4,1,0.7,1.4,0.9l0.2,0.1c2.9,2.7,5.6,5.9,7.8,9.6c15.3,25.9,14,44.4-4.8,65.9c-2.5,2.9-5.2,5.1-8,6.7l-5,2.8l5.7,0.9
		c4.6,0.7,9.3,1.3,13.8,1.8l0.7,0.1l0.6-0.4c2.2-1.4,4.1-3,5.8-4.9c0.2-0.2,0.4-0.3,0.6-0.4c0.2,0,0.4-0.1,0.6-0.1
		c1.5,0,3.6,0.9,4.5,1.4c1.3,0.7,2,1.3,2.2,2c0.2,0.6,0.4,1.3,0.6,1.9l0.4,1.4h1.4c2,0,4,0.1,6,0.1c0.2,0,0.4,0,0.6,0h0.5h3.3
		l-1.6-2.9c-1.8-3.3-3.2-6.8-4.2-10.6c-3-10.8-1.7-22.1,3.8-34.3c5.2-11.6,15.3-20.2,27.5-23.8c4.1-1.2,8.3-1.8,12.6-1.8
		c4.9,0,9.8,0.8,14.6,2.3c10.3,3.4,19.6,18.3,18,29.1c-0.9,5.9-6.2,11.5-12.6,13.4c-1.4,0.4-2.8,0.6-4.2,0.6c-0.7,0-1.4-0.1-2-0.2
		c-5.5-0.8-11.4-3-16.5-6c-2-1.2-2.9-3.7-3.9-6.5c-0.4-1.2-0.8-2.2-1.3-3.2c-0.1-0.2-0.1-0.4,0-0.6s0.2-0.4,0.5-0.5
		c0.8-0.3,1.5-0.7,2.2-1.1c1.8-0.9,3.7-1.8,5.7-2.5h0.2c0.3-0.1,0.7-0.1,1.1-0.1c0.5,0,0.9,0.1,1.3,0.1c0.3,0,0.8,0.1,1,0.1h0.4
		l0.3-0.1c0.8-0.3,1.6-0.6,2.2-1l1.2-0.7l-0.2-1.4c-0.2-1.1-0.8-2.7-1.8-3.6c-2.4-2.4-6.4-3.7-10.9-3.7c-2,0-4,0.3-6,0.8l0,0l0,0
		l0,0h-0.1c-3.3,1-6,2.7-7.7,4.8c-2.2,2.7-3.1,6.4-2.6,10.3c0.6,5,3.5,9.9,7.6,13.1c9.6,7.3,20.6,10.8,33.8,10.8
		c3.5,0,7.1-0.2,11-0.7c0.2,0,0.5-0.1,0.7-0.1c1.6-0.5,3.1-1.7,4.6-3c0.9-0.8,1.9-1.5,2.9-2.2c1.7-1.1,3.4-2.1,5-3.1l2.2-1.4
		c0.2-0.1,0.4-0.2,0.6-0.2c0.3,0,0.6,0.1,0.8,0.3l2.5,2.5c0.3,0.3,0.3,0.6,0.1,0.9c-0.9,1.6-1.7,3.2-2.3,4.5l-2.2,4.7l4.8-2
		c1.9-0.8,4-1.7,6-2.6l0.9-0.4l0.2-0.9C342.3,456.9,338.5,451.5,338.3,451.2L338.3,451.2z M61.5,377.8c1.4-1.6,4.1-3.3,6.5-3.3
		c0.1,0,0.2,0,0.3,0l2.5,0.2c3.5,0.3,6.8,0.5,10.1,0.5c6.5,0,11.7-1,16.4-3.2c0.2-0.1,0.4-0.1,0.6-0.1c0.1,0,0.1,0,0.2,0
		c1.3,0.1,3.3,1.9,4.2,3.1c0.9,1.1,1.3,1.9,1.2,2.6c-1.7,12.9,0.9,25.1,8.1,37.3c0.8,1.4,1,4.4,0,5.4c-1,1.1-2.5,1.5-3.7,1.9h-0.1
		c-0.4,0.1-0.7,0.2-1.1,0.4c-0.1,0.1-0.3,0.1-0.4,0.1h-0.1c-0.1,0-0.2,0-0.3-0.1c-14.8-5.4-31.7-12.4-44-26.6
		C59,392.6,58.8,381,61.5,377.8z M76.6,293.5c0.7,0,1.4,0,2.1,0c0.5,0,1.1,0,1.6,0c0.9,0,1.8,0,2.7,0l8.6-0.2l-7.8-3.6l-3.6-1.7
		c-7.9-3.7-16-7.4-24.1-10.5l-0.1-0.1h-0.1c0,0-0.1,0-0.4-0.1c-0.1,0-0.2,0-0.4,0c-2,0-5.2,1.5-7.4,3.3c-5.2,4.5-10.1,9.5-14.9,14.3
		c-2,2-3.9,3.9-5.9,5.9c-0.6,0.6-1.3,1.2-1.9,1.8l-0.9,0.9c-0.2,0.2-0.4,0.3-0.7,0.3c-0.1,0-0.2,0-0.4-0.1l-1.7-0.6
		c-0.4-0.1-0.7-0.5-0.6-0.9c0.4-2,0.7-3.9,1.1-5.9c1-5.5,2.1-11.2,3.4-16.7c0.4-1.8,2.8-3.1,4.9-4.2c14.7-7.5,27.1-11.3,39.1-12
		c0.5,0,1,0,1.6,0c4.8,0,10.1,1.2,15.9,3.6c13.9,5.7,28.5,14.3,31.1,34.3c3.9,29.5-4.6,46.1-30.5,59.2c-4.7,2.4-9.2,3.6-13.5,3.6
		c-0.7,0-1.3,0-2-0.1c-6-0.5-11.6-3.5-16.8-8.9c-5-5.2-7-12.1-5.5-18.6c1.4-6,5.7-10.7,11.7-13c3.1-1.2,6.7-1.7,11-1.7
		c1.8,0,3.7,0.1,6,0.3c0.6,0.1,1.2,0.1,1.8,0.2c3,0.3,5.8,4.8,6.8,7.7c0.4,1.2-1.2,2.7-3.8,4.9c-0.8,0.7-1.5,1.3-2,1.8
		c-0.8,0.8-1.8,1.5-2.7,2.3c-1.1,0.9-2.2,1.7-2.8,2.3l-0.8,0.8l0.3,1.1c0.5,1.8,1.8,2.8,3.9,3c0.2,0,0.5,0,0.7,0
		c0.9,0,1.8-0.1,2.8-0.4l0.5-0.1c4-1,8.1-2.1,11-4.5c7.1-5.9,7.1-12,5.9-16.1c-1.8-6.4-6.1-10.6-12.3-12.1c-2.3-0.6-4.6-1-6.9-1.2
		c-1.3-0.1-2.7-0.2-4-0.2c-10.4,0-20.9,3.6-33,11.2c-1.6,1-2.8,3.1-3.9,5.2c-0.5,1-1.1,2-1.7,2.9c-0.5,0.7-0.9,1.4-1.4,2.2l-0.1,0.1
		c-1.1,1.8-2,3.5-3.6,4.8c-1.7,1.4-3.4,2.1-5.2,2.1c-0.2,0-0.4,0-0.5,0c-1.7-0.2-3.3-1.1-4.5-2.6l-1.7-2.2l-0.6-4
		c-0.8-5.8,0.9-10.9,5.4-15.9C39,300.7,55.6,293.5,76.6,293.5z"/>
</g>
</svg>
